<?xml version="1.0" encoding="UTF-8" standalone="no"?>
<!DOCTYPE svg PUBLIC "-//W3C//DTD SVG 1.1//EN" "http://www.w3.org/Graphics/SVG/1.1/DTD/svg11.dtd">
<!-- Created with Vectornator (http://vectornator.io/) -->
<svg height="100%" stroke-miterlimit="10" style="fill-rule:nonzero;clip-rule:evenodd;stroke-linecap:round;stroke-linejoin:round;" version="1.1" viewBox="0 0 3370.82 2384.24" width="100%" xml:space="preserve" xmlns="http://www.w3.org/2000/svg" xmlns:vectornator="http://vectornator.io" xmlns:xlink="http://www.w3.org/1999/xlink">
<defs/>
<clipPath id="ArtboardFrame">
<rect height="2384.24" width="3370.82" x="0" y="0"/>
</clipPath>
<g clip-path="url(#ArtboardFrame)" id="Layer-1" vectornator:layerName="Layer 1">
<g opacity="1" vectornator:layerName="Cake">
<path d="M2178.7-1.02318e-12C1970.79-3.09813e-06 1802.24 168.546 1802.24 376.458C1802.24 584.37 1970.79 752.916 2178.7 752.916C2386.61 752.916 2555.16 584.37 2555.16 376.458C2555.16 168.546 2386.61-3.09813e-06 2178.7-1.02318e-12Z" fill="#f44336" fill-rule="nonzero" opacity="1" stroke="none" vectornator:layerName="path"/>
<path d="M2743.38 250.972C2618.46 250.972 2511.49 324.507 2461.04 430.229C2410.6 324.507 2303.62 250.972 2178.7 250.972C2053.78 250.972 1946.8 324.507 1896.35 430.229C1845.91 324.507 1738.93 250.972 1614.01 250.972C1440.78 250.972 1300.3 391.454 1300.3 564.687L3057.1 564.687C3057.1 391.454 2916.62 250.972 2743.38 250.972Z" fill="#f8bbd0" fill-rule="nonzero" opacity="1" stroke="none" vectornator:layerName="path"/>
<path d="M986.58 752.916L3370.81 752.916L3370.81 2384.23L986.58 2384.23L986.58 752.916Z" fill="#ffe0b2" fill-rule="nonzero" opacity="1" stroke="none" vectornator:layerName="path"/>
<path d="M986.58 1756.8L3370.81 1756.8L3370.81 2196.01L986.58 2196.01L986.58 1756.8ZM986.58 1317.6L3370.81 1317.6L3370.81 1505.83L986.58 1505.83L986.58 1317.6Z" fill="#ef5350" fill-rule="nonzero" opacity="1" stroke="none" vectornator:layerName="path"/>
<path d="M986.58 2196.01L3370.81 2196.01L3370.81 2384.23L986.58 2384.23L986.58 2196.01Z" fill="#ffcc80" fill-rule="nonzero" opacity="1" stroke="none" vectornator:layerName="path"/>
<path d="M1112.07 564.687C1042.74 564.687 986.58 620.842 986.58 690.173L986.58 815.659L2366.93 815.659C2436.26 815.659 2492.41 871.814 2492.41 941.145C2492.41 941.145 2492.41 1024.22 2492.41 1035.26C2492.41 1087.21 2534.58 1129.37 2586.53 1129.37C2638.48 1129.37 2680.64 1087.21 2680.64 1035.26C2680.64 1024.22 2680.64 941.145 2680.64 941.145C2680.64 871.814 2736.8 815.659 2806.13 815.659C2875.46 815.659 2931.61 871.814 2931.61 941.145C2931.61 975.842 2959.66 1003.89 2994.36 1003.89C3029.05 1003.89 3057.1 975.842 3057.1 941.145C3057.1 871.814 3113.25 815.659 3182.59 815.659L3370.81 815.659L3370.81 564.687L1112.07 564.687Z" fill="#795548" fill-rule="nonzero" opacity="1" stroke="none" vectornator:layerName="path"/>
</g>
<g opacity="1" vectornator:layerName="Bread">
<path d="M1210.22 1377.48C1201.75 1366.66 1192.81 1356.78 1182.93 1347.37C1204.1 1387.83 1221.98 1430.18 1236.09 1473.93C1237.04 1476.28 1237.51 1478.64 1238.45 1480.99C1243.62 1445.7 1235.62 1410.41 1210.22 1377.48ZM869.1 1446.64C842.281 1422.18 807.464 1404.3 774.528 1389.71C758.061 1382.65 741.122 1376.07 723.714 1373.71C719.479 1373.24 714.774 1373.24 711.951 1373.71L711.951 1373.71C711.481 1376.54 710.54 1379.36 709.128 1381.24C749.592 1400.53 787.703 1434.41 812.639 1460.29C846.045 1494.16 878.51 1533.69 897.801 1577.91C906.741 1598.15 912.857 1619.32 917.562 1640.49C920.856 1622.14 922.267 1603.32 921.797 1584.5C920.385 1534.63 901.094 1475.34 869.1 1446.64ZM528.454 1694.6C518.573 1664.02 505.869 1633.9 485.167 1608.97C470.581 1591.09 464.465 1585.44 445.645 1579.8C400.476 1565.68 352.014 1558.15 304.493 1554.86C290.378 1553.92 275.322 1553.45 261.206 1554.39C270.616 1555.8 280.027 1557.68 288.496 1560.03C331.312 1571.8 372.716 1590.15 408.945 1615.55C468.229 1656.96 511.516 1718.12 546.803 1782.58C543.51 1752 537.393 1722.83 528.454 1694.6Z" fill="#f6851f" fill-rule="nonzero" opacity="1" stroke="none" vectornator:layerName="path"/>
<path d="M1626.14 1107.41C1530.16 1062.71 1417.71 1062.71 1315.14 1080.59C1175.4 1104.58 1046.95 1167.63 915.68 1217.51C847.927 1243.38 779.704 1265.5 708.658 1281.02C637.611 1296.55 566.094 1307.84 494.577 1319.61C435.294 1329.49 374.128 1337.96 317.667 1359.6C275.792 1375.6 235.328 1394.89 196.747 1417.47C108.292 1468.29 23.1303 1530.86-43.2111 1608.97C-101.554 1678.13-148.134 1762.82-134.96 1856.45L-134.96 1856.92C-129.784 1860.69-126.02 1866.8-125.55 1875.27C-121.315 1954.79-100.613 2033.36-54.9737 2099.71C-14.9807 2157.58 39.598 2203.69 101.234 2237.09C236.27 2309.55 394.83 2333.08 546.333 2331.66C765.589 2330.25 990.961 2280.85 1183.4 2174.05C1277.5 2121.82 1365.01 2057.36 1440.76 1981.14C1521.22 1900.21 1585.68 1808.46 1646.38 1712.01C1709.89 1611.32 1765.41 1495.58 1773.41 1375.13C1780.47 1262.67 1731.07 1156.34 1626.14 1107.41ZM598.559 1901.15C596.207 1929.38 558.096 1925.62 548.685 1904.92C509.633 1817.4 463.053 1720.95 384.949 1661.66C358.601 1641.43 326.136 1625.44 294.612 1615.55C275.792 1609.44 232.505 1593.91 216.038 1612.73C193.924 1637.67 154.872 1603.79 176.986 1578.38C178.868 1576.03 181.22 1574.15 183.573 1571.8C182.632 1569.92 182.161 1568.5 181.22 1566.15C151.108 1459.82 408.475 1514.4 451.761 1528.04C515.28 1547.8 551.979 1604.26 573.152 1665.9C599.03 1740.71 605.146 1822.11 598.559 1901.15ZM925.561 1776C914.739 1798.11 876.628 1792.94 876.628 1766.59C876.628 1713.89 874.276 1658.84 854.514 1609.44C839.929 1573.21 815.933 1539.8 789.114 1511.1C763.236 1483.34 734.065 1456.05 700.659 1437.23C683.721 1427.82 648.903 1407.12 630.083 1424.06C606.087 1446.64 566.565 1412.77 591.031 1389.71C611.733 1370.42 635.729 1364.77 659.725 1367.13C659.725 1366.19 659.725 1365.25 660.195 1364.3C679.957 1260.79 856.396 1369.48 896.389 1402.42C1006.49 1493.22 981.081 1663.08 925.561 1776ZM1254.92 1578.38C1242.21 1597.68 1206.45 1597.2 1205.98 1568.97C1205.51 1545.45 1197.51 1522.86 1189.99 1499.34C1178.22 1462.64 1164.58 1426.41 1147.64 1391.59C1133.05 1361.48 1116.59 1329.02 1093.06 1305.02C1084.59 1296.55 1074.24 1288.55 1068.12 1287.14C1062.95 1286.2 1061.07 1285.26 1054.01 1291.85C1030.01 1314.9 990.961 1280.55 1014.96 1257.5C1022.49 1250.44 1030.01 1245.27 1037.54 1241.5C1039.89 1230.68 1048.36 1220.8 1060.6 1220.8L1079.42 1220.8C1090.71 1220.8 1098.71 1226.92 1102.94 1234.92C1164.11 1261.73 1224.33 1302.2 1260.09 1358.19C1305.26 1429.23 1301.02 1508.75 1254.92 1578.38ZM1337.72 1333.25C1337.25 1310.67 1334.9 1287.14 1326.9 1265.97C1320.79 1249.5 1315.14 1234.44 1296.79 1242.44C1266.21 1256.09 1249.74 1207.16 1279.85 1193.51C1361.25 1156.81 1389.01 1271.61 1389.48 1329.02C1389.95 1362.89 1338.19 1366.66 1337.72 1333.25Z" fill="#f6851f" fill-rule="nonzero" opacity="1" stroke="none" vectornator:layerName="path"/>
<path d="M1817.64 1273.03C1794.59 1164.81 1718.36 1084.35 1615.79 1047.18C1372.54 958.258 1122.7 1082.94 898.742 1168.57C830.989 1194.45 762.295 1216.09 691.719 1232.09C619.732 1248.09 546.333 1258.44 473.405 1270.67C415.062 1280.55 355.778 1289.49 300.258 1310.67C257.913 1326.66 217.449 1346.9 177.927 1368.54C88.0601 1418.41 3.83954 1480.99-65.7953 1556.74C-129.314 1625.44-182.951 1712.01-188.597 1807.99C-189.538 1825.87-189.068 1843.28-186.245 1860.69C-185.304 1868.22-181.54 1873.86-176.835 1877.63C-176.835 1878.1-176.835 1879.04-176.835 1879.51C-171.659 1977.37-142.017 2072.42-81.7925 2150.52C-26.7433 2222.51 50.4196 2274.26 132.758 2310.02C316.726 2389.54 528.924 2396.12 725.125 2371.66C942.499 2344.84 1153.76 2270.03 1332.55 2142.05C1421.47 2078.53 1500.52 2001.37 1569.21 1916.68C1605.44 1871.98 1637.91 1824.46 1668.02 1775.53C1698.6 1726.12 1729.19 1677.19 1754.59 1624.49C1805.41 1517.69 1842.58 1392.06 1817.64 1273.03ZM1772.94 1375.13C1765.41 1495.58 1709.42 1611.32 1645.91 1712.01C1585.21 1808.46 1521.22 1899.74 1440.29 1981.14C1364.54 2057.36 1277.03 2121.82 1182.93 2174.05C990.491 2280.85 764.648 2330.25 545.862 2331.66C394.36 2332.61 235.328 2309.55 100.764 2237.09C39.1275 2203.69-15.4512 2157.58-55.4442 2099.71C-101.083 2033.36-121.786 1954.79-126.02 1875.27C-126.491 1866.8-130.255 1860.69-135.43 1856.92L-135.43 1856.45C-148.604 1763.29-102.024 1678.13-43.6816 1608.97C22.6598 1530.39 107.351 1468.29 196.276 1417.47C234.858 1395.36 275.322 1375.6 317.197 1359.6C373.657 1337.96 434.823 1329.49 494.107 1319.61C565.624 1307.37 637.141 1296.55 708.187 1281.02C778.763 1265.5 847.457 1243.38 915.21 1217.51C1046.48 1167.63 1174.93 1104.58 1314.67 1080.59C1417.24 1062.71 1529.69 1063.18 1625.67 1107.41C1731.07 1156.34 1780.47 1262.67 1772.94 1375.13Z" fill="#010101" fill-rule="nonzero" opacity="1" stroke="none" vectornator:layerName="path"/>
<path d="M573.622 1665.43C552.92 1603.79 516.221 1547.8 452.232 1527.57C408.945 1513.93 151.578 1459.35 181.691 1565.68C182.161 1567.56 183.102 1569.44 184.043 1571.33C181.691 1573.21 179.338 1575.56 177.456 1577.91C155.342 1602.85 194.394 1637.2 216.508 1612.26C232.976 1593.44 275.792 1609.44 295.083 1615.08C326.607 1624.96 359.072 1641.43 385.42 1661.19C463.524 1720.48 510.104 1816.93 549.156 1904.45C558.566 1925.62 596.677 1928.91 599.03 1900.68C605.146 1822.11 599.03 1740.71 573.622 1665.43ZM408.945 1614.61C372.716 1589.21 331.312 1570.86 288.496 1559.09C280.027 1556.74 270.616 1554.86 261.206 1553.45C275.792 1552.51 290.378 1552.98 304.493 1553.92C352.014 1557.21 400.006 1564.74 445.645 1578.85C464.465 1584.97 470.581 1590.62 485.167 1608.03C505.869 1632.96 518.573 1663.08 528.454 1693.66C537.393 1721.89 543.51 1751.06 546.333 1781.17C511.516 1717.18 468.229 1656.02 408.945 1614.61ZM896.86 1402.42C856.867 1369.48 680.427 1260.79 660.666 1364.3C660.666 1365.25 660.195 1366.19 660.195 1367.13C635.729 1364.77 612.204 1370.42 591.502 1389.71C567.035 1412.3 606.087 1446.17 630.554 1424.06C648.903 1407.12 684.191 1427.82 701.129 1437.23C734.535 1456.05 763.707 1483.34 789.585 1511.1C816.403 1539.33 840.399 1573.21 854.985 1609.44C874.746 1658.84 877.099 1713.89 877.099 1766.59C877.099 1792.94 915.21 1798.11 926.031 1776C981.081 1663.08 1006.49 1493.22 896.86 1402.42ZM917.092 1640.96C912.387 1619.79 906.27 1598.62 897.33 1578.38C878.51 1534.16 845.575 1495.1 812.169 1460.76C787.232 1435.35 749.121 1401 708.658 1381.71C709.599 1379.36 710.54 1377.01 711.481 1374.18L711.481 1374.18C714.774 1373.71 719.009 1373.71 723.243 1374.18C741.122 1376.54 758.061 1383.12 774.058 1390.18C806.993 1404.3 841.811 1422.65 868.63 1447.11C900.624 1475.81 919.915 1535.1 921.326 1585.44C922.267 1603.79 920.385 1622.14 917.092 1640.96ZM1260.09 1358.66C1224.33 1302.67 1164.11 1262.2 1102.94 1235.39C1098.71 1227.39 1090.71 1221.27 1079.42 1221.27L1060.6 1221.27C1048.36 1221.27 1039.89 1231.15 1037.54 1241.97C1030.01 1245.74 1022.49 1250.91 1014.96 1257.97C990.961 1281.02 1030.01 1314.9 1054.01 1292.32C1061.07 1285.26 1062.95 1286.2 1068.12 1287.61C1074.24 1288.55 1085.06 1297.02 1093.06 1305.49C1116.59 1329.02 1133.52 1361.95 1147.64 1392.06C1164.58 1426.88 1178.22 1463.11 1189.99 1499.81C1197.51 1523.81 1205.51 1545.92 1205.98 1569.44C1206.45 1598.15 1242.21 1598.15 1254.92 1578.85C1301.02 1508.75 1305.26 1429.23 1260.09 1358.66ZM1238.92 1480.99C1237.98 1478.64 1237.51 1476.28 1236.57 1473.93C1222.45 1430.65 1204.57 1388.3 1183.4 1347.37C1193.28 1356.78 1202.22 1366.66 1210.69 1377.48C1235.62 1410.41 1243.62 1445.7 1238.92 1480.99ZM1279.85 1193.98C1249.74 1207.63 1266.68 1256.56 1296.79 1242.91C1315.14 1234.44 1320.79 1249.97 1326.9 1266.44C1334.9 1287.61 1337.25 1311.14 1337.72 1333.72C1338.19 1367.13 1389.48 1362.89 1389.48 1329.96C1389.01 1272.56 1361.25 1157.28 1279.85 1193.98ZM509.633 1073.53C510.104 1068.83 511.986 1064.59 513.398 1060.83C523.278 1036.83 539.275 1014.72 553.391 993.075C582.091 950.259 616.909 905.09 605.146 850.982C591.972 789.346 538.334 762.057 490.813 729.121C471.993 715.947 451.761 699.95 447.056 675.954C442.822 655.252 455.055 609.613 483.285 613.847C516.221 618.552 526.101 567.738 493.166 563.032C411.768 551.27 373.657 656.663 408.945 718.299C424.942 746.53 451.761 764.88 478.11 782.288C503.517 798.756 534.57 815.224 548.685 843.925C574.563 895.68 519.985 950.259 492.225 993.075C466.347 1033.07 430.118 1105.06 495.989 1129.52C527.042 1140.81 550.097 1094.7 519.044 1082.94C516.691 1082 510.104 1078.71 510.575 1079.18C510.104 1078.71 510.104 1078.71 509.633 1078.71C509.633 1078.24 509.633 1077.77 509.163 1077.3C509.633 1078.71 509.163 1074.94 509.633 1073.53ZM787.232 822.752C780.645 784.17 756.179 753.117 730.301 724.887C719.479 713.124 707.246 701.832 696.895 689.128C692.66 684.423 689.367 679.247 685.603 674.072C683.721 670.778 683.721 666.544 683.25 667.955C687.955 635.02 637.141 625.139 632.436 658.075C627.731 690.069 649.374 714.065 669.606 735.708C694.542 762.527 723.243 787.464 734.535 823.222C747.71 864.156 711.481 907.443 692.66 940.849C668.665 983.665 661.136 1029.3 680.427 1075.88C693.131 1106.47 742.063 1089.53 729.36 1058.95C693.601 973.314 802.288 911.207 787.232 822.752ZM1004.61 794.992C1000.37 731.474 972.141 608.201 884.627 629.374C852.162 637.372 869.571 685.835 901.565 678.306C920.385 673.601 933.559 713.124 938.264 725.828C949.086 756.41 953.791 789.346 953.321 821.34C953.321 861.333 939.205 903.208 927.443 940.849C912.857 986.958 893.096 1032.6 869.571 1074.94C853.103 1104.11 899.683 1126.7 916.151 1098C944.852 1047.18 966.024 992.134 982.963 936.144C997.078 890.975 1007.9 842.984 1004.61 794.992Z" fill="#010101" fill-rule="nonzero" opacity="1" stroke="none" vectornator:layerName="path"/>
</g>
<g opacity="1" vectornator:layerName="Chocolate Bar">
<path d="M3225.7 1623.02C3218.06 1576.83 3215.25 1529.44 3204.01 1483.65C3194.37 1444.29 3195.97 1402.12 3189.15 1362.36C3183.12 1325 3175.49 1275.2 3141.35 1252.3C3108.42 1230.21 3062.63 1235.44 3025.68 1241.06C3013.23 1242.67 3001.18 1244.27 2988.73 1246.28C2998.77 1332.23 3028.09 1414.57 3045.36 1498.91C3047.37 1508.15 3048.97 1517.79 3050.98 1527.03C3069.05 1524.22 3086.73 1521.81 3104.8 1518.6C3123.28 1515.38 3150.19 1512.17 3165.05 1498.51C3185.93 1479.64 3219.27 1508.55 3198.38 1527.83C3161.83 1561.17 3106.01 1563.18 3059.01 1570.01C3069.46 1629.85 3078.69 1690.1 3094.36 1748.74C3128.9 1729.06 3166.25 1708.17 3193.56 1680.86C3207.62 1666.8 3221.68 1652.74 3235.74 1638.69C3230.52 1635.47 3226.9 1630.25 3225.7 1623.02ZM2820.03 1847.94C2807.58 1850.76 2795.13 1853.97 2782.68 1856.78C2768.22 1859.99 2753.76 1863.21 2740.11 1868.43C2738.1 1869.23 2736.09 1870.03 2733.68 1870.84C2765.01 1878.07 2797.14 1883.69 2828.87 1886.1C2826.06 1873.25 2822.85 1860.8 2820.03 1847.94ZM3002.78 1508.55C2985.11 1422.6 2955.79 1338.66 2945.35 1251.5C2887.11 1258.73 2828.47 1265.56 2770.23 1272.79C2771.84 1374.81 2785.49 1476.02 2804.77 1576.43C2809.19 1575.63 2813.21 1574.83 2817.62 1573.62C2880.68 1559.16 2944.54 1547.51 3008.41 1535.06C3006 1526.23 3004.39 1517.39 3002.78 1508.55ZM3015.23 1577.24C2953.78 1588.48 2892.33 1601.74 2831.68 1615.39C2825.26 1616.6 2818.83 1618.2 2812.8 1619.41C2824.85 1678.85 2838.91 1737.49 2852.97 1796.53C2908.4 1788.1 2971.45 1799.75 3023.67 1775.65C3032.1 1771.63 3039.33 1773.64 3044.55 1778.06C3048.17 1776.05 3051.38 1774.04 3055 1772.03C3036.92 1707.77 3026.48 1642.3 3015.23 1577.24Z" fill="#c56528" fill-rule="nonzero" opacity="1" stroke="none" vectornator:layerName="path"/>
<path d="M2769.43 1627.44C2714.4 1637.08 2658.97 1643.51 2603.15 1647.93C2603.95 1671.22 2604.75 1694.52 2605.96 1718.21C2607.97 1755.97 2607.16 1804.57 2627.24 1838.3C2628.05 1839.51 2628.45 1840.71 2628.85 1841.92C2632.06 1843.12 2635.28 1843.93 2638.89 1845.13C2651.74 1849.15 2664.6 1852.76 2677.85 1856.78C2678.66 1853.57 2679.86 1850.35 2682.27 1847.94C2689.1 1839.91 2704.76 1835.09 2714.4 1831.08C2729.66 1825.05 2745.73 1820.63 2761.8 1817.02C2777.46 1813.4 2793.53 1808.98 2809.59 1805.37C2795.53 1745.93 2781.88 1686.88 2769.43 1627.44ZM3314.86 1654.35C3307.63 1627.04 3293.17 1614.19 3268.67 1612.58C3269.07 1614.99 3269.47 1617.4 3269.88 1619.41C3270.28 1622.22 3270.28 1624.63 3269.88 1626.64C3281.52 1632.66 3288.35 1647.93 3276.3 1659.57C3259.84 1676.04 3242.97 1692.91 3226.5 1709.38C3196.38 1739.5 3157.01 1761.19 3120.87 1783.28C3116.05 1786.09 3111.23 1788.9 3106.41 1792.12C3106.41 1792.92 3106.81 1793.32 3106.81 1794.12C3111.23 1814.61 3084.72 1823.04 3071.06 1813C3059.41 1819.83 3047.77 1826.66 3036.52 1833.49C3067.85 1826.66 3101.59 1827.86 3134.12 1838.3C3190.75 1855.98 3234.93 1896.95 3258.23 1949.16C3277.91 1894.13 3296.39 1839.11 3308.03 1781.67C3316.07 1741.51 3325.71 1694.52 3314.86 1654.35Z" fill="#bcbcbc" fill-rule="nonzero" opacity="1" stroke="none" vectornator:layerName="path"/>
<path d="M2872.25 1838.3C2869.03 1838.71 2866.22 1839.11 2863.01 1839.51C2867.03 1855.58 2870.64 1871.64 2874.66 1887.71C2881.49 1887.71 2888.72 1887.31 2895.54 1886.5C2899.56 1874.05 2914.82 1867.62 2926.07 1872.04C2933.3 1857.58 2944.54 1845.13 2957 1834.29C2928.48 1835.89 2899.56 1835.09 2872.25 1838.3Z" fill="#c56528" fill-rule="nonzero" opacity="1" stroke="none" vectornator:layerName="path"/>
<path d="M3397.2 2396.19C3381.53 2275.29 3366.27 2154.4 3352.62 2033.5C3346.19 1977.68 3344.18 1919.44 3332.53 1864.41C3315.66 1921.85 3293.98 1978.48 3273.49 2034.71C3265.86 2055.59 3232.52 2047.16 3231.72 2026.68C3228.51 1960.81 3187.14 1899.35 3121.67 1880.48C3058.21 1862 2997.56 1882.89 2957.8 1933.49C2918.44 2047.96 2769.03 2058.81 2665.4 2047.16C2591.5 2038.73 2520.01 2015.83 2445.7 2007.8C2428.43 2005.79 2411.16 2004.99 2393.49 2004.59L2393.49 2004.59C2372.6 2036.32 2379.43 2082.1 2384.65 2117.85C2391.48 2163.24 2402.73 2207.42 2412.77 2252.4C2439.27 2373.7 2450.92 2498.61 2462.17 2621.91C2466.59 2670.51 2469 2717.91 2470.2 2766.51C2471 2801.45 2471.41 2839.2 2486.27 2871.34C2502.73 2906.68 2535.27 2918.33 2571.01 2924.75C2628.05 2934.8 2685.48 2938.41 2743.32 2938.01C2854.17 2937.21 2964.22 2923.95 3073.47 2906.28C3173.08 2890.61 3278.71 2869.73 3361.05 2807.88C3363.86 2805.47 3367.48 2803.46 3371.49 2803.06C3375.91 2802.65 3380.33 2803.86 3383.94 2806.27C3387.96 2808.28 3391.58 2808.28 3387.96 2809.48C3390.37 2808.68 3389.97 2809.48 3393.18 2805.06C3398.8 2797.43 3402.82 2784.58 3405.63 2774.54C3412.06 2748.03 3415.67 2720.32 3417.28 2692.6C3422.5 2594.2 3409.65 2494.19 3397.2 2396.19Z" fill="#d6e5e5" fill-rule="nonzero" opacity="1" stroke="none" vectornator:layerName="path"/>
<path d="M2636.08 1889.72C2587.08 1874.85 2539.28 1857.18 2492.29 1836.7C2443.29 1815.01 2393.49 1792.12 2339.67 1787.7C2333.64 1787.3 2329.22 1784.89 2326.41 1781.27C2323.2 1780.47 2319.99 1778.86 2317.17 1776.45C2313.16 1772.84 2309.54 1767.21 2309.54 1761.59L2309.54 1755.57C2309.54 1749.54 2310.75 1743.92 2315.17 1739.1C2318.38 1735.48 2322.4 1733.48 2326.81 1732.27C2326.81 1728.66 2326.41 1724.64 2326.01 1721.02C2307.13 1722.23 2297.09 1738.7 2289.06 1759.98C2277.01 1792.52 2273.4 1828.67 2269.38 1863.21C2264.96 1899.35 2263.35 1943.54 2252.51 1983.3C2302.31 1964.02 2356.94 1958.4 2410.76 1961.21C2489.48 1965.63 2563.78 1986.11 2640.9 1999.36C2721.63 2013.42 2873.05 2021.05 2912.81 1929.48C2820.84 1940.32 2723.24 1916.22 2636.08 1889.72Z" fill="#bcbcbc" fill-rule="nonzero" opacity="1" stroke="none" vectornator:layerName="path"/>
<path d="M2725.65 1278.41C2716.81 1279.62 2707.98 1280.82 2699.14 1282.03C2645.72 1289.66 2592.3 1296.89 2538.48 1303.72C2538.88 1306.13 2538.88 1308.94 2539.69 1311.35C2542.1 1321.39 2544.51 1331.03 2547.72 1340.67C2552.94 1357.94 2558.56 1375.21 2562.18 1392.88C2575.03 1453.13 2589.89 1512.17 2597.52 1573.62C2598.73 1584.06 2599.93 1594.1 2600.74 1604.55C2654.56 1600.53 2707.98 1594.51 2760.99 1584.87C2741.31 1483.65 2727.66 1381.63 2725.65 1278.41ZM2551.74 1562.37C2543.3 1503.33 2531.65 1442.68 2515.19 1385.65C2509.16 1365.57 2495.5 1335.85 2493.9 1309.34C2444.9 1314.96 2395.5 1320.18 2346.09 1323.4C2349.71 1331.83 2347.3 1340.27 2342.08 1346.29C2342.08 1349.1 2342.08 1351.91 2342.08 1354.72C2342.08 1363.16 2340.47 1371.59 2340.47 1380.03C2340.47 1398.1 2342.08 1416.18 2344.08 1434.25C2347.7 1468.79 2348.5 1503.33 2352.12 1537.47C2354.53 1562.37 2357.74 1587.28 2360.55 1612.18C2362.56 1611.78 2364.57 1611.38 2366.58 1611.38C2429.64 1611.38 2493.5 1610.57 2556.96 1607.36C2555.35 1592.1 2553.74 1577.24 2551.74 1562.37ZM2562.18 1721.02C2560.97 1697.33 2560.17 1674.03 2559.37 1650.33C2496.31 1653.95 2433.25 1655.15 2369.79 1655.15C2368.18 1655.15 2366.58 1655.15 2364.97 1654.75C2368.18 1683.27 2370.59 1712.19 2371.4 1741.11C2371.8 1742.71 2371.8 1744.32 2371.8 1745.93L2371.8 1747.13C2415.98 1755.16 2458.15 1773.24 2499.12 1791.31C2524.02 1802.16 2548.92 1812.6 2574.23 1822.24C2565.39 1789.71 2563.78 1753.96 2562.18 1721.02Z" fill="#c56528" fill-rule="nonzero" opacity="1" stroke="none" vectornator:layerName="path"/>
<path d="M3452.22 2485.76C3439.37 2359.24 3419.69 2233.93 3405.63 2107.41C3398.8 2045.55 3391.58 1983.7 3384.35 1921.45C3381.53 1896.14 3378.72 1871.24 3373.5 1845.94C3371.49 1836.3 3369.89 1826.26 3369.08 1816.62C3368.68 1811.8 3368.68 1806.98 3368.68 1802.16C3368.68 1799.35 3372.3 1792.52 3368.68 1795.73C3385.55 1781.67 3374.3 1755.97 3357.84 1754.36C3364.66 1711.79 3367.88 1664.39 3351.41 1624.63C3335.75 1586.07 3301.2 1568.4 3262.25 1568C3257.83 1536.67 3253.81 1505.34 3246.98 1474.41C3237.74 1431.04 3238.15 1385.25 3230.11 1341.47C3222.48 1299.3 3210.83 1255.12 3178.7 1224.99C3145.77 1194.07 3097.57 1190.05 3055 1192.86C3026.88 1194.47 2999.17 1198.89 2971.05 1202.9C2964.63 1201.3 2957.4 1202.1 2951.77 1205.71C2938.92 1207.32 2926.47 1208.93 2913.62 1210.53C2848.55 1216.96 2783.89 1225.8 2719.22 1234.63C2589.89 1252.71 2460.56 1271.99 2330.43 1280.02C2313.96 1281.22 2307.94 1296.49 2311.95 1308.94C2309.54 1310.14 2307.54 1311.75 2305.93 1313.76C2297.49 1325 2298.3 1337.86 2297.9 1351.11C2297.49 1368.38 2295.89 1385.65 2296.69 1402.92C2298.7 1441.48 2302.31 1480.04 2305.53 1518.19C2309.95 1571.21 2317.58 1623.83 2322.8 1676.84C2258.94 1681.66 2240.46 1758.38 2231.62 1814.61C2225.2 1855.17 2221.98 1896.14 2215.56 1936.71C2211.54 1962.41 2204.31 2002.58 2187.04 2017.84C2166.16 2035.91 2188.25 2071.66 2211.94 2054.39C2251.71 2025.47 2297.09 2011.01 2344.08 2005.79C2335.25 2032.3 2335.65 2062.42 2337.66 2089.33C2340.87 2133.11 2350.91 2176.49 2360.95 2219.47C2385.05 2325.1 2399.51 2431.94 2410.36 2539.58C2416.38 2598.62 2424.01 2658.06 2425.62 2717.51C2426.82 2755.66 2425.62 2794.22 2430.84 2831.97C2435.66 2867.72 2448.11 2900.25 2472.61 2926.76C2502.33 2958.89 2548.12 2965.32 2589.09 2971.35C2730.87 2992.23 2877.87 2978.98 3018.85 2958.09C3140.95 2940.02 3273.49 2922.75 3377.12 2850.05C3432.54 2868.12 3451.82 2780.56 3457.44 2740C3468.29 2656.86 3460.66 2570.1 3452.22 2485.76ZM3276.3 1659.97C3288.35 1647.93 3281.52 1633.06 3269.88 1627.04C3270.28 1625.03 3270.28 1622.22 3269.88 1619.81C3269.47 1617.4 3269.07 1614.99 3268.67 1612.98C3293.17 1614.59 3307.23 1627.44 3314.86 1654.75C3325.71 1694.52 3316.47 1741.91 3308.03 1781.67C3296.39 1839.11 3277.91 1894.54 3258.23 1949.16C3234.93 1897.35 3191.15 1856.38 3134.12 1838.3C3101.59 1827.86 3067.85 1827.06 3036.52 1833.49C3048.17 1826.66 3059.82 1819.83 3071.06 1813C3085.12 1823.04 3111.23 1814.61 3106.81 1794.12C3106.81 1793.32 3106.41 1792.92 3106.41 1792.12C3111.23 1789.3 3116.05 1786.49 3120.87 1783.28C3157.01 1761.19 3196.38 1739.5 3226.5 1709.38C3242.97 1693.31 3259.84 1676.44 3276.3 1659.97ZM2852.97 1796.13C2838.91 1737.49 2825.26 1678.45 2812.8 1619.01C2819.23 1617.8 2825.66 1616.6 2831.68 1614.99C2892.33 1601.33 2953.78 1588.08 3015.23 1576.83C3026.48 1642.3 3036.52 1707.37 3054.59 1771.23C3050.98 1773.24 3047.77 1775.25 3044.15 1777.25C3039.33 1772.44 3032.1 1770.83 3023.27 1774.84C2971.45 1799.35 2908.4 1787.7 2852.97 1796.13ZM2957 1834.29C2944.54 1845.13 2933.3 1857.58 2926.07 1872.04C2914.82 1867.62 2899.56 1874.05 2895.54 1886.5C2888.72 1886.9 2881.49 1887.31 2874.66 1887.71C2871.04 1871.64 2867.03 1855.58 2863.01 1839.51C2866.22 1839.11 2869.03 1838.71 2872.25 1838.3C2899.56 1835.09 2928.48 1835.89 2957 1834.29ZM2829.27 1886.1C2797.54 1883.69 2765.41 1878.07 2734.08 1870.84C2736.09 1870.03 2738.1 1869.23 2740.51 1868.43C2754.57 1863.61 2769.03 1859.99 2783.08 1856.78C2795.53 1853.97 2807.98 1850.76 2820.44 1847.94C2822.85 1860.8 2826.06 1873.25 2829.27 1886.1ZM3025.68 1240.66C3062.63 1235.44 3108.42 1229.81 3141.35 1251.9C3175.09 1274.8 3182.72 1324.6 3189.15 1361.95C3195.97 1401.72 3194.37 1444.29 3204.01 1483.25C3215.25 1529.04 3218.06 1576.43 3225.7 1622.62C3226.9 1629.85 3230.52 1635.07 3235.74 1637.88C3221.68 1651.94 3207.62 1666 3193.56 1680.06C3166.25 1707.37 3128.9 1728.25 3094.36 1747.93C3078.69 1689.29 3069.05 1629.05 3059.01 1569.2C3106.01 1561.97 3161.83 1559.96 3198.38 1527.03C3219.27 1507.75 3185.93 1478.83 3165.05 1497.71C3150.59 1510.96 3123.28 1514.18 3104.8 1517.79C3087.13 1521.01 3069.05 1523.42 3050.98 1526.23C3049.37 1516.59 3047.37 1507.35 3045.36 1498.11C3028.09 1413.77 2999.17 1331.43 2988.73 1245.48C3001.18 1244.27 3013.63 1242.67 3025.68 1240.66ZM2944.95 1251.5C2955.39 1338.66 2985.11 1422.6 3002.38 1508.55C3003.99 1517.39 3006 1526.23 3007.6 1534.66C2944.14 1547.11 2880.28 1558.76 2816.82 1573.22C2812.4 1574.02 2808.39 1575.23 2803.97 1576.03C2784.69 1475.62 2771.03 1374.81 2769.43 1272.39C2828.07 1265.56 2886.71 1258.73 2944.95 1251.5ZM2809.59 1804.97C2793.53 1808.98 2777.46 1813 2761.8 1816.62C2745.73 1820.23 2729.66 1824.65 2714.4 1830.67C2704.76 1834.29 2689.1 1839.11 2682.27 1847.54C2680.26 1849.95 2678.66 1853.17 2677.85 1856.38C2664.6 1852.76 2651.74 1848.75 2638.89 1844.73C2635.68 1843.53 2632.47 1842.72 2628.85 1841.52C2628.45 1840.31 2627.65 1839.11 2627.24 1837.9C2607.16 1804.17 2607.97 1755.57 2605.96 1717.81C2604.75 1694.52 2603.95 1671.22 2603.15 1647.52C2658.97 1643.11 2714.4 1636.68 2769.43 1627.04C2781.88 1686.88 2795.53 1745.93 2809.59 1804.97ZM2699.14 1282.03C2707.98 1280.82 2716.81 1279.62 2725.65 1278.41C2727.25 1381.63 2741.31 1483.65 2760.99 1584.87C2707.98 1594.51 2654.56 1600.53 2600.74 1604.55C2599.93 1594.1 2599.13 1583.66 2597.52 1573.62C2589.89 1512.57 2574.63 1453.13 2562.18 1392.88C2558.56 1375.21 2552.54 1357.94 2547.72 1340.67C2544.91 1331.03 2542.1 1321.39 2539.69 1311.35C2539.28 1308.94 2538.88 1306.53 2538.48 1303.72C2592.3 1296.89 2645.72 1289.66 2699.14 1282.03ZM2371.4 1741.11C2370.19 1712.19 2367.78 1683.67 2364.97 1654.75C2366.58 1655.15 2368.18 1655.15 2369.79 1655.15C2432.85 1655.15 2496.31 1653.95 2559.37 1650.33C2560.57 1673.63 2560.97 1697.33 2562.18 1721.02C2563.78 1753.56 2565.39 1789.3 2574.23 1822.24C2548.92 1812.6 2524.02 1802.16 2499.12 1791.31C2458.15 1773.24 2415.98 1755.16 2371.8 1747.13L2371.8 1745.93C2372.2 1744.32 2371.8 1742.71 2371.4 1741.11ZM2342.08 1354.72C2342.08 1351.91 2342.08 1349.1 2342.08 1346.29C2347.3 1340.27 2349.71 1331.83 2346.09 1323.4C2395.5 1320.18 2444.9 1315.36 2493.9 1309.34C2495.5 1335.45 2509.16 1365.57 2515.19 1385.65C2532.05 1443.09 2543.3 1503.33 2551.74 1562.37C2553.74 1577.24 2555.35 1592.1 2556.56 1607.36C2493.1 1610.57 2429.64 1611.38 2366.18 1611.38C2363.77 1611.38 2361.76 1611.78 2360.15 1612.18C2357.34 1587.28 2354.13 1562.37 2351.72 1537.47C2348.1 1502.93 2347.3 1468.39 2343.68 1434.25C2341.67 1416.18 2340.47 1398.1 2340.07 1380.03C2340.07 1371.19 2342.08 1363.16 2342.08 1354.72ZM2252.91 1982.9C2263.76 1943.54 2265.36 1898.95 2269.78 1862.81C2273.8 1828.67 2277.41 1792.52 2289.46 1759.58C2297.09 1738.3 2307.54 1721.83 2326.41 1720.62C2326.81 1724.24 2326.81 1728.25 2327.22 1731.87C2322.8 1733.07 2318.78 1735.08 2315.57 1738.7C2311.55 1743.52 2309.95 1748.74 2309.95 1755.16L2309.95 1761.19C2309.95 1766.81 2313.56 1772.44 2317.58 1776.05C2319.99 1778.46 2323.2 1780.07 2326.81 1780.87C2329.63 1784.48 2334.04 1786.89 2340.07 1787.3C2394.29 1792.12 2443.69 1814.61 2492.69 1836.3C2539.69 1857.18 2587.08 1874.45 2636.48 1889.31C2723.64 1915.82 2821.24 1939.92 2913.22 1928.67C2873.45 2020.25 2722.43 2012.62 2641.3 1998.56C2564.19 1985.31 2489.88 1964.82 2411.16 1960.4C2357.34 1958 2302.72 1964.02 2252.91 1982.9ZM3417.68 2692.6C3416.08 2719.92 3412.86 2747.63 3406.03 2774.54C3403.62 2784.98 3399.21 2797.43 3393.58 2805.06C3390.37 2809.48 3390.77 2808.68 3388.36 2809.48C3391.98 2808.28 3388.36 2808.68 3384.35 2806.27C3380.73 2803.86 3376.31 2802.65 3371.89 2803.06C3367.88 2803.46 3364.26 2805.06 3361.45 2807.88C3278.71 2869.73 3173.48 2890.21 3073.87 2906.28C2964.63 2923.55 2854.58 2936.8 2743.72 2938.01C2685.88 2938.41 2628.45 2934.8 2571.42 2924.75C2535.27 2918.33 2502.73 2906.68 2486.67 2871.34C2471.81 2839.2 2471.41 2801.05 2470.6 2766.51C2469.4 2717.91 2466.99 2670.11 2462.57 2621.91C2451.32 2498.61 2440.08 2373.7 2413.17 2252.4C2403.13 2207.82 2391.88 2163.24 2385.05 2117.85C2379.83 2082.1 2373 2036.72 2393.89 2004.59L2393.89 2004.59C2411.16 2004.99 2428.83 2005.79 2446.1 2007.8C2520.41 2015.43 2591.5 2038.73 2665.8 2047.16C2769.43 2058.81 2918.84 2047.96 2958.2 1933.49C2997.96 1882.89 3058.21 1862 3122.07 1880.48C3187.14 1899.35 3228.91 1960.81 3232.12 2026.68C3232.93 2047.56 3266.26 2056 3273.89 2034.71C3294.38 1978.08 3316.07 1921.85 3332.93 1864.41C3344.58 1919.44 3346.59 1977.68 3353.02 2033.5C3366.67 2154.8 3381.94 2275.29 3397.6 2396.19C3409.65 2494.19 3422.5 2594.2 3417.68 2692.6Z" fill="#000000" fill-rule="nonzero" opacity="1" stroke="none" vectornator:layerName="path"/>
</g>
<g opacity="1" vectornator:layerName="Cookie">
<path d="M2394.17 1847.42C2377.08 1856.02 2357.1 1861.93 2335.67 1861.93C2289.05 1861.93 2249.42 1838.35 2232.01 1804.88C2210.5 1813.53 2187.07 1818.4 2162.48 1818.4C2059.31 1818.4 1975.68 1734.78 1975.68 1631.61C1975.68 1606.84 1980.62 1583.26 1989.37 1561.63C1989.54 1559.82 1989.77 1558.26 1989.98 1556.57C1956.46 1544.55 1932.16 1508.82 1932.16 1466.57C1932.16 1446.77 1937.53 1428.4 1946.65 1413.22C1937.12 1412.64 1927.34 1412.16 1917.65 1412.16C1653.23 1412.16 1438.87 1626.53 1438.87 1890.94C1438.87 2155.36 1653.23 2369.73 1917.65 2369.73C2182.07 2369.73 2396.43 2155.36 2396.43 1890.94C2396.43 1876.54 2395.49 1861.49 2394.17 1847.42Z" fill="#fcba7f" fill-rule="nonzero" opacity="1" stroke="none" vectornator:layerName="path"/>
<path d="M1917.65 2384.23C1645.64 2384.23 1424.36 2162.95 1424.36 1890.94C1424.36 1618.94 1645.64 1397.65 1917.65 1397.65C1927.63 1397.65 1937.72 1398.13 1947.55 1398.74C1952.62 1399.05 1957.14 1401.99 1959.51 1406.48C1961.87 1410.97 1961.71 1416.36 1959.1 1420.69C1950.96 1434.22 1946.67 1450.07 1946.67 1466.57C1946.67 1501.35 1966.49 1532.74 1994.86 1542.9C2001.22 1545.18 2005.15 1551.53 2004.38 1558.24L2003.82 1562.98C2003.69 1564.39 2003.35 1565.77 2002.83 1567.07C1994.43 1587.77 1990.19 1609.49 1990.19 1631.61C1990.19 1726.61 2067.48 1803.89 2162.48 1803.89C2184.45 1803.89 2206.02 1799.7 2226.61 1791.43C2233.56 1788.63 2241.45 1791.58 2244.89 1798.19C2267.28 1841.24 2331.64 1862.65 2387.65 1834.46C2391.93 1832.33 2397.03 1832.42 2401.2 1834.74C2405.41 1837.06 2408.17 1841.31 2408.62 1846.08C2410.16 1862.61 2410.94 1877.71 2410.94 1890.94C2410.94 2162.95 2189.66 2384.23 1917.65 2384.23ZM1917.65 1426.67C1661.65 1426.67 1453.38 1634.94 1453.38 1890.94C1453.38 2146.95 1661.65 2355.22 1917.65 2355.22C2173.65 2355.22 2381.92 2146.95 2381.92 1890.94C2381.92 1884.05 2381.69 1876.6 2381.24 1868.62C2321.67 1889.2 2256.21 1866.79 2225.8 1822.62C2205.3 1829.46 2184.06 1832.91 2162.48 1832.91C2051.48 1832.91 1961.18 1742.61 1961.18 1631.61C1961.18 1608.77 1965.05 1586.31 1972.68 1564.72C1939.3 1546.86 1917.65 1509.07 1917.65 1466.57C1917.65 1452.82 1919.94 1439.35 1924.37 1426.74C1922.13 1426.7 1919.88 1426.67 1917.65 1426.67Z" fill="#1f212b" fill-rule="nonzero" opacity="1" stroke="none" vectornator:layerName="path"/>
<path d="M2222.33 1404.91C2194.28 1404.91 2171.55 1427.64 2171.55 1455.69C2171.55 1483.73 2194.28 1506.47 2222.33 1506.47C2250.37 1506.47 2273.11 1483.73 2273.11 1455.69C2273.11 1427.64 2250.37 1404.91 2222.33 1404.91ZM2374.67 1651.55C2358.64 1651.55 2345.65 1664.55 2345.65 1680.57C2345.65 1696.6 2358.64 1709.59 2374.67 1709.59C2390.69 1709.59 2403.69 1696.6 2403.69 1680.57C2403.69 1664.55 2390.69 1651.55 2374.67 1651.55ZM2178.8 1579.01C2158.77 1579.01 2142.53 1595.25 2142.53 1615.28C2142.53 1635.32 2158.77 1651.55 2178.8 1651.55C2198.84 1651.55 2215.07 1635.32 2215.07 1615.28C2215.07 1595.25 2198.84 1579.01 2178.8 1579.01ZM1816.09 1651.55C1796.06 1651.55 1779.82 1667.79 1779.82 1687.83C1779.82 1707.86 1796.06 1724.1 1816.09 1724.1C1836.12 1724.1 1852.36 1707.86 1852.36 1687.83C1852.36 1667.79 1836.12 1651.55 1816.09 1651.55ZM1888.63 1869.18C1868.6 1869.18 1852.36 1885.42 1852.36 1905.45C1852.36 1925.49 1868.6 1941.72 1888.63 1941.72C1908.67 1941.72 1924.9 1925.49 1924.9 1905.45C1924.9 1885.42 1908.67 1869.18 1888.63 1869.18ZM1714.53 2028.78C1686.49 2028.78 1663.75 2051.51 1663.75 2079.56C1663.75 2107.6 1686.49 2130.34 1714.53 2130.34C1742.58 2130.34 1765.31 2107.6 1765.31 2079.56C1765.31 2051.51 1742.58 2028.78 1714.53 2028.78ZM2033.72 2028.78C1997.66 2028.78 1968.43 2058.01 1968.43 2094.06C1968.43 2130.12 1997.66 2159.35 2033.72 2159.35C2069.78 2159.35 2099.01 2130.12 2099.01 2094.06C2099.01 2058.01 2069.78 2028.78 2033.72 2028.78ZM1663.75 1767.62C1623.69 1767.62 1591.21 1800.1 1591.21 1840.17C1591.21 1880.23 1623.69 1912.71 1663.75 1912.71C1703.82 1912.71 1736.29 1880.23 1736.29 1840.17C1736.29 1800.1 1703.82 1767.62 1663.75 1767.62Z" fill="#b77748" fill-rule="nonzero" opacity="1" stroke="none" vectornator:layerName="path"/>
<path d="M2222.33 1513.72C2190.32 1513.72 2164.3 1487.69 2164.3 1455.69C2164.3 1423.68 2190.32 1397.65 2222.33 1397.65C2254.34 1397.65 2280.36 1423.68 2280.36 1455.69C2280.36 1487.69 2254.34 1513.72 2222.33 1513.72ZM2222.33 1412.16C2198.33 1412.16 2178.8 1431.69 2178.8 1455.69C2178.8 1479.69 2198.33 1499.21 2222.33 1499.21C2246.33 1499.21 2265.85 1479.69 2265.85 1455.69C2265.85 1431.69 2246.33 1412.16 2222.33 1412.16ZM2374.67 1716.84C2354.68 1716.84 2338.4 1700.56 2338.4 1680.57C2338.4 1660.58 2354.68 1644.3 2374.67 1644.3C2394.66 1644.3 2410.94 1660.58 2410.94 1680.57C2410.94 1700.56 2394.66 1716.84 2374.67 1716.84ZM2374.67 1658.81C2362.67 1658.81 2352.91 1668.57 2352.91 1680.57C2352.91 1692.57 2362.67 1702.33 2374.67 1702.33C2386.67 1702.33 2396.43 1692.57 2396.43 1680.57C2396.43 1668.57 2386.67 1658.81 2374.67 1658.81ZM2178.8 1658.81C2154.81 1658.81 2135.28 1639.28 2135.28 1615.28C2135.28 1591.29 2154.81 1571.76 2178.8 1571.76C2202.8 1571.76 2222.33 1591.29 2222.33 1615.28C2222.33 1639.28 2202.8 1658.81 2178.8 1658.81ZM2178.8 1586.27C2162.8 1586.27 2149.79 1599.28 2149.79 1615.28C2149.79 1631.29 2162.8 1644.3 2178.8 1644.3C2194.81 1644.3 2207.82 1631.29 2207.82 1615.28C2207.82 1599.28 2194.81 1586.27 2178.8 1586.27ZM1816.09 1731.35C1792.09 1731.35 1772.56 1711.82 1772.56 1687.83C1772.56 1663.83 1792.09 1644.3 1816.09 1644.3C1840.09 1644.3 1859.62 1663.83 1859.62 1687.83C1859.62 1711.82 1840.09 1731.35 1816.09 1731.35ZM1816.09 1658.81C1800.09 1658.81 1787.07 1671.82 1787.07 1687.83C1787.07 1703.83 1800.09 1716.84 1816.09 1716.84C1832.09 1716.84 1845.11 1703.83 1845.11 1687.83C1845.11 1671.82 1832.09 1658.81 1816.09 1658.81ZM1888.63 1948.98C1864.64 1948.98 1845.11 1929.45 1845.11 1905.45C1845.11 1881.46 1864.64 1861.93 1888.63 1861.93C1912.63 1861.93 1932.16 1881.46 1932.16 1905.45C1932.16 1929.45 1912.63 1948.98 1888.63 1948.98ZM1888.63 1876.44C1872.63 1876.44 1859.62 1889.45 1859.62 1905.45C1859.62 1921.46 1872.63 1934.47 1888.63 1934.47C1904.64 1934.47 1917.65 1921.46 1917.65 1905.45C1917.65 1889.45 1904.64 1876.44 1888.63 1876.44ZM1714.53 2137.59C1682.52 2137.59 1656.5 2111.56 1656.5 2079.56C1656.5 2047.55 1682.52 2021.52 1714.53 2021.52C1746.54 2021.52 1772.56 2047.55 1772.56 2079.56C1772.56 2111.56 1746.54 2137.59 1714.53 2137.59ZM1714.53 2036.03C1690.53 2036.03 1671.01 2055.56 1671.01 2079.56C1671.01 2103.55 1690.53 2123.08 1714.53 2123.08C1738.53 2123.08 1758.06 2103.55 1758.06 2079.56C1758.06 2055.56 1738.53 2036.03 1714.53 2036.03ZM2033.72 2166.61C1993.72 2166.61 1961.18 2134.06 1961.18 2094.06C1961.18 2054.06 1993.72 2021.52 2033.72 2021.52C2073.72 2021.52 2106.26 2054.06 2106.26 2094.06C2106.26 2134.06 2073.72 2166.61 2033.72 2166.61ZM2033.72 2036.03C2001.71 2036.03 1975.68 2062.06 1975.68 2094.06C1975.68 2126.07 2001.71 2152.1 2033.72 2152.1C2065.72 2152.1 2091.75 2126.07 2091.75 2094.06C2091.75 2062.06 2065.72 2036.03 2033.72 2036.03ZM1663.75 1919.96C1619.75 1919.96 1583.95 1884.17 1583.95 1840.17C1583.95 1796.16 1619.75 1760.37 1663.75 1760.37C1707.76 1760.37 1743.55 1796.16 1743.55 1840.17C1743.55 1884.17 1707.76 1919.96 1663.75 1919.96ZM1663.75 1774.88C1627.76 1774.88 1598.46 1804.17 1598.46 1840.17C1598.46 1876.16 1627.76 1905.45 1663.75 1905.45C1699.75 1905.45 1729.04 1876.16 1729.04 1840.17C1729.04 1804.17 1699.75 1774.88 1663.75 1774.88Z" fill="#1f212b" fill-rule="nonzero" opacity="1" stroke="none" vectornator:layerName="path"/>
<path d="M2263.85 2123.08C2262.5 2123.08 2261.13 2122.7 2259.91 2121.91C2256.55 2119.73 2255.6 2115.23 2257.77 2111.87C2272.82 2088.7 2285.3 2064.71 2294.87 2040.6C2296.35 2036.89 2300.57 2035.06 2304.29 2036.54C2308 2038.02 2309.83 2042.24 2308.35 2045.95C2298.43 2070.97 2285.5 2095.81 2269.93 2119.77C2268.55 2121.92 2266.22 2123.08 2263.85 2123.08ZM1917.65 2311.69C1913.65 2311.69 1910.4 2308.44 1910.4 2304.44C1910.4 2300.43 1913.65 2297.18 1917.65 2297.18C2036.14 2297.18 2148.47 2245.23 2225.81 2154.64C2228.44 2151.59 2233.01 2151.26 2236.04 2153.83C2239.09 2156.42 2239.45 2161.01 2236.85 2164.05C2156.74 2257.88 2040.39 2311.69 1917.65 2311.69ZM2316.36 2007.01C2315.74 2007.01 2315.08 2006.94 2314.44 2006.75C2310.57 2005.69 2308.29 2001.72 2309.35 1997.84C2313.31 1983.26 2316.45 1968.88 2318.64 1955.09C2319.26 1951.14 2322.92 1948.44 2326.94 1949.07C2330.88 1949.69 2333.58 1953.4 2332.96 1957.37C2330.68 1971.67 2327.46 1986.57 2323.34 2001.66C2322.48 2004.89 2319.55 2007.01 2316.36 2007.01Z" fill="#1f212b" fill-rule="nonzero" opacity="1" stroke="none" vectornator:layerName="path"/>
</g>
<g opacity="1" vectornator:layerName="Croissant">
<path d="M1126.39 673.101C1123.36 601.72 1115.58 532.934 1099.57 463.283C1073.61 349.074 1045.93 228.807 990.551 124.548C968.055 81.7189 944.262 46.6772 890.618 49.2729C842.598 51.8686 797.606 70.0383 753.047 86.4776C701.998 105.08 649.22 116.328 599.037 137.093C546.69 158.724 497.805 186.844 453.246 221.453C408.687 256.062 368.021 295.43 325.625 332.634C287.555 365.513 243.861 404.881 237.805 457.227C237.805 458.957 237.372 460.255 236.94 461.986C245.592 471.07 247.755 487.077 238.67 497.027C241.266 505.247 244.294 513.467 248.188 520.821C260.301 545.912 275.875 569.274 291.016 592.202C324.327 641.52 359.802 689.973 397.872 735.83C491.749 849.607 616.341 993.667 770.351 1043.42C778.138 1041.69 786.791 1043.42 792.415 1049.91C803.663 1052.93 810.152 1062.88 811.45 1072.83C838.704 1066.78 865.094 1058.56 892.348 1051.64C948.155 1036.93 1006.99 1023.08 1050.25 981.121C1084.43 947.81 1103.9 899.357 1142.83 870.805C1130.29 805.913 1128.99 739.29 1126.39 673.101ZM488.72 427.377C488.72 424.348 488.72 420.887 489.586 417.859C491.749 411.37 491.749 410.505 496.075 404.881C499.103 400.555 504.294 397.526 509.053 395.796C514.245 393.633 519.868 393.2 525.492 393.2C532.414 393.2 538.471 394.498 544.095 399.257C548.854 403.583 551.882 409.639 552.747 416.129C553.18 422.618 551.017 429.54 546.69 434.731C543.23 439.057 537.173 442.518 531.549 442.951C527.223 446.844 522.032 449.44 516.408 449.872C509.918 450.305 502.997 448.142 497.805 443.816C492.614 440.355 488.288 433.433 488.72 427.377ZM544.527 525.58C543.662 526.445 542.364 527.31 541.067 528.175C539.336 529.041 537.173 529.906 535.443 531.204C534.145 532.069 532.847 532.501 531.116 532.934C526.79 534.232 522.032 535.097 517.705 533.799C510.784 531.636 506.025 529.041 501.699 522.984C495.21 514.764 496.075 499.623 503.862 491.836C506.025 489.673 508.188 487.942 510.784 486.212C515.11 483.616 519.868 481.021 524.627 478.857C528.953 476.694 534.145 475.397 538.903 474.964C552.747 474.531 564.86 484.049 565.725 497.892C567.023 511.303 557.506 523.849 544.527 525.58ZM647.489 327.876C642.731 323.982 638.837 317.06 638.837 311.004L638.837 298.458C638.837 291.536 640.135 285.48 644.894 279.856C649.22 275.097 655.276 272.069 661.766 271.203C668.255 270.771 675.177 272.934 680.368 277.26C685.127 281.153 689.02 288.075 689.02 294.132L689.02 306.678C689.02 313.599 687.722 319.656 682.964 325.28C678.637 330.039 672.581 333.067 666.092 333.932C659.17 334.797 652.681 332.634 647.489 327.876ZM700.268 648.442C668.255 648.442 663.929 598.259 696.375 598.259C728.388 598.691 732.281 648.442 700.268 648.442ZM757.806 510.438C753.912 515.197 746.99 519.09 740.934 519.09L734.012 519.09C727.09 519.09 721.033 517.793 715.409 513.034C710.651 508.708 707.622 502.651 706.757 496.162C706.325 489.673 708.488 482.751 712.814 477.56C716.707 472.801 723.629 468.907 729.686 468.907L736.608 468.907C743.529 468.907 749.586 470.205 755.21 474.964C759.969 479.29 762.997 485.347 763.862 491.836C764.727 498.325 762.564 505.247 757.806 510.438ZM802.365 313.599C770.351 313.599 766.025 263.416 798.471 263.416C830.917 263.849 834.811 313.599 802.365 313.599ZM962.864 510.438C958.971 514.764 952.049 519.09 945.992 519.09C939.07 518.658 936.907 518.658 930.418 516.062C927.822 515.197 924.794 512.601 923.064 511.303C922.631 510.871 922.631 510.871 922.198 510.438C919.17 509.573 916.574 508.275 913.979 505.679C909.22 501.353 906.192 495.297 905.327 488.808C904.894 482.318 907.057 475.397 911.383 470.205C915.277 465.879 922.198 461.553 928.255 461.553C935.177 461.986 937.34 461.986 943.829 464.581C946.425 465.446 949.453 468.042 951.184 469.34C951.616 469.773 951.616 469.773 952.049 470.205C955.077 471.07 957.673 472.368 960.268 474.964C965.027 479.29 968.055 485.347 968.921 491.836C969.786 498.325 967.19 505.247 962.864 510.438ZM1443.5 425.646C1442.2 361.619 1445.66 297.593 1441.77 233.566C1439.17 195.063 1442.63 141.852 1404.13 119.789C1368.65 99.8886 1327.12 92.9668 1286.89 90.3711C1250.55 87.7754 1212.91 88.6407 1177.01 96.4277C1151.48 102.052 1125.09 108.541 1101.3 119.789C1094.38 123.25 1088.75 126.711 1083.56 131.469C1081.4 140.554 1074.48 148.341 1061.93 149.206C1061.93 149.206 1062.37 149.206 1062.37 148.774C1060.63 149.639 1059.34 150.072 1057.61 150.504C1100.43 249.14 1125.96 354.698 1149.32 458.957C1164.89 528.608 1173.11 597.393 1176.14 668.775C1177.44 703.816 1178.74 739.29 1180.9 774.332C1206.86 771.736 1232.81 768.275 1258.77 763.949C1299.44 757.46 1332.75 752.269 1360.44 722.419C1396.77 683.916 1421 634.598 1433.55 583.55C1446.53 530.338 1444.36 480.155 1443.5 425.646ZM606.391 1335.43C593.413 1349.27 577.839 1360.96 560.101 1369.61C513.812 1392.54 464.927 1408.98 413.878 1416.33C374.078 1421.95 333.845 1423.68 293.612 1427.58C294.045 1428.44 294.91 1428.88 295.342 1429.74C327.788 1477.76 374.078 1518.86 428.587 1539.19C439.835 1543.52 451.948 1548.71 460.601 1545.68C470.551 1541.79 480.933 1538.76 491.316 1535.73C509.918 1530.97 528.953 1527.51 547.556 1522.32C588.654 1511.07 626.291 1488.58 634.511 1442.72C641 1407.68 634.944 1360.09 606.391 1335.43ZM506.025 927.91C450.65 872.968 397.006 814.998 348.121 753.999C305.292 700.788 263.329 645.413 227.855 586.578C223.096 578.791 215.309 566.678 207.955 552.834C205.792 552.834 204.061 552.834 201.898 552.402C200.6 551.969 200.6 551.969 200.6 551.969C200.6 551.969 200.6 552.402 198.87 553.267C200.6 552.402 193.246 557.16 191.948 558.026C182.43 567.111 173.778 577.493 166.424 588.309C147.821 615.131 133.113 644.981 119.702 674.831C93.3122 732.801 73.8446 788.176 59.5684 850.472C53.5118 876.429 47.0226 905.414 52.214 932.236C56.5401 955.164 76.0077 966.845 95.4752 976.362C125.326 990.639 154.311 1005.78 183.296 1021.79C242.996 1054.67 302.264 1088.84 364.128 1117.83C423.396 1145.51 493.046 1178.39 560.101 1176.23C583.463 1175.36 607.256 1171.04 622.398 1153.73C642.298 1131.24 646.624 1098.79 647.057 1069.37C647.057 1058.99 652.681 1051.2 659.602 1047.31C602.498 1015.3 552.314 973.334 506.025 927.91ZM785.925 1512.37C761.699 1483.82 714.977 1475.6 679.503 1475.16C678.637 1475.16 677.772 1475.16 676.907 1475.16C665.659 1504.58 645.326 1529.67 618.937 1546.55C669.985 1560.82 718.87 1597.16 772.082 1588.94C804.96 1583.75 802.365 1531.84 785.925 1512.37ZM583.895 1224.68C580.434 1225.11 576.973 1225.55 573.08 1225.98C490.018 1231.6 405.226 1193.97 332.114 1158.92C271.549 1129.94 213.579 1095.76 154.743 1064.18C128.354 1049.91 100.667 1037.36 73.8446 1023.08C75.1424 1107.88 85.9578 1188.78 113.212 1269.67C123.162 1299.09 131.815 1330.67 147.389 1357.93C154.743 1370.91 163.395 1383.88 175.941 1392.54C189.352 1401.62 198.437 1393.4 217.039 1389.07C307.023 1369.17 405.226 1381.72 491.749 1344.95C522.032 1331.97 555.343 1322.02 575.676 1294.33C583.03 1284.38 589.952 1273.13 593.413 1261.45C595.143 1254.96 597.306 1248.48 597.739 1241.99C597.739 1241.55 597.739 1240.69 598.171 1240.69C589.519 1237.23 585.193 1231.17 583.895 1224.68ZM862.498 1511.94C862.065 1510.64 860.767 1505.88 860.335 1505.02C859.47 1503.28 859.037 1501.12 858.172 1499.39C857.739 1498.96 854.711 1493.77 854.278 1492.47C853.413 1491.6 852.98 1490.74 852.115 1489.44C851.683 1489.01 851.25 1488.58 850.817 1488.14C849.519 1486.85 848.222 1485.98 846.924 1485.12C846.924 1485.12 846.924 1485.12 846.491 1485.12C844.761 1484.25 840.867 1482.95 841.3 1482.95C840.867 1482.95 840.435 1482.95 840.002 1482.52L840.002 1482.52C839.137 1482.52 838.272 1482.52 837.406 1482.52C836.541 1482.95 834.811 1483.38 833.945 1483.38C832.648 1483.82 830.917 1485.12 828.754 1486.41C834.811 1495.5 839.569 1505.88 843.03 1516.7C849.087 1513.67 856.009 1513.23 862.93 1514.97C862.93 1514.53 862.93 1513.23 862.498 1511.94ZM1864 680.888C1861.83 676.562 1858.37 669.207 1854.05 666.179C1851.45 669.207 1849.29 672.235 1847.99 675.696C1840.64 689.107 1826.36 691.27 1815.11 686.512C1796.94 709.44 1776.18 729.34 1751.08 743.617C1760.6 745.347 1768.82 752.269 1768.39 765.68C1767.52 793.367 1754.11 828.841 1767.09 854.798C1781.8 885.081 1818.57 850.472 1831.55 834.898C1855.34 805.913 1867.02 768.275 1870.05 731.071C1871.35 714.199 1871.35 696.462 1864 680.888ZM1752.38 909.307C1743.3 903.251 1735.08 895.464 1728.59 886.379C1718.64 897.627 1711.72 909.74 1713.88 926.612C1714.75 927.91 1716.04 929.207 1716.91 930.938C1719.07 934.831 1717.34 935.697 1721.23 934.399C1728.16 932.236 1734.21 929.207 1740.27 924.881C1745.46 920.988 1750.65 916.662 1755.84 911.47C1754.11 910.605 1753.25 910.173 1752.38 909.307ZM1693.55 386.711C1694.41 351.669 1681.43 322.252 1658.94 295.43C1616.97 246.112 1553.81 208.042 1489.35 198.524C1494.55 244.814 1494.11 291.969 1493.68 338.691C1493.25 396.661 1498.87 455.064 1495.41 512.601C1492.38 561.487 1481.57 611.237 1462.1 656.661C1488.92 673.533 1519.2 699.923 1553.38 693.866C1576.31 689.973 1591.02 666.179 1600.54 647.144C1625.63 597.393 1642.07 542.452 1664.13 491.403C1671.05 474.964 1678.41 457.227 1684.46 439.49C1683.6 434.298 1684.89 428.674 1688.79 424.348C1690.95 411.37 1693.11 398.824 1693.55 386.711ZM1823.76 548.076C1821.17 532.069 1811.65 517.36 1801.7 505.247C1789.15 489.24 1755.41 452.035 1729.45 457.659C1724.26 474.531 1718.21 490.971 1711.28 506.977C1697.44 538.991 1683.6 570.571 1671.92 603.45C1660.67 635.463 1648.56 668.342 1628.66 696.462C1627.79 697.76 1626.92 699.057 1625.63 700.355C1655.91 721.986 1695.71 718.525 1728.16 699.057C1761.9 678.292 1786.99 643.683 1806.03 609.507C1815.54 591.769 1827.22 569.274 1823.76 548.076Z" fill="#f6851f" fill-rule="nonzero" opacity="1" stroke="none" vectornator:layerName="path"/>
<path d="M1915.05 673.966C1908.56 651.47 1892.98 628.109 1871.35 618.591C1867.02 616.861 1863.13 615.563 1859.24 615.131C1885.19 560.189 1871.78 508.708 1831.98 463.716C1808.19 436.894 1775.31 412.668 1740.7 409.639C1742 400.987 1743.3 391.902 1743.73 382.817C1745.89 342.152 1728.59 304.082 1704.8 272.501C1655.48 207.609 1570.69 156.561 1489.35 148.341C1486.76 147.909 1484.16 148.341 1481.57 148.774C1462.96 65.7122 1364.33 46.2446 1291.65 41.4859C1251.85 38.8902 1211.62 39.3228 1172.68 47.5424C1146.72 52.7338 1121.63 59.223 1096.97 68.7405C1085.73 73.0666 1074.48 78.6906 1064.1 84.7471C1059.34 87.3428 1055.01 90.8037 1050.68 94.2646C1047.66 96.8603 1045.06 99.456 1042.03 102.052C1040.3 103.782 1039.44 105.08 1039 106.378C1038.57 106.81 1038.14 107.243 1038.14 107.243C1018.24 67.01 994.877 27.2096 951.616 9.90512C907.49-7.83201 858.604 1.25286 814.91 13.7986C768.188 26.777 723.629 46.6772 676.474 59.223C621.1 73.9318 567.889 95.1299 517.273 121.952C443.296 160.887 386.624 217.992 323.03 271.203C267.655 317.493 198.437 371.569 189.352 448.575C188.487 456.794 191.083 463.716 195.409 468.475C187.622 477.992 186.757 490.538 189.352 504.382C167.722 510.006 149.984 528.175 136.573 545.48C110.184 577.493 91.1491 615.563 73.8446 652.768C39.2356 727.61 8.08744 811.969 0.733022 894.166C-2.72788 933.966 5.92438 966.412 29.7181 991.504C26.2572 995.83 23.6615 1001.45 24.0941 1008.38C24.0941 1063.75 27.1224 1119.12 36.2073 1173.63C44.4269 1221.22 59.1358 1266.21 74.7098 1311.64C87.2556 1348.41 101.532 1387.34 128.354 1416.33C140.034 1428.88 153.445 1438.83 169.885 1444.45C195.409 1453.1 225.692 1437.53 251.648 1433.2C252.081 1433.2 252.081 1433.2 252.514 1433.2C248.62 1440.12 248.188 1449.21 254.244 1457.86C294.477 1516.7 352.015 1566.01 419.935 1588.94C432.481 1593.27 454.111 1603.22 467.522 1597.16C480.933 1591.54 494.344 1586.78 508.621 1583.32C522.897 1579.42 537.606 1576.4 551.882 1572.94C554.045 1583.75 563.13 1593.27 577.406 1591.97C587.789 1591.11 606.391 1596.73 619.802 1601.49C643.596 1609.71 667.389 1618.79 691.183 1626.58C732.281 1639.99 785.493 1652.1 820.967 1619.66C836.541 1605.38 844.761 1585.05 847.356 1563.42C870.718 1571.2 894.079 1568.18 907.49 1545.25C917.872 1527.51 913.546 1502.42 906.192 1484.68C896.674 1462.19 879.802 1443.58 856.009 1435.8C832.215 1428.44 809.286 1438.83 791.117 1453.53C771.217 1441.85 747.855 1434.5 724.494 1430.17C720.601 1427.58 715.842 1425.85 709.786 1425.85L686.857 1425.85C689.02 1376.96 671.716 1325.91 633.646 1294.77C634.511 1292.6 635.809 1290.01 636.674 1287.84C646.191 1264.48 654.411 1226.85 635.809 1206.51C644.894 1200.89 653.113 1193.97 660.468 1185.31C678.637 1164.98 687.722 1138.59 691.616 1111.77C720.168 1160.22 853.413 1114.8 889.752 1104.42C944.262 1089.27 997.04 1077.16 1045.93 1046.88C1076.21 1028.28 1100 1002.75 1120.34 974.199C1138.5 948.675 1154.51 920.123 1182.63 904.549C1189.55 900.655 1195.18 889.84 1193.45 882.053C1189.55 863.45 1186.96 844.415 1184.36 825.38C1206.86 822.785 1228.92 820.189 1251.42 816.728C1287.32 811.104 1327.56 806.778 1360 788.608C1392.45 770.439 1418.84 736.262 1438.31 702.086C1474.65 724.582 1505.79 746.212 1550.78 744.914C1563.33 744.482 1575.01 741.021 1585.83 734.964C1623.9 768.275 1674.51 773.034 1720.8 757.028C1718.64 760.488 1717.34 764.815 1717.34 769.573C1716.48 791.204 1712.15 812.402 1711.28 834.033C1708.26 835.33 1705.66 837.061 1703.06 839.657C1677.11 865.613 1656.34 894.598 1662.83 933.101C1663.7 939.158 1666.73 944.349 1670.19 947.81C1670.62 951.271 1671.48 955.164 1673.65 959.058C1709.12 1021.79 1790.89 960.788 1811.22 911.903C1840.64 898.925 1867.89 870.805 1881.73 849.174C1914.61 801.154 1931.48 729.773 1915.05 673.966ZM834.378 1483.82C834.811 1483.38 836.974 1482.95 837.839 1482.95C838.704 1482.95 839.569 1482.95 840.435 1482.95L840.435 1482.95C840.867 1482.95 841.3 1482.95 841.732 1483.38C841.3 1483.38 845.193 1484.68 846.924 1485.55C846.924 1485.55 846.924 1485.55 847.356 1485.55C848.654 1486.41 849.952 1487.71 851.25 1488.58C851.683 1489.01 852.115 1489.44 852.548 1489.87C853.413 1490.74 853.846 1491.6 854.711 1492.9C855.576 1494.2 858.604 1499.39 858.604 1499.82C859.47 1501.55 860.335 1503.28 860.767 1505.45C861.2 1506.75 862.498 1511.5 862.93 1512.37C862.93 1513.67 863.363 1514.53 863.363 1515.83C856.441 1514.1 849.519 1514.53 843.463 1517.56C840.435 1506.31 835.676 1495.93 829.187 1487.28C831.35 1485.55 833.08 1484.25 834.378 1483.82ZM217.039 1388.64C198.437 1392.97 188.92 1401.19 175.941 1392.1C163.395 1383.45 155.176 1370.47 147.389 1357.49C131.815 1330.24 123.162 1299.09 113.212 1269.24C85.9578 1188.34 75.575 1107.44 73.8446 1022.65C100.667 1036.93 127.921 1049.47 154.743 1063.75C213.579 1095.76 271.549 1129.51 332.114 1158.49C405.226 1193.53 490.018 1231.17 573.08 1225.55C576.541 1225.11 580.434 1224.68 583.895 1224.25C584.76 1230.74 589.087 1236.8 597.739 1240.26C597.739 1240.69 597.306 1241.12 597.306 1241.55C596.874 1248.04 594.711 1254.53 592.98 1261.02C589.519 1272.7 582.597 1283.95 575.243 1293.9C554.478 1321.15 521.599 1331.54 491.316 1344.52C405.659 1381.29 307.023 1368.74 217.039 1388.64ZM677.34 1475.16C678.205 1475.16 679.07 1475.16 679.935 1475.16C715.409 1475.6 762.132 1483.82 786.358 1512.37C802.797 1531.84 805.393 1583.75 772.947 1588.94C719.736 1597.59 670.85 1561.25 619.802 1546.55C645.759 1529.67 665.659 1504.58 677.34 1475.16ZM634.944 1442.29C626.724 1488.14 589.519 1510.64 547.988 1521.89C529.386 1527.08 510.351 1530.54 491.749 1535.3C481.366 1537.89 470.983 1541.35 461.033 1545.25C452.381 1548.71 440.268 1543.09 429.02 1538.76C374.078 1518.43 328.221 1476.9 295.775 1429.31C295.342 1428.44 294.91 1428.01 294.045 1427.14C334.278 1423.25 374.511 1421.52 414.311 1415.9C465.359 1408.54 514.245 1392.54 560.534 1369.17C578.271 1360.52 593.845 1348.84 606.824 1335C634.944 1360.09 641 1407.68 634.944 1442.29ZM645.759 1069.81C645.326 1099.22 641.433 1131.67 621.1 1154.17C605.958 1171.04 582.165 1175.8 558.804 1176.66C491.749 1178.39 422.098 1145.95 362.83 1118.26C300.966 1089.27 242.131 1055.1 181.998 1022.22C153.013 1006.21 124.028 991.071 94.1774 976.795C74.7098 967.277 55.2422 956.029 50.9161 932.668C45.7248 905.846 52.6466 876.861 58.2705 850.905C72.1141 788.608 91.5817 733.666 118.404 675.264C131.815 645.413 146.956 615.563 165.126 588.741C172.48 577.926 181.133 567.543 190.65 558.458C191.948 557.593 198.87 552.834 197.572 553.7C199.302 552.834 199.302 552.402 199.302 552.402C199.302 552.402 199.735 552.834 200.6 552.834C202.763 553.267 204.926 553.267 206.657 553.267C214.011 567.111 221.798 579.224 226.557 587.011C262.464 645.413 303.995 700.788 346.823 754.432C395.709 815.43 449.353 873.4 504.727 928.342C551.017 973.767 601.632 1015.3 657.439 1047.74C651.383 1051.64 645.759 1058.99 645.759 1069.81ZM1049.39 981.554C1006.13 1023.08 947.29 1036.93 891.483 1052.07C864.661 1059.42 837.839 1067.21 810.584 1073.27C809.286 1063.32 802.797 1053.37 791.549 1050.34C785.925 1043.85 777.706 1042.12 769.486 1043.85C615.476 994.099 490.883 850.039 397.006 736.262C358.936 690.405 323.462 641.953 290.151 592.635C274.577 569.706 259.436 546.345 247.322 521.254C243.429 513.467 240.401 505.679 237.805 497.46C246.89 487.51 244.727 471.503 236.074 462.418C236.507 461.12 236.94 459.39 236.94 457.659C242.996 404.881 286.69 365.513 324.76 333.067C367.589 296.295 408.254 256.494 452.381 221.885C496.94 187.276 546.258 159.157 598.171 137.526C648.355 116.76 701.133 105.513 752.182 86.9102C796.741 70.9035 841.732 52.3012 889.752 49.7055C942.964 46.6772 966.758 82.1515 989.686 124.98C1045.06 229.24 1072.75 349.506 1098.7 463.716C1114.71 533.367 1122.5 602.152 1125.53 673.533C1128.12 739.723 1129.42 806.345 1141.53 871.67C1103.46 899.79 1084 948.242 1049.39 981.554ZM1433.55 583.982C1421 635.463 1396.77 684.349 1360.44 722.851C1332.75 752.269 1299.44 757.46 1258.77 764.382C1232.81 768.708 1206.86 772.169 1180.9 774.765C1178.31 739.723 1177.44 704.249 1176.14 669.207C1173.55 597.826 1164.89 529.041 1149.32 459.39C1125.96 355.13 1100.43 249.14 1057.61 150.937C1059.34 150.504 1061.07 150.072 1062.37 149.206C1062.37 149.206 1061.93 149.206 1061.93 149.639C1074.05 148.774 1081.4 140.987 1083.56 131.902C1088.75 127.576 1093.95 123.682 1101.3 120.221C1125.09 108.541 1151.48 102.484 1177.01 96.8603C1212.48 89.0733 1250.55 88.208 1286.89 90.8037C1327.12 93.3994 1368.65 100.321 1404.13 120.221C1442.63 142.285 1439.6 195.496 1441.77 233.999C1446.09 298.025 1442.63 362.052 1443.5 426.079C1444.36 480.155 1446.53 530.338 1433.55 583.982ZM1552.95 693.433C1518.77 699.49 1488.92 673.101 1461.67 656.229C1481.13 610.804 1491.95 561.487 1494.98 512.169C1498.44 454.631 1492.81 395.796 1493.25 338.258C1493.68 291.536 1493.68 244.814 1488.92 198.092C1553.38 207.609 1616.97 245.679 1658.51 294.997C1681 321.819 1693.98 350.804 1693.11 386.278C1692.68 398.824 1690.95 411.37 1687.49 423.483C1683.6 427.809 1682.3 433.433 1683.16 438.624C1677.54 456.362 1670.19 474.099 1662.83 490.538C1640.77 542.019 1624.33 596.528 1599.24 646.279C1590.59 666.179 1575.88 689.54 1552.95 693.433ZM1625.19 700.788C1626.06 699.49 1627.36 698.192 1628.22 696.894C1648.12 668.775 1660.24 636.329 1671.48 603.883C1683.16 571.004 1697.01 539.423 1710.85 507.41C1717.77 490.971 1723.83 474.531 1729.02 458.092C1754.98 452.468 1788.72 489.673 1801.27 505.679C1811.22 517.793 1820.74 532.501 1823.33 548.508C1827.22 569.706 1815.11 592.202 1805.16 609.939C1786.56 644.548 1761.03 679.157 1727.29 699.49C1695.71 718.958 1655.91 722.419 1625.19 700.788ZM1739.84 924.881C1733.78 929.207 1727.72 932.236 1720.8 934.399C1716.48 935.697 1718.64 934.831 1716.48 930.938C1715.61 929.207 1714.75 927.91 1713.45 926.612C1711.72 909.74 1718.21 898.059 1728.16 886.379C1734.65 895.464 1742.87 903.251 1751.95 909.307C1752.82 910.173 1754.11 910.605 1754.98 911.038C1750.65 916.229 1745.03 920.988 1739.84 924.881ZM1870.05 731.071C1867.02 767.843 1855.34 805.913 1831.55 834.898C1818.57 850.472 1781.8 884.648 1767.09 854.798C1754.11 828.841 1767.52 793.367 1768.39 765.68C1768.82 752.701 1760.6 745.347 1751.08 743.617C1775.74 729.34 1796.94 709.44 1815.11 686.512C1826.36 691.27 1840.64 689.54 1847.99 675.696C1849.72 672.235 1851.45 668.775 1854.05 666.179C1858.37 669.207 1861.83 676.994 1864 680.888C1871.35 696.462 1871.35 714.199 1870.05 731.071Z" fill="#010101" fill-rule="nonzero" opacity="1" stroke="none" vectornator:layerName="path"/>
<path d="M566.158 498.758C565.293 484.481 552.747 475.397 539.336 475.829C534.577 475.829 529.386 477.56 525.06 479.723C520.301 481.886 515.542 484.049 511.216 487.077C508.621 488.808 506.457 490.538 504.294 492.701C496.507 500.056 495.642 515.197 502.131 523.849C506.457 529.473 511.216 532.501 518.138 534.665C522.897 535.962 527.223 534.665 531.549 533.799C532.847 533.367 534.577 532.501 535.875 532.069C537.606 531.204 539.769 530.338 541.499 529.041C542.797 528.175 543.662 527.31 544.96 526.445C557.506 523.849 567.023 511.303 566.158 498.758ZM680.368 277.692C675.177 273.366 668.687 271.203 661.766 271.636C655.276 272.069 649.22 275.097 644.894 280.288C640.135 285.48 638.837 291.969 638.837 298.891L638.837 311.436C638.837 317.493 642.731 324.415 647.489 328.308C652.681 332.634 659.17 334.797 666.092 334.365C672.581 333.932 678.637 330.904 682.964 325.713C687.722 320.521 689.02 314.032 689.02 307.11L689.02 294.564C689.02 288.508 685.127 281.586 680.368 277.692ZM696.375 598.691C663.929 598.691 668.255 648.874 700.268 648.874C732.281 648.442 728.388 598.691 696.375 598.691ZM968.921 491.836C968.488 485.347 965.46 479.29 960.268 474.964C957.673 472.801 955.077 471.07 952.049 470.205C951.616 469.773 951.616 469.773 951.184 469.34C949.453 468.042 946.425 465.446 943.829 464.581C937.34 461.986 935.177 461.986 928.255 461.553C922.198 461.12 915.277 465.446 911.383 470.205C907.057 475.397 904.894 481.886 905.327 488.808C905.759 495.297 908.787 501.353 913.979 505.679C916.574 507.843 919.17 509.573 922.198 510.438C922.631 510.871 922.631 510.871 923.064 511.303C924.794 512.601 927.822 514.764 930.418 516.062C936.907 518.658 939.07 518.658 945.992 519.09C952.049 519.523 958.971 515.197 962.864 510.438C967.19 505.247 969.786 498.325 968.921 491.836ZM798.904 263.849C766.458 263.849 770.784 314.032 802.797 314.032C834.811 313.599 830.917 263.849 798.904 263.849ZM764.295 491.836C763.862 485.347 760.834 479.29 755.642 474.964C750.451 470.205 743.962 468.907 737.04 468.907L730.118 468.907C724.062 468.907 717.14 472.801 713.246 477.56C708.92 482.751 706.757 489.24 707.19 496.162C707.622 502.651 710.651 508.708 715.842 513.034C721.033 517.793 727.523 519.09 734.444 519.09L741.366 519.09C747.423 519.09 754.345 515.197 758.238 510.438C762.564 505.247 764.727 498.325 764.295 491.836ZM552.314 416.561C551.882 410.072 548.854 404.015 543.662 399.689C538.471 394.931 531.982 393.633 525.06 393.633C519.436 393.633 513.812 394.065 508.621 396.228C503.862 398.391 498.67 400.987 495.642 405.313C491.316 410.937 491.316 411.37 489.153 418.292C488.288 421.32 488.288 424.348 488.288 427.809C487.855 433.866 492.181 440.788 496.94 444.681C502.131 449.007 508.621 451.17 515.542 450.738C521.166 450.305 526.79 447.709 530.684 443.816C536.308 443.383 542.364 439.49 545.825 435.596C550.584 429.972 552.747 423.483 552.314 416.561Z" fill="#010101" fill-rule="nonzero" opacity="1" stroke="none" vectornator:layerName="path"/>
</g>
</g>
</svg>
