<?xml version="1.0" encoding="UTF-8" standalone="no"?>
<!DOCTYPE svg PUBLIC "-//W3C//DTD SVG 1.1//EN" "http://www.w3.org/Graphics/SVG/1.1/DTD/svg11.dtd">
<!-- Created with Vectornator (http://vectornator.io/) -->
<svg height="100%" stroke-miterlimit="10" style="fill-rule:nonzero;clip-rule:evenodd;stroke-linecap:round;stroke-linejoin:round;" version="1.1" viewBox="0 0 3370.82 2384.24" width="100%" xml:space="preserve" xmlns="http://www.w3.org/2000/svg" xmlns:vectornator="http://vectornator.io" xmlns:xlink="http://www.w3.org/1999/xlink">
<defs/>
<clipPath id="ArtboardFrame">
<rect height="2384.24" width="3370.82" x="0" y="0"/>
</clipPath>
<g clip-path="url(#ArtboardFrame)" id="Layer-1" vectornator:layerName="Layer 1">
<g opacity="1" vectornator:layerName="Bread">
<path d="M2198.26 1066.89C2187.18 1052.73 2175.48 1039.8 2162.55 1027.49C2190.26 1080.44 2213.65 1135.85 2232.12 1193.1C2233.35 1196.18 2233.97 1199.26 2235.2 1202.34C2241.97 1156.16 2231.5 1109.99 2198.26 1066.89ZM1751.91 1157.39C1716.81 1125.38 1671.26 1101.98 1628.16 1082.9C1606.61 1073.66 1584.45 1065.04 1561.67 1061.97C1556.13 1061.35 1549.97 1061.35 1546.28 1061.97L1546.28 1061.97C1545.66 1065.66 1544.43 1069.35 1542.58 1071.82C1595.53 1097.06 1645.4 1141.39 1678.03 1175.25C1721.74 1219.57 1764.22 1271.29 1789.46 1329.16C1801.16 1355.64 1809.16 1383.34 1815.32 1411.04C1819.63 1387.03 1821.48 1362.41 1820.86 1337.78C1819.01 1272.52 1793.77 1194.95 1751.91 1157.39ZM1306.17 1481.85C1293.24 1441.83 1276.62 1402.43 1249.53 1369.8C1230.44 1346.4 1222.44 1339.01 1197.81 1331.62C1138.71 1313.15 1075.3 1303.3 1013.12 1298.99C994.647 1297.76 974.946 1297.15 956.476 1298.38C968.789 1300.23 981.102 1302.69 992.184 1305.77C1048.21 1321.16 1102.39 1345.17 1149.79 1378.41C1227.37 1432.59 1284.01 1512.63 1330.18 1596.97C1325.87 1556.96 1317.87 1518.78 1306.17 1481.85Z" fill="#f6851f" fill-rule="nonzero" opacity="1" stroke="none" vectornator:layerName="path"/>
<path d="M2742.5 713.504C2616.91 655.016 2469.76 655.016 2335.55 678.411C2152.7 709.81 1984.63 792.308 1812.86 857.568C1724.2 891.429 1634.93 920.365 1541.97 940.682C1449 960.998 1355.42 975.774 1261.84 991.166C1184.27 1004.09 1104.23 1015.18 1030.36 1043.5C975.561 1064.43 922.615 1089.67 872.131 1119.22C756.387 1185.71 644.953 1267.6 558.145 1369.8C481.804 1460.3 420.853 1571.12 438.092 1693.63L438.092 1694.25C444.864 1699.17 449.789 1707.18 450.405 1718.26C455.946 1822.3 483.035 1925.12 542.754 2011.93C595.085 2087.65 666.501 2147.99 747.152 2191.7C923.846 2286.51 1131.32 2317.29 1329.56 2315.45C1616.46 2313.6 1911.36 2248.96 2163.17 2109.2C2286.3 2040.86 2400.81 1956.52 2499.93 1856.78C2605.21 1750.89 2689.55 1630.83 2768.97 1504.62C2852.09 1372.87 2924.74 1221.42 2935.2 1063.81C2944.44 916.671 2879.79 777.532 2742.5 713.504ZM1397.9 1752.12C1394.82 1789.06 1344.96 1784.13 1332.64 1757.04C1281.54 1642.53 1220.59 1516.32 1118.39 1438.75C1083.92 1412.28 1041.44 1391.34 1000.19 1378.41C975.561 1370.41 918.921 1350.09 897.373 1374.72C868.437 1407.35 817.337 1363.02 846.273 1329.78C848.736 1326.7 851.814 1324.24 854.892 1321.16C853.661 1318.7 853.045 1316.85 851.814 1313.77C812.412 1174.63 1149.18 1246.05 1205.82 1263.9C1288.93 1289.76 1336.95 1363.64 1364.66 1444.29C1398.52 1542.18 1406.52 1648.69 1397.9 1752.12ZM1825.79 1588.35C1811.63 1617.29 1761.76 1610.52 1761.76 1576.04C1761.76 1507.09 1758.68 1435.06 1732.82 1370.41C1713.74 1323.01 1682.34 1279.29 1647.24 1241.74C1613.38 1205.41 1575.21 1169.71 1531.5 1145.08C1509.34 1132.77 1463.78 1105.68 1439.15 1127.84C1407.75 1157.39 1356.04 1113.07 1388.05 1082.9C1415.14 1057.66 1446.54 1050.27 1477.94 1053.35C1477.94 1052.12 1477.94 1050.88 1478.55 1049.65C1504.41 914.208 1735.28 1056.43 1787.61 1099.52C1931.68 1218.34 1898.43 1440.6 1825.79 1588.35ZM2256.75 1329.78C2240.12 1355.02 2193.33 1354.4 2192.72 1317.46C2192.1 1286.68 2181.64 1257.13 2171.79 1226.35C2156.39 1178.33 2138.54 1130.92 2116.38 1085.36C2097.29 1045.96 2075.74 1003.48 2044.96 972.08C2033.88 960.998 2020.33 950.532 2012.33 948.685C2005.56 947.454 2003.1 946.223 1993.86 954.842C1962.46 985.009 1911.36 940.066 1942.76 909.899C1952.61 900.664 1962.46 893.892 1972.31 888.966C1975.39 874.806 1986.47 861.877 2002.48 861.877L2027.11 861.877C2041.88 861.877 2052.35 869.881 2057.89 880.347C2137.92 915.44 2216.73 968.386 2263.52 1041.65C2322.62 1134.61 2317.08 1238.66 2256.75 1329.78ZM2365.1 1009.02C2364.49 979.468 2361.41 948.685 2350.94 920.981C2342.94 899.432 2335.55 879.731 2311.54 890.198C2271.52 908.052 2249.97 844.023 2289.38 826.169C2395.89 778.148 2432.21 928.368 2432.82 1003.48C2433.44 1047.81 2365.72 1052.73 2365.1 1009.02Z" fill="#f6851f" fill-rule="nonzero" opacity="1" stroke="none" vectornator:layerName="path"/>
<path d="M2993.07 930.215C2962.91 788.614 2863.17 683.336 2728.96 634.699C2410.66 518.34 2083.75 681.489 1790.69 793.539C1702.04 827.4 1612.15 855.721 1519.8 876.653C1425.61 897.586 1329.56 911.13 1234.14 927.137C1157.8 940.066 1080.22 951.763 1007.58 979.468C952.166 1000.4 899.22 1026.87 847.505 1055.19C729.914 1120.45 619.711 1202.34 528.594 1301.46C445.48 1391.34 375.295 1504.62 367.907 1630.22C366.675 1653.61 367.291 1676.39 370.985 1699.17C372.216 1709.02 377.142 1716.41 383.298 1721.34C383.298 1721.95 383.298 1723.18 383.298 1723.8C390.07 1851.86 428.857 1976.22 507.661 2078.42C579.693 2172.61 680.661 2240.34 788.401 2287.13C1029.12 2391.17 1306.79 2399.79 1563.52 2367.78C1847.95 2332.68 2124.38 2234.8 2358.33 2067.34C2474.69 1984.22 2578.12 1883.25 2668.01 1772.44C2715.41 1713.95 2757.89 1651.77 2797.29 1587.74C2837.31 1523.09 2877.33 1459.07 2910.58 1390.11C2977.07 1250.36 3025.7 1085.98 2993.07 930.215ZM2934.59 1063.81C2924.74 1221.42 2851.47 1372.87 2768.36 1504.62C2688.94 1630.83 2605.21 1750.27 2499.32 1856.78C2400.19 1956.52 2285.68 2040.86 2162.55 2109.2C1910.75 2248.96 1615.23 2313.6 1328.95 2315.45C1130.71 2316.68 922.615 2286.51 746.537 2191.7C665.885 2147.99 594.469 2087.65 542.138 2011.93C482.419 1925.12 455.33 1822.3 449.789 1718.26C449.174 1707.18 444.248 1699.17 437.476 1694.25L437.476 1693.63C420.238 1571.73 481.188 1460.3 557.53 1369.8C644.337 1266.98 755.156 1185.71 871.515 1119.22C921.999 1090.29 974.946 1064.43 1029.74 1043.5C1103.62 1015.18 1183.65 1004.09 1261.23 991.166C1354.81 975.158 1448.39 960.998 1541.35 940.682C1633.7 920.365 1723.59 891.429 1812.24 857.568C1984.01 792.308 2152.08 709.81 2334.93 678.411C2469.15 655.016 2616.29 655.632 2741.88 713.504C2879.79 777.532 2944.44 916.671 2934.59 1063.81Z" fill="#010101" fill-rule="nonzero" opacity="1" stroke="none" vectornator:layerName="path"/>
<path d="M1365.27 1443.67C1338.18 1363.02 1290.16 1289.76 1206.43 1263.29C1149.79 1245.43 813.028 1174.02 852.43 1313.15C853.045 1315.62 854.277 1318.08 855.508 1320.54C852.43 1323.01 849.352 1326.08 846.889 1329.16C817.953 1361.79 869.053 1406.73 897.989 1374.1C919.537 1349.48 975.561 1370.41 1000.8 1377.8C1042.05 1390.73 1084.53 1412.28 1119.01 1438.13C1221.21 1515.71 1282.16 1641.92 1333.26 1756.43C1345.57 1784.13 1395.44 1788.44 1398.52 1751.5C1406.52 1648.69 1398.52 1542.18 1365.27 1443.67ZM1149.79 1377.18C1102.39 1343.94 1048.21 1319.93 992.184 1304.54C981.102 1301.46 968.789 1298.99 956.476 1297.15C975.561 1295.92 994.647 1296.53 1013.12 1297.76C1075.3 1302.07 1138.1 1311.92 1197.81 1330.39C1222.44 1338.4 1230.44 1345.78 1249.53 1368.56C1276.62 1401.19 1293.24 1440.6 1306.17 1480.61C1317.87 1517.55 1325.87 1555.72 1329.56 1595.13C1284.01 1511.4 1227.37 1431.36 1149.79 1377.18ZM1788.23 1099.52C1735.9 1056.43 1505.03 914.208 1479.17 1049.65C1479.17 1050.88 1478.55 1052.12 1478.55 1053.35C1446.54 1050.27 1415.76 1057.66 1388.67 1082.9C1356.65 1112.45 1407.75 1156.78 1439.77 1127.84C1463.78 1105.68 1509.95 1132.77 1532.12 1145.08C1575.83 1169.71 1614 1205.41 1647.86 1241.74C1682.95 1278.68 1714.35 1323.01 1733.44 1370.41C1759.29 1435.06 1762.37 1507.09 1762.37 1576.04C1762.37 1610.52 1812.24 1617.29 1826.4 1588.35C1898.43 1440.6 1931.68 1218.34 1788.23 1099.52ZM1814.7 1411.66C1808.55 1383.96 1800.54 1356.25 1788.85 1329.78C1764.22 1271.91 1721.12 1220.81 1677.41 1175.86C1644.78 1142.62 1594.91 1097.67 1541.97 1072.43C1543.2 1069.35 1544.43 1066.28 1545.66 1062.58L1545.66 1062.58C1549.97 1061.97 1555.51 1061.97 1561.05 1062.58C1584.45 1065.66 1606.61 1074.28 1627.54 1083.51C1670.64 1101.98 1716.2 1125.99 1751.29 1158.01C1793.16 1195.56 1818.4 1273.14 1820.24 1339.01C1821.48 1363.02 1819.01 1387.03 1814.7 1411.66ZM2263.52 1042.27C2216.73 969.002 2137.92 916.055 2057.89 880.963C2052.35 870.497 2041.88 862.493 2027.11 862.493L2002.48 862.493C1986.47 862.493 1975.39 875.422 1972.31 889.582C1962.46 894.507 1952.61 901.279 1942.76 910.514C1911.36 940.682 1962.46 985.009 1993.86 955.457C2003.1 946.223 2005.56 947.454 2012.33 949.301C2020.33 950.532 2034.49 961.614 2044.96 972.696C2075.74 1003.48 2097.91 1046.57 2116.38 1085.98C2138.54 1131.54 2156.39 1178.94 2171.79 1226.96C2181.64 1258.36 2192.1 1287.3 2192.72 1318.08C2193.33 1355.64 2240.12 1355.64 2256.75 1330.39C2317.08 1238.66 2322.62 1134.61 2263.52 1042.27ZM2235.81 1202.34C2234.58 1199.26 2233.97 1196.18 2232.74 1193.1C2214.27 1136.46 2190.87 1081.05 2163.17 1027.49C2176.1 1039.8 2187.79 1052.73 2198.87 1066.89C2231.5 1109.99 2241.97 1156.16 2235.81 1202.34ZM2289.38 826.785C2249.97 844.639 2272.14 908.667 2311.54 890.813C2335.55 879.731 2342.94 900.048 2350.94 921.596C2361.41 949.301 2364.49 980.084 2365.1 1009.64C2365.72 1053.35 2432.82 1047.81 2432.82 1004.71C2432.21 929.6 2395.89 778.763 2289.38 826.785ZM1281.54 669.176C1282.16 663.02 1284.62 657.479 1286.47 652.554C1299.4 621.155 1320.33 592.219 1338.8 563.899C1376.35 507.874 1421.91 448.771 1406.52 377.97C1389.28 297.319 1319.1 261.611 1256.92 218.514C1232.29 201.276 1205.82 180.344 1199.66 148.945C1194.12 121.856 1210.13 62.1373 1247.07 67.6782C1290.16 73.8348 1303.09 7.3437 1260 1.18711C1153.49-14.2043 1103.62 123.703 1149.79 204.354C1170.73 241.294 1205.82 265.304 1240.29 288.084C1273.54 309.632 1314.17 331.18 1332.64 368.735C1366.5 436.457 1295.09 507.874 1258.76 563.899C1224.9 616.23 1177.5 710.425 1263.69 742.44C1304.32 757.215 1334.49 696.881 1293.86 681.489C1290.78 680.258 1282.16 675.949 1282.77 676.564C1282.16 675.949 1282.16 675.949 1281.54 675.949C1281.54 675.333 1281.54 674.717 1280.93 674.102C1281.54 675.949 1280.93 671.023 1281.54 669.176ZM1644.78 341.03C1636.16 290.546 1604.15 249.913 1570.29 212.974C1556.13 197.582 1540.12 182.806 1526.58 166.184C1521.03 160.027 1516.73 153.255 1511.8 146.482C1509.34 142.173 1509.34 136.632 1508.72 138.479C1514.88 95.3828 1448.39 82.454 1442.23 125.55C1436.07 167.415 1464.39 198.813 1490.87 227.134C1523.5 262.226 1561.05 294.856 1575.83 341.646C1593.07 395.208 1545.66 451.849 1521.03 495.561C1489.64 551.586 1479.79 611.304 1505.03 672.255C1521.65 712.272 1585.68 690.109 1569.06 650.091C1522.27 538.041 1664.48 456.774 1644.78 341.03ZM1929.22 304.707C1923.68 221.593 1886.74 60.2903 1772.22 87.9949C1729.74 98.4611 1752.52 161.874 1794.39 152.023C1819.01 145.867 1836.25 197.582 1842.41 214.205C1856.57 254.223 1862.72 297.319 1862.11 339.183C1862.11 391.514 1843.64 446.308 1828.25 495.561C1809.16 555.895 1783.31 615.614 1752.52 671.023C1730.97 709.194 1791.92 738.746 1813.47 701.191C1851.03 634.699 1878.73 562.667 1900.9 489.404C1919.37 430.301 1933.53 367.504 1929.22 304.707Z" fill="#010101" fill-rule="nonzero" opacity="1" stroke="none" vectornator:layerName="path"/>
</g>
</g>
</svg>
