<?xml version="1.0" encoding="UTF-8" standalone="no"?>
<!DOCTYPE svg PUBLIC "-//W3C//DTD SVG 1.1//EN" "http://www.w3.org/Graphics/SVG/1.1/DTD/svg11.dtd">
<!-- Created with Vectornator (http://vectornator.io/) -->
<svg height="100%" stroke-miterlimit="10" style="fill-rule:nonzero;clip-rule:evenodd;stroke-linecap:round;stroke-linejoin:round;" version="1.1" viewBox="0 0 3370.82 2384.24" width="100%" xml:space="preserve" xmlns="http://www.w3.org/2000/svg" xmlns:vectornator="http://vectornator.io" xmlns:xlink="http://www.w3.org/1999/xlink">
<defs/>
<clipPath id="ArtboardFrame">
<rect height="2384.24" width="3370.82" x="0" y="0"/>
</clipPath>
<g clip-path="url(#ArtboardFrame)" id="Layer-1" vectornator:layerName="Layer 1">
<g opacity="1" vectornator:layerName="Chocolate Bar">
<path d="M2698.05 1077.56C2678.97 962.056 2671.94 843.538 2643.82 729.038C2619.71 630.608 2623.73 525.147 2606.65 425.712C2591.59 332.304 2572.51 207.76 2487.13 150.51C2404.77 95.2682 2290.27 108.325 2197.87 122.387C2166.73 126.404 2136.6 130.422 2105.46 135.444C2130.57 350.383 2203.89 556.283 2247.08 767.204C2252.11 790.305 2256.12 814.411 2261.14 837.512C2306.34 830.481 2350.54 824.455 2395.73 816.419C2441.93 808.384 2509.23 800.349 2546.39 766.2C2598.62 718.994 2681.98 791.31 2629.76 839.52C2538.36 922.885 2398.75 927.907 2281.23 944.981C2307.35 1094.64 2330.45 1245.29 2369.62 1391.93C2456 1342.72 2549.4 1290.49 2617.7 1222.19C2652.86 1187.04 2688.01 1151.89 2723.16 1116.73C2710.11 1108.7 2701.07 1095.64 2698.05 1077.56ZM1683.62 1640.02C1652.48 1647.05 1621.35 1655.08 1590.21 1662.11C1554.05 1670.15 1517.9 1678.19 1483.75 1691.24C1478.73 1693.25 1473.7 1695.26 1467.68 1697.27C1546.02 1715.35 1626.37 1729.41 1705.72 1735.44C1698.69 1703.29 1690.65 1672.16 1683.62 1640.02ZM2140.62 791.31C2096.42 576.371 2023.1 366.453 1996.99 148.501C1851.35 166.58 1704.71 183.654 1559.08 201.733C1563.09 456.848 1597.24 709.954 1645.45 961.051C1656.5 959.043 1666.55 957.034 1677.59 954.021C1835.28 917.863 1994.98 888.735 2154.68 857.599C2148.65 835.503 2144.64 813.406 2140.62 791.31ZM2171.75 963.06C2018.08 991.183 1864.41 1024.33 1712.75 1058.48C1696.68 1061.49 1680.61 1065.51 1665.54 1068.52C1695.67 1217.17 1730.83 1363.81 1765.98 1511.46C1904.59 1490.36 2062.28 1519.49 2192.85 1459.23C2213.94 1449.18 2232.02 1454.21 2245.07 1465.25C2254.11 1460.23 2262.15 1455.21 2271.19 1450.19C2225.99 1289.49 2199.88 1125.77 2171.75 963.06Z" fill="#c56528" fill-rule="nonzero" opacity="1" stroke="none" vectornator:layerName="path"/>
<path d="M1557.07 1088.61C1419.47 1112.71 1280.86 1128.78 1141.25 1139.83C1143.26 1198.09 1145.27 1256.34 1148.28 1315.6C1153.3 1410.01 1151.29 1531.54 1201.51 1615.91C1203.52 1618.93 1204.53 1621.94 1205.53 1624.95C1213.57 1627.97 1221.6 1629.97 1230.64 1632.99C1262.78 1643.03 1294.92 1652.07 1328.07 1662.11C1330.08 1654.08 1333.09 1646.04 1339.12 1640.02C1356.19 1619.93 1395.36 1607.88 1419.47 1597.83C1457.63 1582.77 1497.81 1571.72 1537.98 1562.68C1577.16 1553.64 1617.33 1542.59 1657.51 1533.55C1622.35 1384.9 1588.2 1237.26 1557.07 1088.61ZM2921.03 1155.9C2902.95 1087.6 2866.79 1055.46 2805.52 1051.45C2806.53 1057.47 2807.53 1063.5 2808.54 1068.52C2809.54 1075.55 2809.54 1081.58 2808.54 1086.6C2837.66 1101.67 2854.74 1139.83 2824.61 1168.96C2783.43 1210.14 2741.24 1252.32 2700.06 1293.5C2624.73 1368.83 2526.3 1423.07 2435.91 1478.31C2423.86 1485.34 2411.8 1492.37 2399.75 1500.41C2399.75 1502.42 2400.75 1503.42 2400.75 1505.43C2411.8 1556.65 2345.51 1577.75 2311.36 1552.64C2282.24 1569.71 2253.11 1586.79 2224.99 1603.86C2303.33 1586.79 2387.7 1589.8 2469.05 1615.91C2610.67 1660.11 2721.15 1762.55 2779.41 1893.12C2828.62 1755.52 2874.83 1617.92 2903.95 1474.29C2924.04 1373.86 2948.15 1256.34 2921.03 1155.9Z" fill="#bcbcbc" fill-rule="nonzero" opacity="1" stroke="none" vectornator:layerName="path"/>
<path d="M1814.19 1615.91C1806.16 1616.92 1799.13 1617.92 1791.09 1618.93C1801.13 1659.1 1810.17 1699.28 1820.22 1739.45C1837.29 1739.45 1855.37 1738.45 1872.45 1736.44C1882.49 1705.3 1920.66 1689.23 1948.78 1700.28C1966.86 1664.12 1994.98 1632.99 2026.12 1605.87C1954.81 1609.89 1882.49 1607.88 1814.19 1615.91Z" fill="#c56528" fill-rule="nonzero" opacity="1" stroke="none" vectornator:layerName="path"/>
<path d="M3126.93 3011.01C3087.76 2708.69 3049.59 2406.37 3015.44 2104.05C2999.37 1964.44 2994.35 1818.8 2965.22 1681.2C2923.04 1824.83 2868.8 1966.44 2817.58 2107.06C2798.49 2159.29 2715.13 2138.2 2713.12 2086.97C2705.08 1922.25 2601.63 1768.58 2437.92 1721.37C2279.22 1675.17 2127.56 1727.4 2028.13 1853.95C1929.7 2140.2 1556.06 2167.32 1296.93 2138.2C1112.12 2117.1 933.342 2059.85 747.531 2039.77C704.342 2034.74 661.153 2032.73 616.96 2031.73L616.96 2031.73C564.732 2111.08 581.806 2225.58 594.863 2314.97C611.938 2428.46 640.061 2538.95 665.171 2651.44C731.46 2954.76 760.588 3267.13 788.71 3575.48C799.759 3697.01 805.785 3815.52 808.798 3937.06C810.807 4024.44 811.811 4118.85 848.974 4199.2C890.154 4287.59 971.509 4316.71 1060.9 4332.78C1203.52 4357.89 1347.15 4366.93 1491.78 4365.93C1768.99 4363.92 2044.2 4330.78 2317.39 4286.58C2566.48 4247.41 2830.63 4195.18 3036.53 4040.51C3043.56 4034.48 3052.6 4029.46 3062.65 4028.46C3073.7 4027.45 3084.74 4030.46 3093.78 4036.49C3103.83 4041.51 3112.87 4041.51 3103.83 4044.53C3109.85 4042.52 3108.85 4044.53 3116.88 4033.48C3130.95 4014.39 3140.99 3982.25 3148.02 3957.14C3164.09 3890.85 3173.13 3821.55 3177.15 3752.25C3190.2 3506.17 3158.06 3256.08 3126.93 3011.01Z" fill="#d6e5e5" fill-rule="nonzero" opacity="1" stroke="none" vectornator:layerName="path"/>
<path d="M1223.61 1744.47C1101.08 1707.31 981.553 1663.12 864.04 1611.9C741.504 1557.66 616.96 1500.41 482.372 1489.36C467.306 1488.36 456.258 1482.33 449.227 1473.29C441.192 1471.28 433.157 1467.26 426.126 1461.24C416.082 1452.2 407.043 1438.14 407.043 1424.07L407.043 1409.01C407.043 1393.94 410.056 1379.88 421.104 1367.83C429.139 1358.79 439.183 1353.77 450.231 1350.75C450.231 1341.71 449.227 1331.67 448.223 1322.63C401.016 1325.64 375.907 1366.82 355.819 1420.06C325.687 1501.41 316.648 1591.81 306.604 1678.19C295.556 1768.58 291.538 1879.06 264.419 1978.5C388.964 1930.29 525.561 1916.23 660.149 1923.26C857.009 1934.3 1042.82 1985.53 1235.66 2018.67C1437.55 2053.83 1816.2 2072.91 1915.63 1843.91C1685.63 1871.03 1441.56 1810.76 1223.61 1744.47Z" fill="#bcbcbc" fill-rule="nonzero" opacity="1" stroke="none" vectornator:layerName="path"/>
<path d="M1447.59 215.795C1425.49 218.808 1403.4 221.821 1381.3 224.834C1247.72 243.918 1114.13 261.997 979.544 279.071C980.549 285.098 980.549 292.128 982.558 298.155C988.584 323.265 994.61 347.37 1002.65 371.475C1015.7 414.664 1029.76 457.853 1038.8 502.046C1070.94 652.704 1108.11 800.349 1127.19 954.021C1130.2 980.135 1133.22 1005.24 1135.22 1031.36C1269.81 1021.31 1403.4 1006.25 1535.98 982.144C1486.76 729.038 1452.61 473.923 1447.59 215.795ZM1012.69 925.898C991.597 778.253 962.47 626.59 921.29 483.967C906.224 433.747 872.075 359.423 868.057 293.133C745.522 307.194 621.982 320.251 498.442 328.286C507.482 349.379 501.455 370.471 488.398 385.537C488.398 392.567 488.398 399.598 488.398 406.629C488.398 427.721 484.381 448.813 484.381 469.905C484.381 515.103 488.398 560.3 493.42 605.498C502.46 691.875 504.468 778.253 513.508 863.626C519.534 925.898 527.569 988.17 534.6 1050.44C539.622 1049.44 544.644 1048.43 549.666 1048.43C707.355 1048.43 867.053 1046.42 1025.75 1038.39C1021.73 1000.22 1017.71 963.06 1012.69 925.898ZM1038.8 1322.63C1035.79 1263.37 1033.78 1205.12 1031.77 1145.86C874.084 1154.9 716.394 1157.91 557.701 1157.91C553.683 1157.91 549.666 1157.91 545.648 1156.91C553.683 1228.22 559.71 1300.53 561.719 1372.85C562.723 1376.87 562.723 1380.89 562.723 1384.9L562.723 1387.92C673.206 1408 778.667 1453.2 881.114 1498.4C943.386 1525.52 1005.66 1551.63 1068.93 1575.74C1046.84 1494.38 1042.82 1404.99 1038.8 1322.63Z" fill="#c56528" fill-rule="nonzero" opacity="1" stroke="none" vectornator:layerName="path"/>
<path d="M3264.53 3234.99C3232.39 2918.61 3183.17 2605.24 3148.02 2288.85C3130.95 2134.18 3112.87 1979.5 3094.79 1823.82C3087.76 1760.54 3080.73 1698.27 3067.67 1635C3062.65 1610.89 3058.63 1585.78 3056.62 1561.68C3055.62 1549.62 3055.62 1537.57 3055.62 1525.52C3055.62 1518.49 3064.66 1501.41 3055.62 1509.45C3097.8 1474.29 3069.68 1410.01 3028.5 1406C3045.57 1299.53 3053.61 1181.01 3012.43 1081.58C2973.26 985.157 2886.88 940.964 2789.45 939.959C2778.4 861.617 2768.36 783.275 2751.29 705.937C2728.19 597.463 2729.19 482.962 2709.1 373.484C2690.02 268.023 2660.89 157.54 2580.54 82.2112C2498.18 4.87324 2377.65-5.17065 2271.19 1.86007C2200.88 5.87763 2131.58 16.9259 2061.27 26.9698C2045.2 22.9522 2027.12 24.961 2013.06 34.0005C1980.92 38.0181 1949.78 42.0356 1917.64 46.0532C1754.93 62.1234 1593.23 84.22 1431.52 106.317C1108.11 151.514 784.693 199.725 459.271 219.812C418.091 222.826 403.025 260.992 413.069 292.128C407.043 295.142 402.021 299.159 398.003 304.181C376.911 332.304 378.92 364.444 377.915 397.589C376.911 440.778 372.893 483.967 374.902 527.155C379.924 623.577 388.964 719.998 396.999 815.415C408.047 947.994 427.13 1079.57 440.188 1212.15C280.49 1224.2 234.288 1416.04 212.191 1556.65C196.121 1658.1 188.086 1760.54 172.016 1861.99C161.972 1926.27 143.893 2026.71 100.704 2064.87C48.4759 2110.07 103.717 2199.46 162.976 2156.27C262.411 2083.96 375.907 2047.8 493.42 2034.74C471.324 2101.03 472.328 2176.36 477.35 2243.66C485.385 2353.13 510.495 2461.61 535.604 2569.08C595.868 2833.23 632.026 3100.4 659.144 3369.58C674.21 3517.22 693.294 3665.87 697.311 3814.52C700.324 3909.94 697.311 4006.36 710.368 4100.77C722.421 4190.16 753.557 4271.52 814.825 4337.81C889.149 4418.16 1003.65 4434.23 1106.1 4449.29C1460.65 4501.52 1828.25 4468.38 2180.79 4416.15C2486.13 4370.95 2817.58 4327.76 3076.71 4145.97C3215.31 4191.17 3263.52 3972.21 3277.59 3870.77C3304.7 3662.86 3285.62 3445.91 3264.53 3234.99ZM2824.61 1169.96C2854.74 1139.83 2837.66 1102.67 2808.54 1087.6C2809.54 1082.58 2809.54 1075.55 2808.54 1069.53C2807.53 1063.5 2806.53 1057.47 2805.52 1052.45C2866.79 1056.47 2901.94 1088.61 2921.03 1156.91C2948.15 1256.34 2925.05 1374.86 2903.95 1474.29C2874.83 1617.92 2828.62 1756.53 2779.41 1893.12C2721.15 1763.56 2611.68 1661.11 2469.05 1615.91C2387.7 1589.8 2303.33 1587.79 2224.99 1603.86C2254.11 1586.79 2283.24 1569.71 2311.36 1552.64C2346.52 1577.75 2411.8 1556.65 2400.75 1505.43C2400.75 1503.42 2399.75 1502.42 2399.75 1500.41C2411.8 1493.38 2423.86 1486.35 2435.91 1478.31C2526.3 1423.07 2624.73 1368.83 2700.06 1293.5C2741.24 1253.33 2783.43 1211.14 2824.61 1169.96ZM1765.98 1510.45C1730.83 1363.81 1696.68 1216.17 1665.54 1067.52C1681.61 1064.5 1697.68 1061.49 1712.75 1057.47C1864.41 1023.32 2018.08 990.179 2171.75 962.056C2199.88 1125.77 2224.99 1288.48 2270.18 1448.18C2261.14 1453.2 2253.11 1458.22 2244.07 1463.25C2232.02 1451.19 2213.94 1447.18 2191.84 1457.22C2062.28 1518.49 1904.59 1489.36 1765.98 1510.45ZM2026.12 1605.87C1994.98 1632.99 1966.86 1664.12 1948.78 1700.28C1920.66 1689.23 1882.49 1705.3 1872.45 1736.44C1855.37 1737.44 1837.29 1738.45 1820.22 1739.45C1811.18 1699.28 1801.13 1659.1 1791.09 1618.93C1799.13 1617.92 1806.16 1616.92 1814.19 1615.91C1882.49 1607.88 1954.81 1609.89 2026.12 1605.87ZM1706.72 1735.44C1627.38 1729.41 1547.02 1715.35 1468.68 1697.27C1473.7 1695.26 1478.73 1693.25 1484.75 1691.24C1519.91 1679.19 1556.06 1670.15 1591.22 1662.11C1622.35 1655.08 1653.49 1647.05 1684.63 1640.02C1690.65 1672.16 1698.69 1703.29 1706.72 1735.44ZM2197.87 121.382C2290.27 108.325 2404.77 94.2638 2487.13 149.505C2571.5 206.755 2590.58 331.3 2606.65 424.708C2623.73 524.142 2619.71 630.608 2643.82 728.033C2671.94 842.534 2678.97 961.051 2698.05 1076.56C2701.07 1094.64 2710.11 1107.69 2723.16 1114.72C2688.01 1149.88 2652.86 1185.03 2617.7 1220.18C2549.4 1288.48 2456 1340.71 2369.62 1389.93C2330.45 1243.28 2306.34 1092.63 2281.23 942.972C2398.75 924.893 2538.36 919.871 2629.76 837.512C2681.98 789.301 2598.62 716.985 2546.39 764.191C2510.23 797.336 2441.93 805.371 2395.73 814.411C2351.54 822.446 2306.34 828.472 2261.14 835.503C2257.13 811.397 2252.11 788.297 2247.08 765.196C2203.89 554.274 2131.58 348.374 2105.46 133.435C2136.6 130.422 2167.74 126.404 2197.87 121.382ZM1995.99 148.501C2022.1 366.453 2096.42 576.371 2139.61 791.31C2143.63 813.406 2148.65 835.503 2152.67 856.595C1993.98 887.731 1834.28 916.858 1675.59 953.016C1664.54 955.025 1654.49 958.038 1643.45 960.047C1595.23 708.95 1561.09 456.848 1557.07 200.729C1703.71 183.654 1850.35 166.58 1995.99 148.501ZM1657.51 1532.55C1617.33 1542.59 1577.16 1552.64 1537.98 1561.68C1497.81 1570.72 1457.63 1581.76 1419.47 1596.83C1395.36 1605.87 1356.19 1617.92 1339.12 1639.01C1334.09 1645.04 1330.08 1653.08 1328.07 1661.11C1294.92 1652.07 1262.78 1642.03 1230.64 1631.98C1222.61 1628.97 1214.57 1626.96 1205.53 1623.95C1204.53 1620.93 1202.52 1617.92 1201.51 1614.91C1151.29 1530.54 1153.3 1409.01 1148.28 1314.6C1145.27 1256.34 1143.26 1198.09 1141.25 1138.83C1280.86 1127.78 1419.47 1111.71 1557.07 1087.6C1588.2 1237.26 1622.35 1384.9 1657.51 1532.55ZM1381.3 224.834C1403.4 221.821 1425.49 218.808 1447.59 215.795C1451.61 473.923 1486.76 729.038 1535.98 982.144C1403.4 1006.25 1269.81 1021.31 1135.22 1031.36C1133.22 1005.24 1131.21 979.13 1127.19 954.021C1108.11 801.354 1069.94 652.704 1038.8 502.046C1029.76 457.853 1014.7 414.664 1002.65 371.475C995.615 347.37 988.584 323.265 982.558 298.155C981.553 292.128 980.549 286.102 979.544 279.071C1114.13 261.997 1247.72 243.918 1381.3 224.834ZM561.719 1372.85C558.705 1300.53 552.679 1229.22 545.648 1156.91C549.666 1157.91 553.683 1157.91 557.701 1157.91C715.39 1157.91 874.084 1154.9 1031.77 1145.86C1034.79 1204.11 1035.79 1263.37 1038.8 1322.63C1042.82 1403.99 1046.84 1493.38 1068.93 1575.74C1005.66 1551.63 943.386 1525.52 881.114 1498.4C778.667 1453.2 673.206 1408 562.723 1387.92L562.723 1384.9C563.727 1380.89 562.723 1376.87 561.719 1372.85ZM488.398 406.629C488.398 399.598 488.398 392.567 488.398 385.537C501.455 370.471 507.482 349.379 498.442 328.286C621.982 320.251 745.522 308.199 868.057 293.133C872.075 358.418 906.224 433.747 921.29 483.967C963.474 627.594 991.597 778.253 1012.69 925.898C1017.71 963.06 1021.73 1000.22 1024.74 1038.39C866.048 1046.42 707.355 1048.43 548.662 1048.43C542.635 1048.43 537.613 1049.44 533.596 1050.44C526.565 988.17 518.53 925.898 512.504 863.626C503.464 777.248 501.455 690.871 492.416 605.498C487.394 560.3 484.381 515.103 483.376 469.905C483.376 447.809 488.398 427.721 488.398 406.629ZM265.424 1977.49C292.542 1879.06 296.56 1767.58 307.608 1677.18C317.652 1591.81 326.692 1501.41 356.823 1419.05C375.907 1365.82 402.021 1324.64 449.227 1321.63C450.231 1330.67 450.231 1340.71 451.236 1349.75C440.188 1352.76 430.144 1357.79 422.109 1366.82C412.065 1378.88 408.047 1391.93 408.047 1408L408.047 1423.07C408.047 1437.13 417.087 1451.19 427.13 1460.23C433.157 1466.26 441.192 1470.28 450.231 1472.29C457.262 1481.32 468.31 1487.35 483.376 1488.36C618.969 1500.41 742.509 1556.65 865.044 1610.89C982.558 1663.12 1101.08 1706.31 1224.62 1743.47C1442.57 1809.76 1686.63 1870.02 1916.64 1841.9C1817.2 2070.9 1439.55 2051.82 1236.67 2016.66C1043.83 1983.52 858.013 1932.3 661.153 1921.25C526.565 1915.22 389.968 1930.29 265.424 1977.49ZM3178.15 3752.25C3174.13 3820.55 3166.1 3889.85 3149.02 3957.14C3143 3983.26 3131.95 4014.39 3117.89 4033.48C3109.85 4044.53 3110.86 4042.52 3104.83 4044.53C3113.87 4041.51 3104.83 4042.52 3094.79 4036.49C3085.75 4030.46 3074.7 4027.45 3063.65 4028.46C3053.61 4029.46 3044.57 4033.48 3037.54 4040.51C2830.63 4195.18 2567.48 4246.41 2318.39 4286.58C2045.2 4329.77 1770 4362.92 1492.79 4365.93C1348.16 4366.93 1204.53 4357.89 1061.9 4332.78C971.509 4316.71 890.154 4287.59 849.978 4199.2C812.816 4118.85 811.811 4023.43 809.803 3937.06C806.789 3815.52 800.763 3696 789.715 3575.48C761.592 3267.13 733.469 2954.76 666.175 2651.44C641.065 2539.95 612.942 2428.46 595.868 2314.97C582.811 2225.58 565.736 2112.08 617.964 2031.73L617.964 2031.73C661.153 2032.73 705.346 2034.74 748.535 2039.77C934.347 2058.85 1112.12 2117.1 1297.94 2138.2C1557.07 2167.32 1930.7 2140.2 2029.13 1853.95C2128.57 1727.4 2279.22 1675.17 2438.92 1721.37C2601.63 1768.58 2706.09 1922.25 2714.12 2086.97C2716.13 2139.2 2799.5 2160.29 2818.58 2107.06C2869.8 1965.44 2924.04 1824.83 2966.23 1681.2C2995.35 1818.8 3000.37 1964.44 3016.44 2104.05C3050.59 2407.37 3088.76 2708.69 3127.93 3011.01C3158.06 3256.08 3190.2 3506.17 3178.15 3752.25Z" fill="#000000" fill-rule="nonzero" opacity="1" stroke="none" vectornator:layerName="path"/>
</g>
</g>
</svg>
