<?xml version="1.0" encoding="UTF-8" standalone="no"?>
<!DOCTYPE svg PUBLIC "-//W3C//DTD SVG 1.1//EN" "http://www.w3.org/Graphics/SVG/1.1/DTD/svg11.dtd">
<!-- Created with Vectornator (http://vectornator.io/) -->
<svg height="100%" stroke-miterlimit="10" style="fill-rule:nonzero;clip-rule:evenodd;stroke-linecap:round;stroke-linejoin:round;" version="1.1" viewBox="0 0 20 20" width="100%" xml:space="preserve" xmlns="http://www.w3.org/2000/svg" xmlns:vectornator="http://vectornator.io" xmlns:xlink="http://www.w3.org/1999/xlink">
<defs/>
<clipPath id="ArtboardFrame">
<rect height="20" width="20" x="0" y="0"/>
</clipPath>
<g clip-path="url(#ArtboardFrame)" id="Untitled" vectornator:layerName="Untitled">
<path d="M16 16C14.89 16 14 16.89 14 18C14 19.1046 14.8954 20 16 20C17.1046 20 18 19.1046 18 18C18 16.8954 17.1046 16 16 16ZM0 0L2.60875e-16 2L2 2L5.6 9.59L4.24 12.04C4.08242 12.3355 4 12.6652 4 13C4 14.1046 4.89543 15 6 15L18 15L18 13L6.42 13C6.28193 13 6.17 12.8881 6.17 12.75C6.17 12.7 6.18 12.66 6.2 12.63L7.1 11L14.55 11C15.2766 10.9982 15.9457 10.6044 16.3 9.97L19.88 3.5C19.95 3.34 20 3.17 20 3C20 2.44772 19.5523 2 19 2L4.21 2L3.27 8.88178e-16M6 16C4.89 16 4 16.89 4 18C4 19.1046 4.89543 20 6 20C7.10457 20 8 19.1046 8 18C8 16.8954 7.10457 16 6 16Z" fill="#dfe4b8" fill-rule="nonzero" opacity="1" stroke="none" vectornator:layerName="path"/>
</g>
</svg>
