<?xml version="1.0" encoding="UTF-8" standalone="no"?>
<!DOCTYPE svg PUBLIC "-//W3C//DTD SVG 1.1//EN" "http://www.w3.org/Graphics/SVG/1.1/DTD/svg11.dtd">
<!-- Created with Vectornator (http://vectornator.io/) -->
<svg height="100%" stroke-miterlimit="10" style="fill-rule:nonzero;clip-rule:evenodd;stroke-linecap:round;stroke-linejoin:round;" version="1.1" viewBox="0 0 3370.82 2384.24" width="100%" xml:space="preserve" xmlns="http://www.w3.org/2000/svg" xmlns:vectornator="http://vectornator.io" xmlns:xlink="http://www.w3.org/1999/xlink">
<defs/>
<g id="Layer-1" vectornator:layerName="Layer 1">
<g opacity="1" vectornator:layerName="Cookie">
<path d="M2836.65 1087.32C2795.36 1108.1 2747.09 1122.37 2695.32 1122.37C2582.7 1122.37 2486.94 1065.41 2444.87 984.547C2392.93 1005.44 2336.32 1017.21 2276.91 1017.21C2027.65 1017.21 1825.61 815.176 1825.61 565.923C1825.61 506.09 1837.53 449.13 1858.67 396.868C1859.09 392.487 1859.65 388.736 1860.14 384.635C1779.17 355.612 1720.46 269.28 1720.46 167.209C1720.46 119.363 1733.43 74.9876 1755.48 38.3234C1732.45 36.9213 1708.82 35.7646 1685.41 35.7646C1046.59 35.7646 528.698 553.655 528.698 1192.47C528.698 1831.29 1046.59 2349.18 1685.41 2349.18C2324.23 2349.18 2842.12 1831.29 2842.12 1192.47C2842.12 1157.67 2839.84 1121.32 2836.65 1087.32Z" fill="#fcba7f" fill-rule="nonzero" opacity="1" stroke="none" vectornator:layerName="path"/>
<path d="M1685.41 2384.24C1028.26 2384.24 493.646 1849.62 493.646 1192.47C493.646 535.323 1028.26 0.71282 1685.41 0.71282C1709.52 0.71282 1733.88 1.86953 1757.65 3.3417C1769.88 4.07779 1780.82 11.1933 1786.53 22.0243C1792.25 32.8904 1791.86 45.8946 1785.55 56.3751C1765.89 89.0433 1755.51 127.355 1755.51 167.209C1755.51 251.228 1803.39 327.08 1871.95 351.616C1887.31 357.119 1896.8 372.472 1894.95 388.666L1893.58 400.128C1893.26 403.528 1892.46 406.858 1891.2 410.013C1870.9 460.032 1860.67 512.504 1860.67 565.923C1860.67 795.442 2047.39 982.163 2276.91 982.163C2329.97 982.163 2382.1 972.033 2431.84 952.054C2448.63 945.289 2467.69 952.404 2476 968.388C2530.09 1072.39 2685.58 1124.12 2820.91 1056.02C2831.25 1050.86 2843.55 1051.07 2853.65 1056.68C2863.81 1062.29 2870.47 1072.56 2871.56 1084.09C2875.28 1124.02 2877.17 1160.51 2877.17 1192.47C2877.17 1849.62 2342.56 2384.24 1685.41 2384.24ZM1685.41 70.8164C1066.92 70.8164 563.75 573.985 563.75 1192.47C563.75 1810.96 1066.92 2314.13 1685.41 2314.13C2303.9 2314.13 2807.06 1810.96 2807.06 1192.47C2807.06 1175.82 2806.5 1157.81 2805.42 1138.53C2661.49 1188.27 2503.34 1134.11 2429.87 1027.41C2380.34 1043.92 2329.03 1052.27 2276.91 1052.27C2008.73 1052.27 1790.56 834.104 1790.56 565.923C1790.56 510.752 1799.92 456.491 1818.36 404.334C1737.7 361.185 1685.41 269.876 1685.41 167.209C1685.41 133.98 1690.95 101.452 1701.64 70.9917C1696.24 70.8865 1690.81 70.8164 1685.41 70.8164Z" fill="#1f212b" fill-rule="nonzero" opacity="1" stroke="none" vectornator:layerName="path"/>
<path d="M2421.5 18.2387C2353.74 18.2387 2298.81 73.165 2298.81 140.92C2298.81 208.675 2353.74 263.601 2421.5 263.601C2489.25 263.601 2544.18 208.675 2544.18 140.92C2544.18 73.165 2489.25 18.2387 2421.5 18.2387ZM2789.54 614.119C2750.82 614.119 2719.44 645.506 2719.44 684.223C2719.44 722.94 2750.82 754.326 2789.54 754.326C2828.26 754.326 2859.64 722.94 2859.64 684.223C2859.64 645.506 2828.26 614.119 2789.54 614.119ZM2316.34 438.86C2267.94 438.86 2228.71 478.093 2228.71 526.49C2228.71 574.886 2267.94 614.119 2316.34 614.119C2364.74 614.119 2403.97 574.886 2403.97 526.49C2403.97 478.093 2364.74 438.86 2316.34 438.86ZM1440.04 614.119C1391.65 614.119 1352.42 653.352 1352.42 701.749C1352.42 750.145 1391.65 789.378 1440.04 789.378C1488.44 789.378 1527.67 750.145 1527.67 701.749C1527.67 653.352 1488.44 614.119 1440.04 614.119ZM1615.3 1139.9C1566.91 1139.9 1527.67 1179.13 1527.67 1227.53C1527.67 1275.92 1566.91 1315.16 1615.3 1315.16C1663.7 1315.16 1702.93 1275.92 1702.93 1227.53C1702.93 1179.13 1663.7 1139.9 1615.3 1139.9ZM1194.68 1525.47C1126.93 1525.47 1072 1580.39 1072 1648.15C1072 1715.9 1126.93 1770.83 1194.68 1770.83C1262.44 1770.83 1317.36 1715.9 1317.36 1648.15C1317.36 1580.39 1262.44 1525.47 1194.68 1525.47ZM1965.82 1525.47C1878.71 1525.47 1808.09 1596.09 1808.09 1683.2C1808.09 1770.31 1878.71 1840.93 1965.82 1840.93C2052.94 1840.93 2123.55 1770.31 2123.55 1683.2C2123.55 1596.09 2052.94 1525.47 1965.82 1525.47ZM1072 894.534C975.208 894.534 896.742 973 896.742 1069.79C896.742 1166.59 975.208 1245.05 1072 1245.05C1168.79 1245.05 1247.26 1166.59 1247.26 1069.79C1247.26 973 1168.79 894.534 1072 894.534Z" fill="#b77748" fill-rule="nonzero" opacity="1" stroke="none" vectornator:layerName="path"/>
<path d="M2421.5 281.127C2344.17 281.127 2281.29 218.244 2281.29 140.92C2281.29 63.5957 2344.17 0.71282 2421.5 0.71282C2498.82 0.71282 2561.7 63.5957 2561.7 140.92C2561.7 218.244 2498.82 281.127 2421.5 281.127ZM2421.5 35.7646C2363.52 35.7646 2316.34 82.9443 2316.34 140.92C2316.34 198.896 2363.52 246.075 2421.5 246.075C2479.47 246.075 2526.65 198.896 2526.65 140.92C2526.65 82.9443 2479.47 35.7646 2421.5 35.7646ZM2789.54 771.852C2741.24 771.852 2701.91 732.524 2701.91 684.223C2701.91 635.921 2741.24 596.593 2789.54 596.593C2837.84 596.593 2877.17 635.921 2877.17 684.223C2877.17 732.524 2837.84 771.852 2789.54 771.852ZM2789.54 631.645C2760.55 631.645 2736.96 655.235 2736.96 684.223C2736.96 713.211 2760.55 736.801 2789.54 736.801C2818.53 736.801 2842.12 713.211 2842.12 684.223C2842.12 655.235 2818.53 631.645 2789.54 631.645ZM2316.34 631.645C2258.36 631.645 2211.18 584.465 2211.18 526.49C2211.18 468.514 2258.36 421.334 2316.34 421.334C2374.32 421.334 2421.5 468.514 2421.5 526.49C2421.5 584.465 2374.32 631.645 2316.34 631.645ZM2316.34 456.386C2277.68 456.386 2246.24 487.828 2246.24 526.49C2246.24 565.152 2277.68 596.593 2316.34 596.593C2355 596.593 2386.44 565.152 2386.44 526.49C2386.44 487.828 2355 456.386 2316.34 456.386ZM1440.04 806.904C1382.07 806.904 1334.89 759.724 1334.89 701.749C1334.89 643.773 1382.07 596.593 1440.04 596.593C1498.02 596.593 1545.2 643.773 1545.2 701.749C1545.2 759.724 1498.02 806.904 1440.04 806.904ZM1440.04 631.645C1401.38 631.645 1369.94 663.087 1369.94 701.749C1369.94 740.411 1401.38 771.852 1440.04 771.852C1478.71 771.852 1510.15 740.411 1510.15 701.749C1510.15 663.087 1478.71 631.645 1440.04 631.645ZM1615.3 1332.68C1557.33 1332.68 1510.15 1285.5 1510.15 1227.53C1510.15 1169.55 1557.33 1122.37 1615.3 1122.37C1673.28 1122.37 1720.46 1169.55 1720.46 1227.53C1720.46 1285.5 1673.28 1332.68 1615.3 1332.68ZM1615.3 1157.42C1576.64 1157.42 1545.2 1188.86 1545.2 1227.53C1545.2 1266.19 1576.64 1297.63 1615.3 1297.63C1653.97 1297.63 1685.41 1266.19 1685.41 1227.53C1685.41 1188.86 1653.97 1157.42 1615.3 1157.42ZM1194.68 1788.35C1117.36 1788.35 1054.48 1725.47 1054.48 1648.15C1054.48 1570.82 1117.36 1507.94 1194.68 1507.94C1272.01 1507.94 1334.89 1570.82 1334.89 1648.15C1334.89 1725.47 1272.01 1788.35 1194.68 1788.35ZM1194.68 1542.99C1136.71 1542.99 1089.53 1590.17 1089.53 1648.15C1089.53 1706.12 1136.71 1753.3 1194.68 1753.3C1252.66 1753.3 1299.84 1706.12 1299.84 1648.15C1299.84 1590.17 1252.66 1542.99 1194.68 1542.99ZM1965.82 1858.46C1869.18 1858.46 1790.56 1779.84 1790.56 1683.2C1790.56 1586.56 1869.18 1507.94 1965.82 1507.94C2062.46 1507.94 2141.08 1586.56 2141.08 1683.2C2141.08 1779.84 2062.46 1858.46 1965.82 1858.46ZM1965.82 1542.99C1888.5 1542.99 1825.61 1605.87 1825.61 1683.2C1825.61 1760.52 1888.5 1823.41 1965.82 1823.41C2043.15 1823.41 2106.03 1760.52 2106.03 1683.2C2106.03 1605.87 2043.15 1542.99 1965.82 1542.99ZM1072 1262.58C965.689 1262.58 879.216 1176.1 879.216 1069.79C879.216 963.481 965.689 877.008 1072 877.008C1178.31 877.008 1264.79 963.481 1264.79 1069.79C1264.79 1176.1 1178.31 1262.58 1072 1262.58ZM1072 912.06C985.038 912.06 914.268 982.829 914.268 1069.79C914.268 1156.76 985.038 1227.53 1072 1227.53C1158.96 1227.53 1229.73 1156.76 1229.73 1069.79C1229.73 982.829 1158.96 912.06 1072 912.06Z" fill="#1f212b" fill-rule="nonzero" opacity="1" stroke="none" vectornator:layerName="path"/>
<path d="M2521.81 1753.3C2518.55 1753.3 2515.22 1752.39 2512.28 1750.46C2504.18 1745.21 2501.87 1734.34 2507.13 1726.21C2543.48 1670.23 2573.62 1612.29 2596.75 1554.03C2600.33 1545.06 2610.53 1540.64 2619.5 1544.22C2628.48 1547.79 2632.89 1557.99 2629.32 1566.97C2605.34 1627.4 2574.11 1687.41 2536.5 1745.31C2533.17 1750.5 2527.53 1753.3 2521.81 1753.3ZM1685.41 2208.98C1675.73 2208.98 1667.88 2201.12 1667.88 2191.45C1667.88 2181.78 1675.73 2173.92 1685.41 2173.92C1971.68 2173.92 2243.05 2048.4 2429.91 1829.54C2436.25 1822.18 2447.29 1821.37 2454.62 1827.58C2461.98 1833.85 2462.86 1844.93 2456.58 1852.29C2263.03 2078.97 1981.95 2208.98 1685.41 2208.98ZM2648.67 1472.89C2647.16 1472.89 2645.58 1472.71 2644.04 1472.26C2634.68 1469.7 2629.18 1460.09 2631.74 1450.74C2641.31 1415.51 2648.88 1380.77 2654.17 1347.44C2655.68 1337.9 2664.51 1331.38 2674.22 1332.89C2683.75 1334.4 2690.27 1343.37 2688.77 1352.94C2683.26 1387.5 2675.48 1423.5 2665.53 1459.95C2663.46 1467.77 2656.38 1472.89 2648.67 1472.89Z" fill="#1f212b" fill-rule="nonzero" opacity="1" stroke="none" vectornator:layerName="path"/>
</g>
</g>
</svg>
