<?xml version="1.0" encoding="UTF-8" standalone="no"?>
<!DOCTYPE svg PUBLIC "-//W3C//DTD SVG 1.1//EN" "http://www.w3.org/Graphics/SVG/1.1/DTD/svg11.dtd">
<!-- Created with Vectornator (http://vectornator.io/) -->
<svg height="100%" stroke-miterlimit="10" style="fill-rule:nonzero;clip-rule:evenodd;stroke-linecap:round;stroke-linejoin:round;" version="1.1" viewBox="0 0 2565 1500" width="100%" xml:space="preserve" xmlns="http://www.w3.org/2000/svg" xmlns:vectornator="http://vectornator.io" xmlns:xlink="http://www.w3.org/1999/xlink">
<defs/>
<g id="Layer-1" vectornator:layerName="Layer 1">
<path d="M1715.31 461.058C1715.31 512.354 1715.31 563.65 1715.31 614.946C1709.97 610.939 1704.62 606.931 1699.28 602.924C1688.59 594.909 1674.7 587.695 1657.6 581.283C1640.5 574.871 1619.93 571.131 1595.89 570.062C1571.84 568.993 1554.21 569.528 1542.99 571.665C1531.77 573.802 1519.21 577.81 1505.32 583.688C1491.42 589.565 1476.73 598.916 1461.23 611.74C1445.74 624.564 1433.18 637.655 1423.56 651.014C1413.95 664.372 1405.93 679.066 1399.52 695.096C1393.11 711.126 1388.83 725.019 1386.7 736.774C1384.56 748.529 1383.49 764.025 1383.49 783.261C1383.49 802.497 1384.56 817.993 1386.7 829.748C1388.83 841.503 1392.31 853.793 1397.11 866.617C1401.92 879.441 1407.53 891.196 1413.95 901.883C1420.36 912.57 1428.64 923.524 1438.79 934.745C1448.94 945.966 1458.83 955.049 1468.45 961.996C1478.07 968.942 1489.55 975.354 1502.91 981.232C1516.27 987.109 1530.43 991.384 1545.39 994.056C1560.35 996.727 1578.52 997.262 1599.89 995.659C1621.27 994.056 1639.7 990.048 1655.2 983.636C1670.69 977.224 1682.18 971.346 1689.66 966.003C1697.14 960.66 1703.29 955.316 1708.1 949.973C1710.5 947.301 1712.91 944.63 1715.31 941.958C1715.84 949.439 1716.38 956.919 1716.91 964.4C1717.98 979.361 1741.76 986.575 1788.25 986.041C1811.49 985.773 1834.73 985.506 1857.98 985.239C1857.98 872.495 1857.98 759.75 1857.98 647.006C1857.98 534.262 1857.98 421.517 1857.98 308.773C1834.2 308.506 1810.42 308.239 1786.64 307.972C1762.87 307.704 1739.09 307.437 1715.31 307.17C1715.31 358.466 1715.31 409.762 1715.31 461.058ZM356.768 576.474C340.203 581.817 327.112 587.695 317.494 594.107C307.876 600.519 300.395 606.397 295.052 611.74C292.38 614.412 289.709 617.083 287.037 619.755C286.503 613.076 285.968 606.397 285.434 599.718C284.365 586.359 260.32 579.68 213.299 579.68C189.788 579.68 166.278 579.68 142.767 579.68C142.767 621.358 142.767 663.036 142.767 704.714C142.767 746.392 142.767 788.07 142.767 829.748C153.721 827.878 164.675 826.008 175.629 824.138C197.536 820.397 215.971 818.794 230.932 819.329C245.893 819.863 258.45 821.466 268.603 824.138C273.679 825.473 278.755 826.809 283.831 828.145C284.098 812.382 284.365 796.619 284.633 780.857C285.167 749.331 287.037 729.293 290.243 720.744C293.449 712.195 297.189 705.516 301.464 700.707C305.739 695.898 309.746 692.424 313.487 690.287C317.227 688.15 322.303 686.28 328.715 684.677C335.127 683.074 343.142 682.539 352.76 683.074C362.378 683.608 370.126 684.944 376.004 687.081C381.881 689.218 386.957 691.89 391.232 695.096C395.507 698.302 400.583 705.516 406.461 716.737C412.338 727.958 415.544 761.888 416.079 818.527C416.613 875.166 420.353 904.555 427.3 906.692C434.246 908.829 443.33 910.165 454.551 910.7C465.772 911.234 480.199 909.898 497.832 906.692C515.465 903.486 530.159 899.479 541.914 894.67C553.669 889.861 559.547 861.808 559.547 810.512C559.547 759.216 560.349 730.896 561.952 725.553C563.555 720.21 566.493 714.332 570.768 707.92C575.043 701.508 579.317 696.699 583.592 693.493C587.867 690.287 594.012 687.615 602.027 685.478C610.042 683.341 616.988 682.272 622.866 682.272C628.743 682.272 635.155 683.074 642.101 684.677C649.048 686.28 655.193 688.684 660.536 691.89C665.879 695.096 671.757 701.775 678.169 711.928C684.581 722.08 688.321 729.561 689.39 734.37C690.459 739.179 690.993 757.613 690.993 789.673C690.993 805.703 690.993 821.733 690.993 837.763C696.604 836.694 702.214 835.626 707.825 834.557C719.046 832.42 732.938 831.351 749.503 831.351C766.067 831.351 780.227 832.954 791.982 836.16C803.737 839.366 813.088 842.839 820.035 846.58C826.981 850.32 830.988 851.923 832.057 851.389C833.126 850.854 833.66 825.206 833.66 774.445C833.66 723.683 832.859 693.493 831.255 683.875C829.653 674.257 825.378 661.967 818.432 647.006C811.485 632.045 801.867 619.221 789.578 608.534C777.288 597.847 766.868 590.367 758.319 586.092C749.77 581.817 739.885 578.077 728.664 574.871C717.443 571.665 700.611 570.062 678.169 570.062C655.727 570.062 636.224 573.535 619.66 580.482C603.095 587.428 585.729 598.916 567.562 614.946C558.478 622.961 549.395 630.976 540.311 638.991C538.174 635.518 536.036 632.045 533.899 628.572C529.624 621.625 525.083 615.748 520.274 610.939C515.465 606.13 507.984 600.519 497.832 594.107C487.679 587.695 474.855 582.085 459.36 577.276C443.864 572.467 427.032 569.795 408.865 569.261C390.698 568.726 373.332 571.131 356.768 576.474ZM1015.6 575.673C996.899 580.482 980.602 587.161 966.709 595.71C952.816 604.259 939.191 615.748 925.832 630.175C912.474 644.602 901.788 659.296 893.773 674.257C885.758 689.218 879.613 704.714 875.338 720.744C871.063 736.774 868.659 755.209 868.125 776.048C867.59 796.887 869.728 817.726 874.537 838.565C879.346 859.404 885.758 877.304 893.773 892.265C901.788 907.226 912.207 921.653 925.031 935.546C937.855 949.439 947.206 958.522 953.084 962.797C958.961 967.072 967.243 971.881 977.93 977.224C988.617 982.567 1001.17 987.109 1015.6 990.85C1030.03 994.59 1044.99 996.727 1060.48 997.262C1075.98 997.796 1092.54 996.193 1110.18 992.453C1127.81 988.712 1143.04 983.369 1155.86 976.423C1168.69 969.476 1179.11 961.996 1187.12 953.981C1191.13 949.973 1195.14 945.966 1199.14 941.958C1199.41 948.904 1199.68 955.851 1199.95 962.797C1200.48 976.69 1201.28 984.17 1202.35 985.239C1203.42 986.308 1226.66 986.842 1272.08 986.842C1294.79 986.842 1317.5 986.842 1340.21 986.842C1340.48 919.249 1340.74 851.656 1341.01 784.063C1341.28 716.469 1341.54 648.876 1341.81 581.283C1318.3 581.016 1294.79 580.749 1271.28 580.482C1224.26 579.947 1200.21 585.558 1199.14 597.313C1198.61 603.191 1198.08 609.068 1197.54 614.946C1192.46 610.939 1187.39 606.931 1182.31 602.924C1172.16 594.909 1160.67 588.229 1147.85 582.886C1135.02 577.543 1123 573.802 1111.78 571.665C1100.56 569.528 1086.4 568.459 1069.3 568.459C1052.2 568.459 1034.3 570.864 1015.6 575.673ZM1892.44 584.489C1891.91 585.558 1893.78 590.1 1898.05 598.115C1902.33 606.13 1934.12 662.235 1993.43 766.43C2052.74 870.625 2061.29 963.064 2019.08 1043.75C1976.87 1124.43 1953.89 1169.32 1950.15 1178.4C1948.28 1182.94 1946.41 1187.48 1944.54 1192.03C1971.26 1192.29 1997.97 1192.56 2024.69 1192.83C2041.47 1193 2092.09 1193.88 2119.16 1192.52C2180.07 1189.46 2180.97 1048.77 2245.1 926.73C2338.61 748.797 2391.51 647.006 2403.8 621.358C2409.94 608.534 2416.09 595.71 2422.23 582.886C2395.25 582.886 2368.27 582.886 2341.28 582.886C2287.31 582.886 2244.57 616.816 2213.04 684.677C2197.28 718.607 2181.52 752.537 2165.75 786.467C2147.05 752.537 2128.35 718.607 2109.65 684.677C2072.24 616.816 2026.83 582.886 1973.39 582.886C1919.96 582.886 1892.98 583.42 1892.44 584.489ZM1077.32 662.235C1093.35 663.838 1102.16 665.441 1103.77 667.044C1105.37 668.647 1106.7 672.387 1107.77 678.265C1108.84 684.142 1108.57 688.417 1106.97 691.089C1105.37 693.76 1104.83 698.569 1105.37 705.516C1105.9 712.462 1108.04 717.805 1111.78 721.546C1115.52 725.286 1119.8 727.69 1124.6 728.759C1129.41 729.828 1134.22 734.37 1139.03 742.385C1143.84 750.4 1152.39 754.407 1164.68 754.407C1176.97 754.407 1184.18 755.476 1186.32 757.613C1188.46 759.75 1191.93 761.086 1196.74 761.621C1201.55 762.155 1204.75 763.491 1206.36 765.628C1207.96 767.765 1208.49 777.383 1207.96 794.482C1207.43 811.581 1206.09 822.267 1203.95 826.542C1201.82 830.817 1198.08 835.893 1192.73 841.771C1187.39 847.648 1182.31 855.129 1177.5 864.213C1172.69 873.296 1168.42 879.174 1164.68 881.846C1160.94 884.517 1155.06 886.922 1147.05 889.059C1139.03 891.196 1131.28 894.402 1123.8 898.677C1116.32 902.952 1107.77 905.089 1098.16 905.089C1088.54 905.089 1073.58 902.685 1053.27 897.876C1032.97 893.067 1018.54 886.387 1009.99 877.838C1001.44 869.289 994.762 863.678 989.953 861.007C985.144 858.335 981.403 855.129 978.732 851.389C976.06 847.648 974.457 840.435 973.923 829.748C973.388 819.061 971.251 809.176 967.511 800.093C963.77 791.009 962.434 780.857 963.503 769.636C964.572 758.415 967.511 749.331 972.32 742.385C977.129 735.438 980.869 727.156 983.541 717.538C986.212 707.92 998.502 695.898 1020.41 681.471C1042.32 667.044 1061.29 660.632 1077.32 662.235ZM1115.79 663.036C1116.32 663.036 1116.86 663.036 1117.39 663.036C1118.46 663.036 1119.26 664.105 1119.8 666.242C1120.06 667.311 1120.33 668.379 1120.6 669.448C1119.8 669.181 1118.99 668.914 1118.19 668.647C1116.59 668.112 1115.79 667.044 1115.79 665.441C1115.79 664.639 1115.79 663.838 1115.79 663.036ZM1072.51 677.463C1070.37 680.669 1069.57 683.608 1070.1 686.28C1070.64 688.951 1071.97 691.356 1074.11 693.493C1076.25 695.63 1079.99 696.966 1085.33 697.501C1090.67 698.035 1093.88 697.768 1094.95 696.699C1096.02 695.63 1096.28 692.692 1095.75 687.883C1095.22 683.074 1093.35 679.333 1090.14 676.662C1086.93 673.99 1083.73 672.654 1080.52 672.654C1077.32 672.654 1074.64 674.257 1072.51 677.463ZM1641.57 691.089C1652.26 692.692 1662.68 696.432 1672.83 702.31C1682.98 708.187 1691.53 715.401 1698.48 723.95C1705.42 732.499 1710.5 742.385 1713.71 753.606C1716.91 764.827 1717.98 777.383 1716.91 791.276C1715.84 805.169 1712.37 817.726 1706.49 828.947C1700.62 840.168 1695.01 848.183 1689.66 852.992C1684.32 857.801 1678.71 861.808 1672.83 865.014C1666.95 868.22 1658.4 870.892 1647.18 873.029C1635.96 875.166 1625.01 875.701 1614.32 874.632C1603.63 873.563 1593.48 870.892 1583.86 866.617C1574.25 862.342 1565.7 856.198 1558.22 848.183C1550.74 840.168 1544.86 829.748 1540.58 816.924C1536.31 804.1 1534.44 791.009 1534.97 777.651C1535.51 764.292 1538.45 752.003 1543.79 740.782C1549.13 729.561 1554.48 721.278 1559.82 715.935C1565.16 710.592 1571.04 706.05 1577.45 702.31C1583.86 698.569 1593.48 695.363 1606.31 692.692C1619.13 690.02 1630.89 689.486 1641.57 691.089ZM1011.59 715.134C1008.39 716.737 1005.98 719.408 1004.38 723.149C1002.78 726.889 1002.24 730.362 1002.78 733.568C1003.31 736.774 1004.91 739.179 1007.59 740.782C1010.26 742.385 1014 742.919 1018.81 742.385C1023.62 741.85 1027.62 739.446 1030.83 735.171C1034.04 730.896 1035.1 726.889 1034.04 723.149C1032.97 719.408 1029.76 716.737 1024.42 715.134C1019.07 713.531 1014.8 713.531 1011.59 715.134ZM1100.56 724.752C1097.89 727.423 1096.55 731.164 1096.55 735.973C1096.55 740.782 1097.62 744.789 1099.76 747.995C1101.9 751.201 1105.64 753.071 1110.98 753.606C1116.32 754.14 1120.33 753.071 1123 750.4C1125.67 747.728 1127.01 744.789 1127.01 741.583C1127.01 738.377 1125.14 735.973 1121.4 734.37C1117.66 732.767 1115.52 730.896 1114.99 728.759C1114.45 726.622 1112.58 724.752 1109.38 723.149C1106.17 721.546 1103.23 722.08 1100.56 724.752ZM1202.35 733.568C1202.88 733.835 1203.42 734.102 1203.95 734.37C1204.49 734.637 1205.02 734.904 1205.56 735.171C1204.75 735.438 1203.95 735.705 1203.15 735.973C1202.35 736.24 1201.55 736.507 1200.75 736.774C1201.01 736.24 1201.28 735.705 1201.55 735.171C1201.82 734.637 1202.08 734.102 1202.35 733.568ZM1181.51 741.583C1182.85 741.583 1184.18 741.583 1185.52 741.583C1188.19 741.583 1189.79 742.117 1190.33 743.186C1190.59 743.72 1190.86 744.255 1191.13 744.789C1189.53 745.056 1187.92 745.323 1186.32 745.591C1184.72 745.858 1183.11 746.125 1181.51 746.392C1181.51 745.591 1181.51 744.789 1181.51 743.988C1181.51 743.186 1181.51 742.385 1181.51 741.583ZM1219.98 756.01C1221.05 756.812 1222.12 757.613 1223.19 758.415C1225.33 760.018 1226.13 762.155 1225.59 764.827C1225.06 767.498 1223.99 768.834 1222.39 768.834C1221.59 768.834 1220.78 768.834 1219.98 768.834C1219.98 766.697 1219.98 764.559 1219.98 762.422C1219.98 760.285 1219.98 758.147 1219.98 756.01ZM1058.88 763.224C1054.07 764.827 1050.87 767.765 1049.26 772.04C1047.66 776.315 1048.73 780.055 1052.47 783.261C1056.21 786.467 1060.22 788.337 1064.49 788.872C1068.77 789.406 1072.51 788.604 1075.71 786.467C1078.92 784.33 1080.79 780.857 1081.32 776.048C1081.86 771.239 1081.32 767.765 1079.72 765.628C1078.12 763.491 1075.45 762.155 1071.71 761.621C1067.97 761.086 1063.69 761.621 1058.88 763.224ZM1167.89 780.857C1164.15 783.528 1162.54 786.734 1163.08 790.475C1163.61 794.215 1165.48 797.421 1168.69 800.093C1171.89 802.764 1176.17 803.833 1181.51 803.299C1186.85 802.764 1190.59 801.161 1192.73 798.49C1194.87 795.818 1195.94 792.879 1195.94 789.673C1195.94 786.467 1194.87 783.795 1192.73 781.658C1190.59 779.521 1186.85 778.185 1181.51 777.651C1176.17 777.116 1171.63 778.185 1167.89 780.857ZM1118.99 794.482C1115.79 797.688 1111.51 800.093 1106.17 801.696C1100.83 803.299 1098.42 805.97 1098.96 809.711C1099.49 813.451 1101.36 816.657 1104.57 819.329C1107.77 822 1112.05 823.336 1117.39 823.336C1122.73 823.336 1127.28 821.466 1131.02 817.726C1134.76 813.985 1136.63 809.711 1136.63 804.902C1136.63 800.093 1134.49 796.352 1130.22 793.681C1125.94 791.009 1122.2 791.276 1118.99 794.482ZM996.365 800.093C993.693 802.764 992.357 806.237 992.357 810.512C992.357 814.787 993.693 817.993 996.365 820.13C999.036 822.267 1004.11 823.336 1011.59 823.336C1019.07 823.336 1023.35 822.802 1024.42 821.733C1025.49 820.664 1025.49 817.191 1024.42 811.314C1023.35 805.436 1021.48 801.428 1018.81 799.291C1016.13 797.154 1012.39 796.085 1007.59 796.085C1002.78 796.085 999.036 797.421 996.365 800.093ZM1050.87 840.168C1047.13 842.839 1044.99 846.312 1044.45 850.587C1043.92 854.862 1044.45 857.801 1046.06 859.404C1047.66 861.007 1050.33 861.808 1054.07 861.808C1057.81 861.808 1061.29 862.877 1064.49 865.014C1066.1 866.083 1067.7 867.151 1069.3 868.22C1070.37 866.617 1071.44 865.014 1072.51 863.411C1074.64 860.205 1075.45 855.93 1074.91 850.587C1074.38 845.244 1072.77 841.503 1070.1 839.366C1067.43 837.229 1064.49 836.16 1061.29 836.16C1058.08 836.16 1054.61 837.496 1050.87 840.168ZM1130.22 853.793C1125.94 858.068 1123.8 861.541 1123.8 864.213C1123.8 866.884 1124.87 869.289 1127.01 871.426C1129.15 873.563 1132.09 874.365 1135.83 873.831C1139.57 873.296 1143.31 869.823 1147.05 863.411C1150.79 856.999 1152.12 852.724 1151.05 850.587C1149.99 848.45 1147.31 847.381 1143.04 847.381C1138.76 847.381 1134.49 849.518 1130.22 853.793ZM198.071 863.411C194.33 865.548 191.391 868.22 189.254 871.426C187.117 874.632 186.048 879.975 186.048 887.456C186.048 894.937 188.72 901.349 194.063 906.692C199.406 912.035 205.551 914.707 212.498 914.707C219.444 914.707 225.589 912.303 230.932 907.494C236.275 902.685 238.947 896.273 238.947 888.258C238.947 880.243 237.611 874.365 234.94 870.625C232.268 866.884 229.329 864.213 226.123 862.61C222.917 861.007 218.375 860.205 212.498 860.205C206.62 860.205 201.811 861.274 198.071 863.411ZM738.282 867.419C732.404 872.228 729.465 878.907 729.465 887.456C729.465 896.005 732.137 902.685 737.48 907.494C742.823 912.303 748.968 914.707 755.915 914.707C762.861 914.707 769.006 912.035 774.349 906.692C779.692 901.349 782.364 895.204 782.364 888.258C782.364 881.311 779.96 875.166 775.151 869.823C770.342 864.48 764.464 861.541 757.518 861.007C750.571 860.472 744.159 862.61 738.282 867.419ZM286.236 945.966C276.083 963.599 271.274 973.217 271.809 974.82C272.343 976.423 273.946 977.491 276.618 978.026C279.289 978.56 281.961 980.163 284.633 982.835C287.304 985.506 290.777 986.842 295.052 986.842C299.327 986.842 303.334 984.705 307.075 980.43C310.815 976.155 312.685 972.415 312.685 969.209C312.685 966.003 311.884 963.064 310.281 960.393C308.678 957.721 305.739 955.584 301.464 953.981C299.327 953.179 297.189 952.378 295.052 951.576C297.457 947.569 299.861 943.561 302.266 939.554C307.075 931.539 309.479 926.73 309.479 925.127C309.479 923.524 308.143 922.188 305.472 921.119C302.8 920.05 296.388 928.333 286.236 945.966ZM668.551 951.576C665.345 953.713 663.208 957.721 662.139 963.599C661.07 969.476 662.406 974.285 666.147 978.026C669.887 981.766 673.894 983.636 678.169 983.636C682.444 983.636 685.917 982.835 688.589 981.232C691.26 979.629 692.863 977.224 693.398 974.018C693.932 970.812 692.863 968.942 690.192 968.408C687.52 967.873 685.917 968.408 685.383 970.011C684.848 971.614 683.512 972.415 681.375 972.415C680.306 972.415 679.238 972.415 678.169 972.415C680.306 970.278 682.444 968.14 684.581 966.003C688.856 961.728 690.993 958.79 690.993 957.187C690.993 955.584 688.054 953.713 682.177 951.576C676.299 949.439 671.757 949.439 668.551 951.576ZM380.011 989.247C377.339 999.666 374.668 1010.09 371.996 1020.51C373.599 1020.77 375.202 1021.04 376.805 1021.31C380.011 1021.84 382.416 1020.51 384.019 1017.3C384.82 1015.7 385.622 1014.09 386.423 1012.49C387.225 1014.63 388.026 1016.76 388.828 1018.9C390.431 1023.18 393.102 1025.58 396.843 1026.12C398.713 1026.38 400.583 1026.65 402.453 1026.92C401.384 1023.44 400.316 1019.97 399.247 1016.5C397.11 1009.55 397.911 1004.74 401.652 1002.07C405.392 999.399 406.728 997.262 405.659 995.659C404.59 994.056 403.255 993.254 401.652 993.254C400.049 993.254 397.377 994.323 393.637 996.46C391.766 997.529 389.896 998.597 388.026 999.666C389.362 994.323 390.698 988.979 392.034 983.636C394.705 972.949 396.041 966.27 396.041 963.599C396.041 960.927 394.705 959.324 392.034 958.79C389.362 958.255 385.354 968.408 380.011 989.247ZM673.36 959.591C673.894 959.858 674.429 960.125 674.963 960.393C675.497 960.66 676.032 960.927 676.566 961.194C675.497 961.996 674.429 962.797 673.36 963.599C672.291 964.4 671.223 965.202 670.154 966.003C670.688 964.934 671.223 963.866 671.757 962.797C672.291 961.728 672.826 960.66 673.36 959.591ZM296.655 962.797C299.861 963.866 300.93 966.537 299.861 970.812C299.327 972.949 298.792 975.087 298.258 977.224C296.388 976.69 294.518 976.155 292.648 975.621C288.907 974.552 287.037 972.415 287.037 969.209C287.037 966.003 287.839 963.866 289.442 962.797C291.045 961.728 293.449 961.728 296.655 962.797ZM628.476 972.415C626.339 974.552 625.27 977.224 625.27 980.43C625.27 983.636 625.804 986.041 626.873 987.644C627.942 989.247 630.881 990.315 635.69 990.85C638.094 991.117 640.499 991.384 642.903 991.651C641.3 992.453 639.697 993.254 638.094 994.056C634.888 995.659 633.285 997.529 633.285 999.666C633.285 1000.73 633.285 1001.8 633.285 1002.87C635.69 1002.87 638.094 1002.87 640.499 1002.87C645.308 1002.87 648.514 1002.07 650.117 1000.47C651.72 998.865 652.521 996.193 652.521 992.453C652.521 988.712 651.72 986.041 650.117 984.438C648.514 982.835 645.842 982.033 642.101 982.033C640.231 982.033 638.361 982.033 636.491 982.033C636.491 981.499 636.491 980.964 636.491 980.43C636.491 979.361 637.56 978.56 639.697 978.026C641.834 977.491 642.903 975.888 642.903 973.217C642.903 971.881 642.903 970.545 642.903 969.209C641.033 969.209 639.163 969.209 637.293 969.209C633.552 969.209 630.613 970.278 628.476 972.415ZM474.588 971.614C473.519 972.148 472.985 982.835 472.985 1003.67C472.985 1014.09 472.985 1024.51 472.985 1034.93C474.855 1034.93 476.725 1034.93 478.596 1034.93C480.466 1034.93 482.336 1034.93 484.206 1034.93C484.206 1031.73 484.206 1028.52 484.206 1025.31C484.206 1018.9 485.809 1014.89 489.015 1013.29C492.221 1011.69 494.358 1011.42 495.427 1012.49C496.496 1013.56 497.03 1017.57 497.03 1024.51C497.03 1031.46 498.366 1035.2 501.038 1035.73C502.373 1036 503.709 1036.27 505.045 1036.54C505.312 1031.73 505.579 1026.92 505.847 1022.11C506.381 1012.49 505.579 1006.61 503.442 1004.48C501.305 1002.34 498.633 1001.27 495.427 1001.27C492.221 1001.27 489.282 1002.07 486.611 1003.67C485.275 1004.48 483.939 1005.28 482.603 1006.08C482.603 1000.47 482.603 994.857 482.603 989.247C482.603 978.026 481.534 972.148 479.397 971.614C477.26 971.079 475.657 971.079 474.588 971.614ZM331.12 978.026C327.379 980.697 325.242 984.705 324.708 990.048C324.173 995.391 325.242 999.666 327.914 1002.87C330.585 1006.08 334.058 1007.95 338.333 1008.48C342.608 1009.02 344.745 1009.82 344.745 1010.89C344.745 1011.96 345.814 1012.76 347.951 1013.29C350.088 1013.83 353.294 1009.02 357.569 998.865C361.844 988.712 361.042 982.033 355.165 978.827C349.287 975.621 344.745 974.018 341.539 974.018C338.333 974.018 334.86 975.354 331.12 978.026ZM598.821 983.636C597.218 984.705 596.95 987.109 598.019 990.85C599.088 994.59 599.622 998.33 599.622 1002.07C599.622 1005.81 599.088 1008.22 598.019 1009.28C596.95 1010.35 595.08 1010.62 592.409 1010.09C589.737 1009.55 587.332 1006.08 585.195 999.666C583.058 993.254 580.653 990.315 577.982 990.85C576.646 991.117 575.31 991.384 573.974 991.651C574.776 995.659 575.577 999.666 576.379 1003.67C577.982 1011.69 579.852 1016.76 581.989 1018.9C584.126 1021.04 586.798 1022.11 590.004 1022.11C593.21 1022.11 596.149 1020.77 598.821 1018.1C600.156 1016.76 601.492 1015.43 602.828 1014.09C603.095 1014.63 603.362 1015.16 603.63 1015.7C604.164 1016.76 606.034 1017.03 609.24 1016.5C610.843 1016.23 612.446 1015.96 614.049 1015.7C612.98 1010.89 611.912 1006.08 610.843 1001.27C608.706 991.651 606.568 986.041 604.431 984.438C602.294 982.835 600.424 982.567 598.821 983.636ZM344.745 986.041C347.951 987.644 349.554 989.514 349.554 991.651C349.554 993.788 348.753 995.659 347.15 997.262C345.547 998.865 343.676 999.666 341.539 999.666C339.402 999.666 337.532 998.865 335.929 997.262C334.326 995.659 333.524 993.788 333.524 991.651C333.524 989.514 334.593 987.644 336.73 986.041C338.867 984.438 341.539 984.438 344.745 986.041ZM533.098 1000.47C528.289 1003.14 525.617 1007.41 525.083 1013.29C524.548 1019.17 525.35 1023.44 527.487 1026.12C529.624 1028.79 532.83 1030.66 537.105 1031.73C541.38 1032.79 545.922 1031.99 550.731 1029.32C555.54 1026.65 558.211 1022.38 558.745 1016.5C559.28 1010.62 558.478 1006.35 556.341 1003.67C554.204 1001 550.998 999.132 546.723 998.063C542.448 996.994 537.907 997.796 533.098 1000.47ZM430.506 1002.07C425.697 1004.74 423.025 1009.02 422.491 1014.89C421.956 1020.77 422.758 1025.05 424.895 1027.72C427.032 1030.39 430.506 1032.26 435.315 1033.33C440.124 1034.4 443.597 1034.4 445.734 1033.33C447.871 1032.26 448.94 1030.92 448.94 1029.32C448.94 1027.72 446.536 1026.12 441.727 1024.51C439.322 1023.71 436.918 1022.91 434.513 1022.11C437.452 1021.57 440.391 1021.04 443.33 1020.51C449.207 1019.44 452.68 1017.83 453.749 1015.7C454.818 1013.56 454.551 1010.89 452.948 1007.68C451.345 1004.48 448.406 1002.07 444.131 1000.47C439.856 998.865 435.315 999.399 430.506 1002.07ZM543.517 1008.48C546.723 1009.02 548.593 1010.62 549.128 1013.29C549.662 1015.96 549.395 1018.1 548.326 1019.7C547.257 1021.31 544.586 1021.57 540.311 1020.51C536.036 1019.44 533.899 1017.57 533.899 1014.89C533.899 1012.22 534.701 1010.35 536.304 1009.28C537.907 1008.22 540.311 1007.95 543.517 1008.48ZM437.719 1010.09C438.788 1010.35 439.856 1010.62 440.925 1010.89C439.589 1011.15 438.253 1011.42 436.918 1011.69C435.582 1011.96 434.246 1012.22 432.91 1012.49C433.177 1011.96 433.444 1011.42 433.712 1010.89C434.246 1009.82 435.582 1009.55 437.719 1010.09Z" fill="#ffffff" fill-rule="nonzero" opacity="1" stroke="none" vectornator:layerName="Curve 1"/>
</g>
</svg>
