<?xml version="1.0" encoding="UTF-8" standalone="no"?>
<!DOCTYPE svg PUBLIC "-//W3C//DTD SVG 1.1//EN" "http://www.w3.org/Graphics/SVG/1.1/DTD/svg11.dtd">
<!-- Created with Vectornator (http://vectornator.io/) -->
<svg height="100%" stroke-miterlimit="10" style="fill-rule:nonzero;clip-rule:evenodd;stroke-linecap:round;stroke-linejoin:round;" version="1.1" viewBox="0 0 3370.82 2384.24" width="100%" xml:space="preserve" xmlns="http://www.w3.org/2000/svg" xmlns:vectornator="http://vectornator.io" xmlns:xlink="http://www.w3.org/1999/xlink">
<defs/>
<g id="Layer-1" vectornator:layerName="Layer 1">
<g opacity="1" vectornator:layerName="Croissant">
<path d="M1926.22 978.335C1921.82 874.584 1910.5 774.606 1887.24 673.371C1849.51 507.37 1809.27 332.566 1728.78 181.027C1696.09 118.776 1661.5 67.8441 1583.53 71.6169C1513.74 75.3897 1448.34 101.799 1383.58 125.693C1309.38 152.731 1232.67 169.08 1159.73 199.262C1083.64 230.701 1012.59 271.573 947.823 321.876C883.057 372.179 823.951 429.399 762.329 483.476C706.995 531.264 643.487 588.484 634.684 664.568C634.684 667.083 634.056 668.969 633.427 671.484C646.003 684.689 649.147 707.954 635.942 722.417C639.715 734.364 644.116 746.311 649.775 757C667.381 793.47 690.018 827.425 712.026 860.751C760.443 932.433 812.004 1002.86 867.337 1069.51C1003.79 1234.88 1184.88 1444.27 1408.73 1516.58C1420.05 1514.07 1432.62 1516.58 1440.8 1526.01C1457.14 1530.41 1466.58 1544.88 1468.46 1559.34C1508.08 1550.54 1546.43 1538.59 1586.05 1528.53C1667.16 1507.15 1752.68 1487.03 1815.56 1426.03C1865.23 1377.62 1893.53 1307.19 1950.12 1265.69C1931.88 1171.37 1930 1074.54 1926.22 978.335ZM999.384 621.181C999.384 616.779 999.384 611.749 1000.64 607.348C1003.79 597.916 1003.79 596.658 1010.07 588.484C1014.47 582.196 1022.02 577.794 1028.94 575.279C1036.48 572.135 1044.66 571.506 1052.83 571.506C1062.89 571.506 1071.69 573.393 1079.87 580.31C1086.79 586.597 1091.19 595.401 1092.44 604.832C1093.07 614.264 1089.93 624.325 1083.64 631.87C1078.61 638.158 1069.81 643.189 1061.63 643.818C1055.35 649.477 1047.8 653.249 1039.63 653.878C1030.19 654.507 1020.13 651.363 1012.59 645.075C1005.04 640.045 998.755 629.984 999.384 621.181ZM1080.5 763.917C1079.24 765.174 1077.35 766.432 1075.47 767.69C1072.95 768.947 1069.81 770.205 1067.29 772.091C1065.41 773.349 1063.52 773.977 1061.01 774.606C1054.72 776.493 1047.8 777.75 1041.51 775.864C1031.45 772.72 1024.54 768.947 1018.25 760.144C1008.82 748.197 1010.07 726.189 1021.39 714.871C1024.54 711.727 1027.68 709.212 1031.45 706.697C1037.74 702.924 1044.66 699.151 1051.57 696.007C1057.86 692.863 1065.41 690.977 1072.32 690.348C1092.44 689.719 1110.05 703.553 1111.31 723.674C1113.19 743.167 1099.36 761.402 1080.5 763.917ZM1230.15 476.559C1223.23 470.9 1217.57 460.839 1217.57 452.036L1217.57 433.801C1217.57 423.74 1219.46 414.937 1226.38 406.763C1232.67 399.846 1241.47 395.445 1250.9 394.187C1260.33 393.558 1270.39 396.702 1277.94 402.99C1284.86 408.649 1290.51 418.71 1290.51 427.513L1290.51 445.748C1290.51 455.809 1288.63 464.612 1281.71 472.786C1275.42 479.703 1266.62 484.104 1257.19 485.362C1247.13 486.62 1237.7 483.476 1230.15 476.559ZM1306.86 942.494C1260.33 942.494 1254.04 869.554 1301.2 869.554C1347.73 870.183 1353.39 942.494 1306.86 942.494ZM1390.49 741.909C1384.83 748.826 1374.77 754.485 1365.97 754.485L1355.91 754.485C1345.85 754.485 1337.04 752.599 1328.87 745.682C1321.95 739.394 1317.55 730.591 1316.29 721.159C1315.67 711.727 1318.81 701.666 1325.1 694.121C1330.76 687.204 1340.82 681.545 1349.62 681.545L1359.68 681.545C1369.74 681.545 1378.55 683.431 1386.72 690.348C1393.64 696.636 1398.04 705.439 1399.3 714.871C1400.55 724.303 1397.41 734.364 1390.49 741.909ZM1455.26 455.809C1408.73 455.809 1402.44 382.869 1449.6 382.869C1496.76 383.498 1502.42 455.809 1455.26 455.809ZM1688.54 741.909C1682.88 748.197 1672.82 754.485 1664.02 754.485C1653.96 753.856 1650.81 753.856 1641.38 750.083C1637.61 748.826 1633.21 745.053 1630.69 743.167C1630.06 742.538 1630.06 742.538 1629.43 741.909C1625.03 740.651 1621.26 738.765 1617.49 734.992C1610.57 728.704 1606.17 719.901 1604.91 710.469C1604.28 701.038 1607.43 690.977 1613.71 683.431C1619.37 677.143 1629.43 670.856 1638.24 670.856C1648.3 671.484 1651.44 671.484 1660.87 675.257C1664.65 676.515 1669.05 680.287 1671.56 682.174C1672.19 682.803 1672.19 682.803 1672.82 683.431C1677.22 684.689 1680.99 686.575 1684.77 690.348C1691.68 696.636 1696.09 705.439 1697.34 714.871C1698.6 724.303 1694.83 734.364 1688.54 741.909ZM2387.13 618.666C2385.24 525.605 2390.27 432.543 2384.61 339.482C2380.84 283.52 2385.87 206.178 2329.91 174.11C2278.35 145.186 2217.98 135.125 2159.5 131.352C2106.69 127.579 2051.98 128.837 1999.79 140.155C1962.69 148.33 1924.34 157.761 1889.75 174.11C1879.69 179.14 1871.52 184.171 1863.97 191.087C1860.83 204.292 1850.77 215.61 1832.53 216.868C1832.53 216.868 1833.16 216.868 1833.16 216.239C1830.65 217.497 1828.76 218.125 1826.24 218.754C1888.5 362.119 1925.59 515.544 1959.55 667.083C1982.19 768.318 1994.13 868.296 1998.53 972.047C2000.42 1022.98 2002.31 1074.54 2005.45 1125.47C2043.18 1121.7 2080.91 1116.67 2118.63 1110.38C2177.74 1100.95 2226.16 1093.4 2266.4 1050.02C2319.22 994.055 2354.43 922.372 2372.67 848.175C2391.53 770.833 2388.38 697.894 2387.13 618.666ZM1170.41 1941.02C1151.55 1961.14 1128.91 1978.11 1103.13 1990.69C1035.85 2024.02 964.8 2047.91 890.603 2058.6C832.754 2066.77 774.276 2069.29 715.798 2074.95C716.427 2076.21 717.685 2076.83 718.314 2078.09C765.473 2147.89 832.754 2207.62 911.982 2237.18C928.33 2243.46 945.936 2251.01 958.512 2246.61C972.974 2240.95 988.065 2236.55 1003.16 2232.15C1030.19 2225.23 1057.86 2220.2 1084.9 2212.65C1144.63 2196.3 1199.34 2163.61 1211.29 2096.96C1220.72 2046.02 1211.92 1976.86 1170.41 1941.02ZM1024.54 1348.69C944.05 1268.84 866.08 1184.58 795.026 1095.92C732.776 1018.58 671.783 938.092 620.222 852.576C613.305 841.258 601.987 823.652 591.298 803.531C588.154 803.531 585.639 803.531 582.495 802.902C580.608 802.273 580.608 802.273 580.608 802.273C580.608 802.273 580.608 802.902 578.093 804.159C580.608 802.902 569.919 809.819 568.032 811.076C554.199 824.281 541.623 839.372 530.934 855.092C503.896 894.077 482.517 937.463 463.024 980.85C424.668 1065.11 396.372 1145.59 375.622 1236.14C366.819 1273.87 357.387 1316 364.933 1354.98C371.22 1388.31 399.516 1405.28 427.812 1419.12C471.198 1439.87 513.327 1461.88 555.457 1485.14C642.23 1532.93 728.374 1582.6 818.292 1624.73C904.436 1664.98 1005.67 1712.76 1103.13 1709.62C1137.09 1708.36 1171.67 1702.07 1193.68 1676.92C1222.6 1644.23 1228.89 1597.07 1229.52 1554.31C1229.52 1539.22 1237.7 1527.9 1247.76 1522.24C1164.76 1475.71 1091.82 1414.72 1024.54 1348.69ZM1431.36 2198.19C1396.15 2156.69 1328.24 2144.74 1276.68 2144.11C1275.42 2144.11 1274.17 2144.11 1272.91 2144.11C1256.56 2186.87 1227.01 2223.34 1188.65 2247.87C1262.85 2268.62 1333.9 2321.43 1411.24 2309.49C1459.03 2301.94 1455.26 2226.49 1431.36 2198.19ZM1137.72 1780.04C1132.69 1780.67 1127.66 1781.3 1122 1781.93C1001.27 1790.11 878.027 1735.4 771.761 1684.47C683.73 1642.34 599.472 1592.66 513.956 1546.76C475.6 1526.01 435.357 1507.78 396.372 1487.03C398.259 1610.27 413.978 1727.85 453.592 1845.44C468.054 1888.2 480.63 1934.1 503.267 1973.71C513.956 1992.58 526.532 2011.44 544.767 2024.02C564.26 2037.22 577.464 2025.27 604.502 2018.99C735.291 1990.06 878.027 2008.3 1003.79 1954.85C1047.8 1935.98 1096.22 1921.52 1125.77 1881.28C1136.46 1866.82 1146.52 1850.47 1151.55 1833.49C1154.07 1824.06 1157.21 1814.63 1157.84 1805.2C1157.84 1804.57 1157.84 1803.31 1158.47 1803.31C1145.89 1798.28 1139.6 1789.48 1137.72 1780.04ZM1542.66 2197.56C1542.03 2195.68 1540.14 2188.76 1539.52 2187.5C1538.26 2184.99 1537.63 2181.84 1536.37 2179.33C1535.74 2178.7 1531.34 2171.15 1530.71 2169.27C1529.46 2168.01 1528.83 2166.75 1527.57 2164.87C1526.94 2164.24 1526.31 2163.61 1525.68 2162.98C1523.8 2161.09 1521.91 2159.83 1520.02 2158.58C1520.02 2158.58 1520.02 2158.58 1519.39 2158.58C1516.88 2157.32 1511.22 2155.43 1511.85 2155.43C1511.22 2155.43 1510.59 2155.43 1509.96 2154.8L1509.96 2154.8C1508.71 2154.8 1507.45 2154.8 1506.19 2154.8C1504.93 2155.43 1502.42 2156.06 1501.16 2156.06C1499.27 2156.69 1496.76 2158.58 1493.61 2160.46C1502.42 2173.67 1509.33 2188.76 1514.36 2204.48C1523.17 2200.08 1533.23 2199.45 1543.29 2201.96C1543.29 2201.34 1543.29 2199.45 1542.66 2197.56ZM2998.31 989.653C2995.17 983.365 2990.14 972.676 2983.85 968.274C2980.08 972.676 2976.93 977.077 2975.05 982.108C2964.36 1001.6 2943.61 1004.74 2927.26 997.827C2900.85 1031.15 2870.67 1060.08 2834.2 1080.83C2848.03 1083.34 2859.98 1093.4 2859.35 1112.9C2858.09 1153.14 2838.6 1204.7 2857.46 1242.43C2878.84 1286.44 2932.29 1236.14 2951.15 1213.5C2985.74 1171.37 3002.71 1116.67 3007.12 1062.59C3009 1038.07 3009 1012.29 2998.31 989.653ZM2836.08 1321.66C2822.88 1312.85 2810.93 1301.53 2801.5 1288.33C2787.04 1304.68 2776.98 1322.28 2780.12 1346.81C2781.38 1348.69 2783.27 1350.58 2784.52 1353.09C2787.67 1358.75 2785.15 1360.01 2790.81 1358.13C2800.87 1354.98 2809.68 1350.58 2818.48 1344.29C2826.02 1338.63 2833.57 1332.34 2841.12 1324.8C2838.6 1323.54 2837.34 1322.91 2836.08 1321.66ZM2750.57 562.075C2751.83 511.142 2732.96 468.385 2700.27 429.399C2639.27 357.717 2547.47 302.384 2453.78 288.55C2461.32 355.831 2460.7 424.369 2460.07 492.279C2459.44 576.537 2467.61 661.424 2462.58 745.053C2458.18 816.107 2442.46 888.418 2414.17 954.441C2453.15 978.964 2497.17 1017.32 2546.84 1008.52C2580.17 1002.86 2601.55 968.274 2615.38 940.607C2651.85 868.296 2675.74 788.44 2707.81 714.242C2717.87 690.348 2728.56 664.568 2737.36 638.787C2736.11 631.242 2737.99 623.067 2743.65 616.779C2746.8 597.916 2749.94 579.681 2750.57 562.075ZM2939.84 796.614C2936.06 773.349 2922.23 751.97 2907.77 734.364C2889.53 711.098 2840.49 657.022 2802.76 665.196C2795.21 689.719 2786.41 713.613 2776.35 736.879C2756.23 783.409 2736.11 829.311 2719.13 877.099C2702.78 923.63 2685.17 971.418 2656.25 1012.29C2654.99 1014.18 2653.74 1016.06 2651.85 1017.95C2695.86 1049.39 2753.71 1044.36 2800.87 1016.06C2849.92 985.88 2886.39 935.577 2914.05 885.902C2927.89 860.122 2944.87 827.425 2939.84 796.614Z" fill="#f6851f" fill-rule="nonzero" opacity="1" stroke="none" vectornator:layerName="path"/>
<path d="M3072.51 979.592C3063.08 946.895 3040.44 912.94 3009 899.107C3002.71 896.592 2997.06 894.705 2991.4 894.077C3029.12 814.22 3009.63 739.394 2951.78 674C2917.2 635.014 2869.41 599.802 2819.11 595.401C2820.99 582.825 2822.88 569.62 2823.51 556.415C2826.65 497.309 2801.5 441.975 2766.92 396.074C2695.24 301.755 2571.99 227.557 2453.78 215.61C2450.01 214.981 2446.23 215.61 2442.46 216.239C2415.42 95.511 2272.06 67.2154 2166.42 60.2986C2108.57 56.5259 2050.09 57.1547 1993.5 69.1017C1955.78 76.6472 1919.31 86.0791 1883.46 99.9125C1867.12 106.2 1850.77 114.375 1835.68 123.178C1828.76 126.951 1822.47 131.981 1816.18 137.011C1811.78 140.784 1808.01 144.557 1803.61 148.33C1801.09 150.845 1799.84 152.731 1799.21 154.617C1798.58 155.246 1797.95 155.875 1797.95 155.875C1769.02 97.3974 1735.07 39.5485 1672.19 14.3968C1608.05-11.3836 1537 1.821 1473.49 20.056C1405.58 38.9197 1340.82 67.8441 1272.28 86.0791C1191.79 107.458 1114.45 138.269 1040.88 177.254C933.36 233.845 850.989 316.846 758.556 394.187C678.071 461.468 577.464 540.067 564.26 651.992C563.002 663.939 566.775 674 573.063 680.916C561.744 694.75 560.487 712.985 564.26 733.106C532.82 741.28 507.04 767.69 487.547 792.841C449.191 839.372 421.524 894.705 396.372 948.782C346.069 1057.56 300.796 1180.18 290.106 1299.65C285.076 1357.5 297.652 1404.66 332.235 1441.13C327.205 1447.41 323.432 1455.59 324.061 1465.65C324.061 1546.13 328.463 1626.62 341.667 1705.85C353.614 1775.01 374.993 1840.41 397.63 1906.43C415.865 1959.88 436.615 2016.47 475.6 2058.6C492.577 2076.83 512.07 2091.3 535.964 2099.47C573.063 2112.05 617.078 2089.41 654.806 2083.12C655.434 2083.12 655.434 2083.12 656.063 2083.12C650.404 2093.18 649.775 2106.39 658.578 2118.96C717.056 2204.48 800.685 2276.16 899.406 2309.49C917.641 2315.78 949.08 2330.24 968.573 2321.43C988.065 2313.26 1007.56 2306.34 1028.31 2301.31C1049.06 2295.65 1070.44 2291.25 1091.19 2286.22C1094.33 2301.94 1107.54 2315.78 1128.29 2313.89C1143.38 2312.63 1170.41 2320.81 1189.91 2327.72C1224.49 2339.67 1259.07 2352.87 1293.66 2364.19C1353.39 2383.68 1430.73 2401.29 1482.3 2354.13C1504.93 2333.38 1516.88 2303.83 1520.65 2272.39C1554.61 2283.71 1588.56 2279.31 1608.05 2245.98C1623.15 2220.2 1616.86 2183.73 1606.17 2157.95C1592.33 2125.25 1567.81 2098.21 1533.23 2086.89C1498.64 2076.21 1465.32 2091.3 1438.91 2112.68C1409.98 2095.7 1376.03 2085.01 1342.08 2078.72C1336.42 2074.95 1329.5 2072.43 1320.7 2072.43L1287.37 2072.43C1290.51 2001.38 1265.36 1927.18 1210.03 1881.91C1211.29 1878.76 1213.17 1874.99 1214.43 1871.85C1228.26 1837.89 1240.21 1783.19 1213.17 1753.64C1226.38 1745.46 1238.32 1735.4 1249.01 1722.82C1275.42 1693.27 1288.63 1654.91 1294.29 1615.93C1335.79 1686.35 1529.46 1620.33 1582.27 1605.24C1661.5 1583.23 1738.21 1565.63 1809.27 1521.61C1853.28 1494.57 1887.87 1457.47 1917.42 1415.97C1943.83 1378.88 1967.09 1337.37 2007.97 1314.74C2018.03 1309.08 2026.2 1293.36 2023.69 1282.04C2018.03 1255 2014.25 1227.34 2010.48 1199.67C2043.18 1195.9 2075.25 1192.12 2107.94 1187.09C2160.13 1178.92 2218.61 1172.63 2265.77 1146.22C2312.93 1119.81 2351.29 1070.14 2379.58 1020.46C2432.4 1053.16 2477.67 1084.6 2543.07 1082.71C2561.3 1082.09 2578.28 1077.06 2594 1068.25C2649.33 1116.67 2722.9 1123.59 2790.18 1100.32C2787.04 1105.35 2785.15 1111.64 2785.15 1118.56C2783.89 1149.99 2777.61 1180.81 2776.35 1212.25C2771.95 1214.13 2768.18 1216.65 2764.4 1220.42C2726.67 1258.15 2696.49 1300.28 2705.92 1356.24C2707.18 1365.04 2711.58 1372.59 2716.61 1377.62C2717.24 1382.65 2718.5 1388.31 2721.64 1393.97C2773.21 1485.14 2892.05 1396.48 2921.6 1325.43C2964.36 1306.56 3003.97 1265.69 3024.09 1234.25C3071.88 1164.46 3096.4 1060.71 3072.51 979.592ZM1501.79 2156.69C1502.42 2156.06 1505.56 2155.43 1506.82 2155.43C1508.08 2155.43 1509.33 2155.43 1510.59 2155.43L1510.59 2155.43C1511.22 2155.43 1511.85 2155.43 1512.48 2156.06C1511.85 2156.06 1517.51 2157.95 1520.02 2159.21C1520.02 2159.21 1520.02 2159.21 1520.65 2159.21C1522.54 2160.46 1524.42 2162.35 1526.31 2163.61C1526.94 2164.24 1527.57 2164.87 1528.2 2165.49C1529.46 2166.75 1530.08 2168.01 1531.34 2169.9C1532.6 2171.78 1537 2179.33 1537 2179.96C1538.26 2182.47 1539.52 2184.99 1540.14 2188.13C1540.77 2190.02 1542.66 2196.93 1543.29 2198.19C1543.29 2200.08 1543.92 2201.34 1543.92 2203.22C1533.86 2200.71 1523.8 2201.34 1514.99 2205.74C1510.59 2189.39 1503.67 2174.3 1494.24 2161.72C1497.39 2159.21 1499.9 2157.32 1501.79 2156.69ZM604.502 2018.36C577.464 2024.64 563.631 2036.59 544.767 2023.39C526.532 2010.81 514.585 1991.95 503.267 1973.08C480.63 1933.47 468.054 1888.2 453.592 1844.81C413.978 1727.23 398.887 1609.64 396.372 1486.4C435.357 1507.15 474.971 1525.38 513.956 1546.13C599.472 1592.66 683.73 1641.71 771.761 1683.84C878.027 1734.77 1001.27 1789.48 1122 1781.3C1127.03 1780.67 1132.69 1780.04 1137.72 1779.42C1138.98 1788.85 1145.26 1797.65 1157.84 1802.68C1157.84 1803.31 1157.21 1803.94 1157.21 1804.57C1156.58 1814 1153.44 1823.43 1150.92 1832.86C1145.89 1849.84 1135.83 1866.19 1125.14 1880.65C1094.96 1920.27 1047.17 1935.36 1003.16 1954.22C878.656 2007.67 735.291 1989.43 604.502 2018.36ZM1273.54 2144.11C1274.79 2144.11 1276.05 2144.11 1277.31 2144.11C1328.87 2144.74 1396.78 2156.69 1431.99 2198.19C1455.89 2226.49 1459.66 2301.94 1412.5 2309.49C1335.16 2322.06 1264.1 2269.24 1189.91 2247.87C1227.64 2223.34 1256.56 2186.87 1273.54 2144.11ZM1211.92 2096.33C1199.97 2162.98 1145.89 2195.68 1085.53 2212.02C1058.49 2219.57 1030.82 2224.6 1003.79 2231.52C988.694 2235.29 973.603 2240.32 959.141 2245.98C946.565 2251.01 928.959 2242.84 912.61 2236.55C832.754 2206.99 766.102 2146.63 718.942 2077.46C718.314 2076.21 717.685 2075.58 716.427 2074.32C774.905 2068.66 833.383 2066.14 891.231 2057.97C965.429 2047.28 1036.48 2024.02 1103.76 1990.06C1129.54 1977.49 1152.18 1960.51 1171.04 1940.39C1211.92 1976.86 1220.72 2046.02 1211.92 2096.33ZM1227.64 1554.94C1227.01 1597.69 1221.35 1644.85 1191.79 1677.55C1169.79 1702.07 1135.2 1708.99 1101.25 1710.25C1003.79 1712.76 902.55 1665.6 816.405 1625.36C726.488 1583.23 640.972 1533.56 553.57 1485.77C511.441 1462.5 469.312 1440.5 425.925 1419.75C397.63 1405.91 369.334 1389.56 363.046 1355.61C355.501 1316.62 365.561 1274.5 373.736 1236.77C393.857 1146.22 422.153 1066.37 461.138 981.479C480.63 938.092 502.638 894.705 529.047 855.72C539.737 840.001 552.313 824.91 566.146 811.705C568.032 810.447 578.093 803.531 576.207 804.788C578.722 803.531 578.722 802.902 578.722 802.902C578.722 802.902 579.351 803.531 580.608 803.531C583.752 804.159 586.896 804.159 589.411 804.159C600.101 824.281 611.419 841.887 618.336 853.205C670.525 938.092 730.889 1018.58 793.14 1096.55C864.193 1185.21 942.164 1269.47 1022.65 1349.32C1089.93 1415.35 1163.5 1475.71 1244.61 1522.87C1235.81 1528.53 1227.64 1539.22 1227.64 1554.94ZM1814.3 1426.66C1751.42 1487.03 1665.9 1507.15 1584.79 1529.16C1545.8 1539.85 1506.82 1551.16 1467.2 1559.97C1465.32 1545.51 1455.89 1531.04 1439.54 1526.64C1431.36 1517.21 1419.42 1514.69 1407.47 1517.21C1183.62 1444.9 1002.53 1235.51 866.08 1070.14C810.746 1003.49 759.185 933.062 710.768 861.38C688.132 828.054 666.124 794.099 648.518 757.629C642.859 746.311 638.457 734.992 634.684 723.045C647.889 708.583 644.745 685.318 632.169 672.113C632.798 670.227 633.427 667.712 633.427 665.196C642.23 588.484 705.738 531.264 761.071 484.104C823.322 430.657 882.428 372.808 946.565 322.505C1011.33 272.202 1083.01 231.33 1158.47 199.89C1231.41 169.708 1308.12 153.36 1382.32 126.322C1447.08 103.056 1512.48 76.0184 1582.27 72.2457C1659.62 67.8441 1694.2 119.405 1727.52 181.655C1808.01 333.194 1848.25 507.998 1885.98 674C1909.25 775.235 1920.56 875.213 1924.97 978.964C1928.74 1075.17 1930.62 1172 1948.23 1266.95C1892.9 1307.82 1864.6 1378.25 1814.3 1426.66ZM2372.67 848.804C2354.43 923.63 2319.22 994.683 2266.4 1050.65C2226.16 1093.4 2177.74 1100.95 2118.63 1111.01C2080.91 1117.3 2043.18 1122.33 2005.45 1126.1C2001.68 1075.17 2000.42 1023.61 1998.53 972.676C1994.76 868.925 1982.19 768.947 1959.55 667.712C1925.59 516.173 1888.5 362.119 1826.24 219.383C1828.76 218.754 1831.28 218.125 1833.16 216.868C1833.16 216.868 1832.53 216.868 1832.53 217.497C1850.14 216.239 1860.83 204.921 1863.97 191.716C1871.52 185.428 1879.06 179.769 1889.75 174.739C1924.34 157.761 1962.69 148.958 1999.79 140.784C2051.35 129.466 2106.69 128.208 2159.5 131.981C2217.98 135.754 2278.35 145.814 2329.91 174.739C2385.87 206.807 2381.47 284.149 2384.61 340.111C2390.9 433.172 2385.87 526.233 2387.13 619.295C2388.38 697.894 2391.53 770.833 2372.67 848.804ZM2546.21 1007.89C2496.54 1016.69 2453.15 978.335 2413.54 953.812C2441.83 887.789 2457.55 816.107 2461.95 744.424C2466.98 660.795 2458.81 575.279 2459.44 491.65C2460.07 423.74 2460.07 355.831 2453.15 287.921C2546.84 301.755 2639.27 357.088 2699.64 428.771C2732.33 467.756 2751.2 509.885 2749.94 561.446C2749.31 579.681 2746.8 597.916 2741.77 615.522C2736.11 621.81 2734.22 629.984 2735.48 637.53C2727.3 663.31 2716.61 689.091 2705.92 712.985C2673.86 787.811 2649.96 867.039 2613.49 939.35C2600.92 968.274 2579.54 1002.23 2546.21 1007.89ZM2651.22 1018.58C2652.48 1016.69 2654.36 1014.8 2655.62 1012.92C2684.55 972.047 2702.15 924.888 2718.5 877.728C2735.48 829.94 2755.6 784.038 2775.72 737.508C2785.78 713.613 2794.58 689.719 2802.13 665.825C2839.86 657.651 2888.9 711.727 2907.14 734.992C2921.6 752.599 2935.43 773.977 2939.21 797.243C2944.87 828.054 2927.26 860.751 2912.8 886.531C2885.76 936.835 2848.66 987.138 2799.61 1016.69C2753.71 1044.99 2695.86 1050.02 2651.22 1018.58ZM2817.85 1344.29C2809.05 1350.58 2800.24 1354.98 2790.18 1358.13C2783.89 1360.01 2787.04 1358.75 2783.89 1353.09C2782.64 1350.58 2781.38 1348.69 2779.49 1346.81C2776.98 1322.28 2786.41 1305.31 2800.87 1288.33C2810.3 1301.53 2822.25 1312.85 2835.46 1321.66C2836.71 1322.91 2838.6 1323.54 2839.86 1324.17C2833.57 1331.72 2825.4 1338.63 2817.85 1344.29ZM3007.12 1062.59C3002.71 1116.04 2985.74 1171.37 2951.15 1213.5C2932.29 1236.14 2878.84 1285.81 2857.46 1242.43C2838.6 1204.7 2858.09 1153.14 2859.35 1112.9C2859.98 1094.03 2848.03 1083.34 2834.2 1080.83C2870.04 1060.08 2900.85 1031.15 2927.26 997.827C2943.61 1004.74 2964.36 1002.23 2975.05 982.108C2977.56 977.077 2980.08 972.047 2983.85 968.274C2990.14 972.676 2995.17 983.994 2998.31 989.653C3009 1012.29 3009 1038.07 3007.12 1062.59Z" fill="#010101" fill-rule="nonzero" opacity="1" stroke="none" vectornator:layerName="path"/>
<path d="M1111.94 724.932C1110.68 704.182 1092.44 690.977 1072.95 691.606C1066.04 691.606 1058.49 694.121 1052.2 697.265C1045.29 700.409 1038.37 703.553 1032.08 707.954C1028.31 710.469 1025.16 712.985 1022.02 716.129C1010.7 726.818 1009.44 748.826 1018.88 761.402C1025.16 769.576 1032.08 773.977 1042.14 777.121C1049.06 779.008 1055.35 777.121 1061.63 775.864C1063.52 775.235 1066.04 773.977 1067.92 773.349C1070.44 772.091 1073.58 770.833 1076.1 768.947C1077.98 767.69 1079.24 766.432 1081.13 765.174C1099.36 761.402 1113.19 743.167 1111.94 724.932ZM1277.94 403.619C1270.39 397.331 1260.96 394.187 1250.9 394.816C1241.47 395.445 1232.67 399.846 1226.38 407.392C1219.46 414.937 1217.57 424.369 1217.57 434.43L1217.57 452.665C1217.57 461.468 1223.23 471.529 1230.15 477.188C1237.7 483.476 1247.13 486.62 1257.19 485.991C1266.62 485.362 1275.42 480.96 1281.71 473.415C1288.63 465.869 1290.51 456.438 1290.51 446.377L1290.51 428.142C1290.51 419.339 1284.86 409.278 1277.94 403.619ZM1301.2 870.183C1254.04 870.183 1260.33 943.122 1306.86 943.122C1353.39 942.494 1347.73 870.183 1301.2 870.183ZM1697.34 714.871C1696.71 705.439 1692.31 696.636 1684.77 690.348C1680.99 687.204 1677.22 684.689 1672.82 683.431C1672.19 682.803 1672.19 682.803 1671.56 682.174C1669.05 680.287 1664.65 676.515 1660.87 675.257C1651.44 671.484 1648.3 671.484 1638.24 670.856C1629.43 670.227 1619.37 676.515 1613.71 683.431C1607.43 690.977 1604.28 700.409 1604.91 710.469C1605.54 719.901 1609.94 728.704 1617.49 734.992C1621.26 738.136 1625.03 740.651 1629.43 741.909C1630.06 742.538 1630.06 742.538 1630.69 743.167C1633.21 745.053 1637.61 748.197 1641.38 750.083C1650.81 753.856 1653.96 753.856 1664.02 754.485C1672.82 755.114 1682.88 748.826 1688.54 741.909C1694.83 734.364 1698.6 724.303 1697.34 714.871ZM1450.23 383.498C1403.07 383.498 1409.36 456.438 1455.89 456.438C1502.42 455.809 1496.76 383.498 1450.23 383.498ZM1399.92 714.871C1399.3 705.439 1394.89 696.636 1387.35 690.348C1379.8 683.431 1370.37 681.545 1360.31 681.545L1350.25 681.545C1341.45 681.545 1331.39 687.204 1325.73 694.121C1319.44 701.666 1316.29 711.098 1316.92 721.159C1317.55 730.591 1321.95 739.394 1329.5 745.682C1337.04 752.599 1346.48 754.485 1356.54 754.485L1366.6 754.485C1375.4 754.485 1385.46 748.826 1391.12 741.909C1397.41 734.364 1400.55 724.303 1399.92 714.871ZM1091.82 605.461C1091.19 596.029 1086.79 587.226 1079.24 580.938C1071.69 574.022 1062.26 572.135 1052.2 572.135C1044.03 572.135 1035.85 572.764 1028.31 575.908C1021.39 579.052 1013.85 582.825 1009.44 589.113C1003.16 597.287 1003.16 597.916 1000.01 607.976C998.755 612.378 998.755 616.779 998.755 621.81C998.126 630.613 1004.41 640.674 1011.33 646.333C1018.88 652.621 1028.31 655.765 1038.37 655.136C1046.54 654.507 1054.72 650.734 1060.38 645.075C1068.55 644.446 1077.35 638.787 1082.38 633.128C1089.3 624.954 1092.44 615.522 1091.82 605.461Z" fill="#010101" fill-rule="nonzero" opacity="1" stroke="none" vectornator:layerName="path"/>
</g>
</g>
</svg>
