<?xml version="1.0" encoding="UTF-8" standalone="no"?>
<!DOCTYPE svg PUBLIC "-//W3C//DTD SVG 1.1//EN" "http://www.w3.org/Graphics/SVG/1.1/DTD/svg11.dtd">
<!-- Created with Vectornator (http://vectornator.io/) -->
<svg height="100%" stroke-miterlimit="10" style="fill-rule:nonzero;clip-rule:evenodd;stroke-linecap:round;stroke-linejoin:round;" version="1.1" viewBox="0 0 21 21" width="100%" xml:space="preserve" xmlns="http://www.w3.org/2000/svg" xmlns:vectornator="http://vectornator.io" xmlns:xlink="http://www.w3.org/1999/xlink">
<defs/>
<g id="Untitled" vectornator:layerName="Untitled">
<path d="M7.8 0C9.8686 0.000229615 11.8524 0.822164 13.315 2.285C14.7778 3.74761 15.5998 5.7314 15.6 7.8C15.5998 9.66084 14.9361 11.4606 13.728 12.876L14.052 13.2L15 13.2L21 19.2L19.2 21L13.2 15L13.2 14.052L12.876 13.728C11.4606 14.9361 9.66084 15.5998 7.8 15.6C3.49218 15.6 2.30391e-15 12.1078 1.77636e-15 7.8C0.000229615 5.7314 0.822164 3.74761 2.285 2.285C3.74761 0.822164 5.7314 0.000229615 7.8 0ZM7.8 2.4C4.8 2.4 2.4 4.8 2.4 7.8C2.4 10.8 4.8 13.2 7.8 13.2C10.8 13.2 13.2 10.8 13.2 7.8C13.2 4.8 10.8 2.4 7.8 2.4Z" fill="#929864" fill-rule="nonzero" opacity="1" stroke="none" vectornator:layerName="path"/>
</g>
</svg>
