<?xml version="1.0" encoding="UTF-8" standalone="no"?>
<!DOCTYPE svg PUBLIC "-//W3C//DTD SVG 1.1//EN" "http://www.w3.org/Graphics/SVG/1.1/DTD/svg11.dtd">
<!-- Created with Vectornator (http://vectornator.io/) -->
<svg height="100%" stroke-miterlimit="10" style="fill-rule:nonzero;clip-rule:evenodd;stroke-linecap:round;stroke-linejoin:round;" version="1.1" viewBox="0 0 2384.24 2384.24" width="100%" xml:space="preserve" xmlns="http://www.w3.org/2000/svg" xmlns:vectornator="http://vectornator.io" xmlns:xlink="http://www.w3.org/1999/xlink">
<defs/>
<clipPath id="ArtboardFrame">
<rect height="2384.24" width="2384.24" x="0" y="0"/>
</clipPath>
<g clip-path="url(#ArtboardFrame)" id="Layer-1" vectornator:layerName="Layer 1">
<g opacity="1" vectornator:layerName="Bread">
<path d="M902.576 1419.63C878.076 1346.69 834.644 1280.43 758.916 1256.49C707.688 1240.34 403.105 1175.75 438.742 1301.59C439.299 1303.82 440.412 1306.04 441.526 1308.27C438.742 1310.5 435.958 1313.28 433.73 1316.07C407.56 1345.58 453.776 1386.23 479.947 1356.71C499.436 1334.44 550.107 1353.37 572.936 1360.05C610.244 1371.75 648.664 1391.24 679.847 1414.62C772.279 1484.78 827.405 1598.93 873.621 1702.5C884.758 1727.56 929.861 1731.46 932.645 1698.05C939.883 1605.06 932.645 1508.73 902.576 1419.63ZM707.688 1359.5C664.812 1329.43 615.812 1307.71 565.141 1293.79C555.118 1291.01 543.981 1288.78 532.845 1287.11C550.107 1286 567.368 1286.55 584.073 1287.67C640.312 1291.57 697.108 1300.47 751.12 1317.18C773.393 1324.42 780.632 1331.1 797.893 1351.7C822.393 1381.21 837.428 1416.85 849.121 1453.04C859.701 1486.45 866.939 1520.98 870.28 1556.61C829.075 1480.89 777.848 1408.5 707.688 1359.5ZM1285.11 1108.37C1237.78 1069.39 1028.98 940.766 1005.59 1063.27C1005.59 1064.38 1005.03 1065.49 1005.03 1066.61C976.077 1063.82 948.236 1070.51 923.735 1093.34C894.781 1120.06 940.997 1160.15 969.952 1133.98C991.668 1113.94 1033.43 1138.44 1053.48 1149.58C1093.01 1171.85 1127.53 1204.14 1158.16 1237C1189.9 1270.41 1218.3 1310.5 1235.56 1353.37C1258.94 1411.84 1261.73 1476.99 1261.73 1539.35C1261.73 1570.53 1306.83 1576.66 1319.64 1550.49C1384.79 1416.85 1414.85 1215.84 1285.11 1108.37ZM1309.06 1390.68C1303.49 1365.62 1296.25 1340.57 1285.67 1316.62C1263.4 1264.28 1224.42 1218.06 1184.89 1177.42C1155.37 1147.35 1110.27 1106.7 1062.38 1083.87C1063.5 1081.09 1064.61 1078.3 1065.73 1074.96L1065.73 1074.96C1069.62 1074.4 1074.63 1074.4 1079.65 1074.96C1100.81 1077.74 1120.85 1085.54 1139.78 1093.89C1178.76 1110.6 1219.97 1132.31 1251.7 1161.27C1289.57 1195.23 1312.4 1265.39 1314.07 1324.97C1315.18 1346.69 1312.96 1368.41 1309.06 1390.68ZM1714.98 1056.59C1672.66 990.323 1601.39 942.437 1529 910.698C1523.99 901.232 1514.53 893.993 1501.16 893.993L1478.89 893.993C1464.41 893.993 1454.39 905.686 1451.6 918.493C1442.7 922.948 1433.79 929.073 1424.88 937.425C1396.48 964.71 1442.7 1004.8 1471.09 978.073C1479.45 969.721 1481.67 970.835 1487.8 972.505C1495.04 973.619 1507.84 983.642 1517.31 993.664C1545.15 1021.51 1565.2 1060.48 1581.9 1096.12C1601.95 1137.33 1618.1 1180.2 1632.02 1223.63C1640.92 1252.03 1650.39 1278.2 1650.95 1306.04C1651.5 1340.01 1693.82 1340.01 1708.86 1317.18C1763.43 1234.21 1768.44 1140.11 1714.98 1056.59ZM1689.93 1201.36C1688.81 1198.58 1688.25 1195.79 1687.14 1193.01C1670.44 1141.78 1649.28 1091.67 1624.22 1043.22C1635.91 1054.36 1646.49 1066.05 1656.52 1078.86C1686.03 1117.84 1695.49 1159.6 1689.93 1201.36ZM1738.37 861.697C1702.73 877.845 1722.78 935.755 1758.41 919.607C1780.13 909.584 1786.81 927.959 1794.05 947.448C1803.52 972.505 1806.3 1000.35 1806.86 1027.07C1807.42 1066.61 1868.11 1061.6 1868.11 1022.62C1867.55 954.687 1834.7 818.265 1738.37 861.697ZM826.848 719.15C827.405 713.582 829.632 708.571 831.303 704.116C842.996 675.718 861.928 649.547 878.633 623.933C912.599 573.262 953.804 519.807 939.883 455.772C924.292 382.828 860.814 350.533 804.575 311.555C782.302 295.964 758.359 277.032 752.79 248.634C747.779 224.134 762.257 170.122 795.666 175.133C834.644 180.701 846.337 120.564 807.359 114.996C711.029 101.076 665.926 225.804 707.688 298.748C726.62 332.157 758.359 353.874 789.541 374.476C819.609 393.965 856.36 413.454 873.064 447.42C903.69 508.671 839.098 573.262 806.246 623.933C775.62 671.263 732.745 756.457 810.7 785.412C847.451 798.776 874.735 744.207 837.985 730.287C835.2 729.173 827.405 725.275 827.962 725.832C827.405 725.275 827.405 725.275 826.848 725.275C826.848 724.718 826.848 724.162 826.291 723.605C826.848 725.275 826.291 720.821 826.848 719.15ZM1155.37 422.363C1147.58 376.703 1118.62 339.953 1088 306.544C1075.19 292.623 1060.71 279.259 1048.46 264.225C1043.45 258.657 1039.55 252.532 1035.1 246.407C1032.87 242.509 1032.87 237.497 1032.32 239.168C1037.88 200.19 977.747 188.497 972.179 227.475C966.611 265.339 992.225 293.737 1016.17 319.351C1045.68 351.09 1079.65 380.601 1093.01 422.92C1108.6 471.363 1065.73 522.591 1043.45 562.126C1015.05 612.797 1006.15 666.809 1028.98 721.934C1044.01 758.128 1101.92 738.082 1086.88 701.889C1044.57 600.547 1173.19 527.046 1155.37 422.363ZM1412.63 389.51C1407.62 314.339 1374.21 168.451 1270.64 193.508C1232.22 202.974 1252.82 260.327 1290.68 251.418C1312.96 245.85 1328.55 292.623 1334.11 307.657C1346.92 343.851 1352.49 382.828 1351.93 420.693C1351.93 447.316 1346.65 474.644 1339.55 501.388C1334.02 522.189 1327.4 542.637 1321.31 562.126C1304.05 616.695 1280.66 670.706 1252.82 720.821C1233.33 755.344 1288.46 782.071 1307.94 748.105C1341.91 687.968 1366.97 622.82 1387.01 556.558C1403.72 503.102 1416.52 446.306 1412.63 389.51Z" fill="#ada9c0" fill-rule="nonzero" opacity="1" stroke="none" vectornator:layerName="path"/>
<path d="M2374.82 955.244C2347.53 827.174 2257.33 731.957 2135.94 687.968C1848.06 582.728 1552.39 730.287 1287.34 831.629C1207.16 862.254 1125.86 887.868 1042.34 906.8C957.145 925.732 870.28 937.982 783.973 952.459C714.926 964.153 644.767 974.732 579.061 999.789C528.947 1018.72 481.06 1042.66 434.287 1068.28C327.934 1127.3 228.262 1201.36 145.852 1291.01C70.6811 1372.3 7.20312 1474.76 0.521234 1588.35C-0.592414 1609.51-0.0355904 1630.11 3.30535 1650.72C4.419 1659.63 8.87359 1666.31 14.4418 1670.76C14.4418 1671.32 14.4418 1672.43 14.4418 1672.99C20.5669 1788.81 55.6468 1901.29 126.92 1993.72C192.069 2078.91 283.388 2140.17 380.832 2182.48C598.55 2276.59 849.678 2284.38 1081.87 2255.43C1339.13 2223.69 1589.14 2135.15 1800.73 1983.7C1905.97 1908.53 1999.52 1817.21 2080.82 1716.98C2123.69 1664.08 2162.11 1607.84 2197.75 1549.93C2233.94 1491.47 2270.14 1433.56 2300.2 1371.19C2360.34 1244.79 2404.33 1096.12 2374.82 955.244ZM2321.92 1076.07C2313.01 1218.62 2246.75 1355.6 2171.58 1474.76C2099.75 1588.91 2024.02 1696.93 1928.25 1793.26C1838.6 1883.47 1735.03 1959.75 1623.66 2021.56C1395.92 2147.96 1128.65 2206.43 869.724 2208.1C690.426 2209.21 502.22 2181.93 342.968 2096.18C270.024 2056.64 205.432 2002.07 158.102 1933.58C104.091 1855.07 79.5902 1762.08 74.5788 1667.98C74.022 1657.96 69.5674 1650.72 63.4423 1646.26L63.4423 1645.71C47.8513 1535.45 102.977 1434.67 172.023 1352.82C250.535 1259.83 350.764 1186.33 456.003 1126.19C501.663 1100.02 549.55 1076.63 599.107 1057.7C665.926 1032.09 738.313 1022.06 808.473 1010.37C893.11 995.892 977.747 983.085 1061.83 964.71C1145.35 946.334 1226.65 920.164 1306.83 889.538C1330.83 880.421 1354.75 870.931 1378.65 861.298C1509.47 808.566 1639.74 751.514 1779.57 727.503C1900.96 706.343 2034.04 706.9 2147.63 759.242C2272.36 817.151 2330.83 942.993 2321.92 1076.07Z" fill="#ada9c0" fill-rule="nonzero" opacity="1" stroke="none" vectornator:layerName="path"/>
</g>
</g>
</svg>
