<?xml version="1.0" encoding="UTF-8" standalone="no"?>
<!DOCTYPE svg PUBLIC "-//W3C//DTD SVG 1.1//EN" "http://www.w3.org/Graphics/SVG/1.1/DTD/svg11.dtd">
<!-- Created with Vectornator (http://vectornator.io/) -->
<svg height="100%" stroke-miterlimit="10" style="fill-rule:nonzero;clip-rule:evenodd;stroke-linecap:round;stroke-linejoin:round;" version="1.1" viewBox="0 0 3370.82 2384.24" width="100%" xml:space="preserve" xmlns="http://www.w3.org/2000/svg" xmlns:vectornator="http://vectornator.io" xmlns:xlink="http://www.w3.org/1999/xlink">
<defs/>
<clipPath id="ArtboardFrame">
<rect height="2384.24" width="3370.82" x="0" y="0"/>
</clipPath>
<g clip-path="url(#ArtboardFrame)" id="Layer-1" vectornator:layerName="Layer 1">
<g opacity="1" vectornator:layerName="Cake">
<path d="M1685.41-5.68434e-13C1477.5-3.09813e-06 1308.95 168.546 1308.95 376.458C1308.95 584.37 1477.5 752.916 1685.41 752.916C1893.32 752.916 2061.87 584.37 2061.87 376.458C2061.87 168.546 1893.32-3.09813e-06 1685.41-5.68434e-13Z" fill="#f44336" fill-rule="nonzero" opacity="1" stroke="none" vectornator:layerName="path"/>
<path d="M2250.09 250.972C2125.17 250.972 2018.2 324.507 1967.75 430.229C1917.31 324.507 1810.33 250.972 1685.41 250.972C1560.49 250.972 1453.51 324.507 1403.06 430.229C1352.62 324.507 1245.64 250.972 1120.72 250.972C947.487 250.972 807.005 391.454 807.005 564.687L2563.81 564.687C2563.81 391.454 2423.33 250.972 2250.09 250.972Z" fill="#f8bbd0" fill-rule="nonzero" opacity="1" stroke="none" vectornator:layerName="path"/>
<path d="M493.29 752.916L2877.53 752.916L2877.53 2384.24L493.29 2384.24L493.29 752.916Z" fill="#ffe0b2" fill-rule="nonzero" opacity="1" stroke="none" vectornator:layerName="path"/>
<path d="M493.29 1756.8L2877.53 1756.8L2877.53 2196.01L493.29 2196.01L493.29 1756.8ZM493.29 1317.6L2877.53 1317.6L2877.53 1505.83L493.29 1505.83L493.29 1317.6Z" fill="#ef5350" fill-rule="nonzero" opacity="1" stroke="none" vectornator:layerName="path"/>
<path d="M493.29 2196.01L2877.53 2196.01L2877.53 2384.24L493.29 2384.24L493.29 2196.01Z" fill="#ffcc80" fill-rule="nonzero" opacity="1" stroke="none" vectornator:layerName="path"/>
<path d="M618.776 564.687C549.445 564.687 493.29 620.842 493.29 690.173L493.29 815.659L1873.64 815.659C1942.97 815.659 1999.12 871.814 1999.12 941.145C1999.12 941.145 1999.12 1024.22 1999.12 1035.26C1999.12 1087.21 2041.29 1129.37 2093.24 1129.37C2145.19 1129.37 2187.35 1087.21 2187.35 1035.26C2187.35 1024.22 2187.35 941.145 2187.35 941.145C2187.35 871.814 2243.51 815.659 2312.84 815.659C2382.17 815.659 2438.32 871.814 2438.32 941.145C2438.32 975.842 2466.37 1003.89 2501.07 1003.89C2535.76 1003.89 2563.81 975.842 2563.81 941.145C2563.81 871.814 2619.96 815.659 2689.3 815.659L2877.53 815.659L2877.53 564.687L618.776 564.687Z" fill="#795548" fill-rule="nonzero" opacity="1" stroke="none" vectornator:layerName="path"/>
</g>
</g>
</svg>
